solid Default
  facet normal -9.659259e-01 2.588190e-01 -3.169618e-17
    outer loop
      vertex -7.517541e+00 2.736161e+00 4.440892e-16
      vertex -7.878462e+00 1.389185e+00 7.000000e-01
      vertex -7.517541e+00 2.736161e+00 7.000000e-01
    endloop
  endfacet
  facet normal -9.659259e-01 2.588190e-01 -3.169618e-17
    outer loop
      vertex -7.517541e+00 2.736161e+00 4.440892e-16
      vertex -7.878462e+00 1.389185e+00 6.661338e-16
      vertex -7.878462e+00 1.389185e+00 7.000000e-01
    endloop
  endfacet
  facet normal -9.063077e-01 4.226183e-01 -5.175582e-17
    outer loop
      vertex -6.928203e+00 4.000000e+00 4.440892e-16
      vertex -7.517541e+00 2.736161e+00 7.000000e-01
      vertex -6.928203e+00 4.000000e+00 7.000000e-01
    endloop
  endfacet
  facet normal -9.063077e-01 4.226183e-01 -5.175582e-17
    outer loop
      vertex -6.928203e+00 4.000000e+00 4.440892e-16
      vertex -7.517541e+00 2.736161e+00 4.440892e-16
      vertex -7.517541e+00 2.736161e+00 7.000000e-01
    endloop
  endfacet
  facet normal 9.961947e-01 -8.715587e-02 1.067352e-17
    outer loop
      vertex 7.878462e+00 -1.389185e+00 1.110223e-15
      vertex 8.000000e+00 1.873710e-15 7.000000e-01
      vertex 7.878462e+00 -1.389185e+00 7.000000e-01
    endloop
  endfacet
  facet normal 9.961947e-01 -8.715587e-02 1.067352e-17
    outer loop
      vertex 7.878462e+00 -1.389185e+00 1.110223e-15
      vertex 8.000000e+00 1.787984e-15 8.881784e-16
      vertex 8.000000e+00 1.873710e-15 7.000000e-01
    endloop
  endfacet
  facet normal -8.191521e-01 5.735763e-01 -7.024284e-17
    outer loop
      vertex -6.128356e+00 5.142301e+00 2.220446e-16
      vertex -6.928203e+00 4.000000e+00 7.000000e-01
      vertex -6.128356e+00 5.142301e+00 7.000000e-01
    endloop
  endfacet
  facet normal -8.191521e-01 5.735763e-01 -7.024284e-17
    outer loop
      vertex -6.128356e+00 5.142301e+00 2.220446e-16
      vertex -6.928203e+00 4.000000e+00 4.440892e-16
      vertex -6.928203e+00 4.000000e+00 7.000000e-01
    endloop
  endfacet
  facet normal 9.659259e-01 -2.588190e-01 3.169618e-17
    outer loop
      vertex 7.517541e+00 -2.736161e+00 1.332268e-15
      vertex 7.878462e+00 -1.389185e+00 7.000000e-01
      vertex 7.517541e+00 -2.736161e+00 7.000000e-01
    endloop
  endfacet
  facet normal 9.659259e-01 -2.588190e-01 3.169618e-17
    outer loop
      vertex 7.517541e+00 -2.736161e+00 1.332268e-15
      vertex 7.878462e+00 -1.389185e+00 1.110223e-15
      vertex 7.878462e+00 -1.389185e+00 7.000000e-01
    endloop
  endfacet
  facet normal -7.071068e-01 7.071068e-01 -8.659561e-17
    outer loop
      vertex -5.142301e+00 6.128356e+00 2.220446e-16
      vertex -6.128356e+00 5.142301e+00 7.000000e-01
      vertex -5.142301e+00 6.128356e+00 7.000000e-01
    endloop
  endfacet
  facet normal -7.071068e-01 7.071068e-01 -8.659561e-17
    outer loop
      vertex -5.142301e+00 6.128356e+00 2.220446e-16
      vertex -6.128356e+00 5.142301e+00 2.220446e-16
      vertex -6.128356e+00 5.142301e+00 7.000000e-01
    endloop
  endfacet
  facet normal 9.063077e-01 -4.226183e-01 5.175582e-17
    outer loop
      vertex 6.928203e+00 -4.000000e+00 1.332268e-15
      vertex 7.517541e+00 -2.736161e+00 7.000000e-01
      vertex 6.928203e+00 -4.000000e+00 7.000000e-01
    endloop
  endfacet
  facet normal 8.191521e-01 -5.735763e-01 7.024284e-17
    outer loop
      vertex 6.928203e+00 -4.000000e+00 1.332268e-15
      vertex 6.928203e+00 -4.000000e+00 7.000000e-01
      vertex 6.128356e+00 -5.142301e+00 7.000000e-01
    endloop
  endfacet
  facet normal 9.063077e-01 -4.226183e-01 5.175582e-17
    outer loop
      vertex 6.928203e+00 -4.000000e+00 1.332268e-15
      vertex 7.517541e+00 -2.736161e+00 1.332268e-15
      vertex 7.517541e+00 -2.736161e+00 7.000000e-01
    endloop
  endfacet
  facet normal -5.735763e-01 8.191521e-01 -1.003172e-16
    outer loop
      vertex -4.000000e+00 6.928203e+00 0.000000e+00
      vertex -5.142301e+00 6.128356e+00 7.000000e-01
      vertex -4.000000e+00 6.928203e+00 7.000000e-01
    endloop
  endfacet
  facet normal -5.735763e-01 8.191521e-01 -1.003172e-16
    outer loop
      vertex -4.000000e+00 6.928203e+00 0.000000e+00
      vertex -5.142301e+00 6.128356e+00 2.220446e-16
      vertex -5.142301e+00 6.128356e+00 7.000000e-01
    endloop
  endfacet
  facet normal 7.071068e-01 -7.071068e-01 8.659561e-17
    outer loop
      vertex 6.128356e+00 -5.142301e+00 1.554312e-15
      vertex 6.128356e+00 -5.142301e+00 7.000000e-01
      vertex 5.142301e+00 -6.128356e+00 7.000000e-01
    endloop
  endfacet
  facet normal 8.191521e-01 -5.735763e-01 7.024284e-17
    outer loop
      vertex 6.128356e+00 -5.142301e+00 1.554312e-15
      vertex 6.928203e+00 -4.000000e+00 1.332268e-15
      vertex 6.128356e+00 -5.142301e+00 7.000000e-01
    endloop
  endfacet
  facet normal -4.226183e-01 9.063077e-01 -1.109907e-16
    outer loop
      vertex -2.736161e+00 7.517541e+00 0.000000e+00
      vertex -4.000000e+00 6.928203e+00 7.000000e-01
      vertex -2.736161e+00 7.517541e+00 7.000000e-01
    endloop
  endfacet
  facet normal -4.226183e-01 9.063077e-01 -1.109907e-16
    outer loop
      vertex -2.736161e+00 7.517541e+00 0.000000e+00
      vertex -4.000000e+00 6.928203e+00 0.000000e+00
      vertex -4.000000e+00 6.928203e+00 7.000000e-01
    endloop
  endfacet
  facet normal 7.071068e-01 -7.071068e-01 8.659561e-17
    outer loop
      vertex 5.142301e+00 -6.128356e+00 1.554312e-15
      vertex 6.128356e+00 -5.142301e+00 1.554312e-15
      vertex 5.142301e+00 -6.128356e+00 7.000000e-01
    endloop
  endfacet
  facet normal -2.588190e-01 9.659259e-01 -1.182918e-16
    outer loop
      vertex -1.389185e+00 7.878462e+00 0.000000e+00
      vertex -2.736161e+00 7.517541e+00 7.000000e-01
      vertex -1.389185e+00 7.878462e+00 7.000000e-01
    endloop
  endfacet
  facet normal -2.588190e-01 9.659259e-01 -1.182918e-16
    outer loop
      vertex -1.389185e+00 7.878462e+00 0.000000e+00
      vertex -2.736161e+00 7.517541e+00 0.000000e+00
      vertex -2.736161e+00 7.517541e+00 7.000000e-01
    endloop
  endfacet
  facet normal 5.735763e-01 -8.191521e-01 1.003172e-16
    outer loop
      vertex 4.000000e+00 -6.928203e+00 1.776357e-15
      vertex 5.142301e+00 -6.128356e+00 1.554312e-15
      vertex 5.142301e+00 -6.128356e+00 7.000000e-01
    endloop
  endfacet
  facet normal 5.735763e-01 -8.191521e-01 1.003172e-16
    outer loop
      vertex 4.000000e+00 -6.928203e+00 1.776357e-15
      vertex 5.142301e+00 -6.128356e+00 7.000000e-01
      vertex 4.000000e+00 -6.928203e+00 7.000000e-01
    endloop
  endfacet
  facet normal 4.226183e-01 -9.063077e-01 1.109907e-16
    outer loop
      vertex 4.000000e+00 -6.928203e+00 1.776357e-15
      vertex 4.000000e+00 -6.928203e+00 7.000000e-01
      vertex 2.736161e+00 -7.517541e+00 7.000000e-01
    endloop
  endfacet
  facet normal -8.715587e-02 9.961947e-01 -1.219987e-16
    outer loop
      vertex -2.278586e-14 8.000000e+00 0.000000e+00
      vertex -1.389185e+00 7.878462e+00 7.000000e-01
      vertex -2.278586e-14 8.000000e+00 7.000000e-01
    endloop
  endfacet
  facet normal -8.715587e-02 9.961947e-01 -1.219987e-16
    outer loop
      vertex -2.278586e-14 8.000000e+00 0.000000e+00
      vertex -1.389185e+00 7.878462e+00 0.000000e+00
      vertex -1.389185e+00 7.878462e+00 7.000000e-01
    endloop
  endfacet
  facet normal 4.226183e-01 -9.063077e-01 1.109907e-16
    outer loop
      vertex 2.736161e+00 -7.517541e+00 1.776357e-15
      vertex 4.000000e+00 -6.928203e+00 1.776357e-15
      vertex 2.736161e+00 -7.517541e+00 7.000000e-01
    endloop
  endfacet
  facet normal 8.715587e-02 9.961947e-01 -1.219987e-16
    outer loop
      vertex 1.389185e+00 7.878462e+00 0.000000e+00
      vertex -2.278586e-14 8.000000e+00 7.000000e-01
      vertex 1.389185e+00 7.878462e+00 7.000000e-01
    endloop
  endfacet
  facet normal 8.715587e-02 9.961947e-01 -1.219987e-16
    outer loop
      vertex 1.389185e+00 7.878462e+00 0.000000e+00
      vertex -2.278586e-14 8.000000e+00 0.000000e+00
      vertex -2.278586e-14 8.000000e+00 7.000000e-01
    endloop
  endfacet
  facet normal 2.588190e-01 -9.659259e-01 1.182918e-16
    outer loop
      vertex 1.389185e+00 -7.878462e+00 1.776357e-15
      vertex 2.736161e+00 -7.517541e+00 7.000000e-01
      vertex 1.389185e+00 -7.878462e+00 7.000000e-01
    endloop
  endfacet
  facet normal 2.588190e-01 -9.659259e-01 1.182918e-16
    outer loop
      vertex 1.389185e+00 -7.878462e+00 1.776357e-15
      vertex 2.736161e+00 -7.517541e+00 1.776357e-15
      vertex 2.736161e+00 -7.517541e+00 7.000000e-01
    endloop
  endfacet
  facet normal 2.588190e-01 9.659259e-01 -1.182918e-16
    outer loop
      vertex 2.736161e+00 7.517541e+00 0.000000e+00
      vertex 1.389185e+00 7.878462e+00 7.000000e-01
      vertex 2.736161e+00 7.517541e+00 7.000000e-01
    endloop
  endfacet
  facet normal 2.588190e-01 9.659259e-01 -1.182918e-16
    outer loop
      vertex 2.736161e+00 7.517541e+00 0.000000e+00
      vertex 1.389185e+00 7.878462e+00 0.000000e+00
      vertex 1.389185e+00 7.878462e+00 7.000000e-01
    endloop
  endfacet
  facet normal 8.715587e-02 -9.961947e-01 1.219987e-16
    outer loop
      vertex 4.898587e-16 -8.000000e+00 1.776357e-15
      vertex 1.389185e+00 -7.878462e+00 7.000000e-01
      vertex 4.898587e-16 -8.000000e+00 7.000000e-01
    endloop
  endfacet
  facet normal -8.715587e-02 -9.961947e-01 1.219987e-16
    outer loop
      vertex 4.898587e-16 -8.000000e+00 1.776357e-15
      vertex 4.898587e-16 -8.000000e+00 7.000000e-01
      vertex -1.389185e+00 -7.878462e+00 7.000000e-01
    endloop
  endfacet
  facet normal 8.715587e-02 -9.961947e-01 1.219987e-16
    outer loop
      vertex 4.898587e-16 -8.000000e+00 1.776357e-15
      vertex 1.389185e+00 -7.878462e+00 1.776357e-15
      vertex 1.389185e+00 -7.878462e+00 7.000000e-01
    endloop
  endfacet
  facet normal 4.226183e-01 9.063077e-01 -1.109907e-16
    outer loop
      vertex 4.000000e+00 6.928203e+00 0.000000e+00
      vertex 2.736161e+00 7.517541e+00 7.000000e-01
      vertex 4.000000e+00 6.928203e+00 7.000000e-01
    endloop
  endfacet
  facet normal 4.226183e-01 9.063077e-01 -1.109907e-16
    outer loop
      vertex 4.000000e+00 6.928203e+00 0.000000e+00
      vertex 2.736161e+00 7.517541e+00 0.000000e+00
      vertex 2.736161e+00 7.517541e+00 7.000000e-01
    endloop
  endfacet
  facet normal -8.715587e-02 -9.961947e-01 1.219987e-16
    outer loop
      vertex -1.389185e+00 -7.878462e+00 1.776357e-15
      vertex 4.898587e-16 -8.000000e+00 1.776357e-15
      vertex -1.389185e+00 -7.878462e+00 7.000000e-01
    endloop
  endfacet
  facet normal 5.735763e-01 8.191521e-01 -1.003172e-16
    outer loop
      vertex 5.142301e+00 6.128356e+00 2.220446e-16
      vertex 4.000000e+00 6.928203e+00 7.000000e-01
      vertex 5.142301e+00 6.128356e+00 7.000000e-01
    endloop
  endfacet
  facet normal -2.588190e-01 -9.659259e-01 1.182918e-16
    outer loop
      vertex -2.736161e+00 -7.517541e+00 1.776357e-15
      vertex -1.389185e+00 -7.878462e+00 7.000000e-01
      vertex -2.736161e+00 -7.517541e+00 7.000000e-01
    endloop
  endfacet
  facet normal 5.735763e-01 8.191521e-01 -1.003172e-16
    outer loop
      vertex 5.142301e+00 6.128356e+00 2.220446e-16
      vertex 4.000000e+00 6.928203e+00 0.000000e+00
      vertex 4.000000e+00 6.928203e+00 7.000000e-01
    endloop
  endfacet
  facet normal -2.588190e-01 -9.659259e-01 1.182918e-16
    outer loop
      vertex -2.736161e+00 -7.517541e+00 1.776357e-15
      vertex -1.389185e+00 -7.878462e+00 1.776357e-15
      vertex -1.389185e+00 -7.878462e+00 7.000000e-01
    endloop
  endfacet
  facet normal 7.071068e-01 7.071068e-01 -8.659561e-17
    outer loop
      vertex 6.128356e+00 5.142301e+00 2.220446e-16
      vertex 5.142301e+00 6.128356e+00 2.220446e-16
      vertex 5.142301e+00 6.128356e+00 7.000000e-01
    endloop
  endfacet
  facet normal 7.071068e-01 7.071068e-01 -8.659561e-17
    outer loop
      vertex 6.128356e+00 5.142301e+00 2.220446e-16
      vertex 5.142301e+00 6.128356e+00 7.000000e-01
      vertex 6.128356e+00 5.142301e+00 7.000000e-01
    endloop
  endfacet
  facet normal -4.226183e-01 -9.063077e-01 1.109907e-16
    outer loop
      vertex -4.000000e+00 -6.928203e+00 1.776357e-15
      vertex -2.736161e+00 -7.517541e+00 7.000000e-01
      vertex -4.000000e+00 -6.928203e+00 7.000000e-01
    endloop
  endfacet
  facet normal -4.226183e-01 -9.063077e-01 1.109907e-16
    outer loop
      vertex -4.000000e+00 -6.928203e+00 1.776357e-15
      vertex -2.736161e+00 -7.517541e+00 1.776357e-15
      vertex -2.736161e+00 -7.517541e+00 7.000000e-01
    endloop
  endfacet
  facet normal 8.191521e-01 5.735763e-01 -7.024284e-17
    outer loop
      vertex 6.928203e+00 4.000000e+00 4.440892e-16
      vertex 6.128356e+00 5.142301e+00 2.220446e-16
      vertex 6.128356e+00 5.142301e+00 7.000000e-01
    endloop
  endfacet
  facet normal 8.191521e-01 5.735763e-01 -7.024284e-17
    outer loop
      vertex 6.928203e+00 4.000000e+00 4.440892e-16
      vertex 6.128356e+00 5.142301e+00 7.000000e-01
      vertex 6.928203e+00 4.000000e+00 7.000000e-01
    endloop
  endfacet
  facet normal -5.735763e-01 -8.191521e-01 1.003172e-16
    outer loop
      vertex -5.142301e+00 -6.128356e+00 1.554312e-15
      vertex -4.000000e+00 -6.928203e+00 7.000000e-01
      vertex -5.142301e+00 -6.128356e+00 7.000000e-01
    endloop
  endfacet
  facet normal -5.735763e-01 -8.191521e-01 1.003172e-16
    outer loop
      vertex -5.142301e+00 -6.128356e+00 1.554312e-15
      vertex -4.000000e+00 -6.928203e+00 1.776357e-15
      vertex -4.000000e+00 -6.928203e+00 7.000000e-01
    endloop
  endfacet
  facet normal 9.063077e-01 4.226183e-01 -5.175582e-17
    outer loop
      vertex 7.517541e+00 2.736161e+00 4.440892e-16
      vertex 6.928203e+00 4.000000e+00 4.440892e-16
      vertex 6.928203e+00 4.000000e+00 7.000000e-01
    endloop
  endfacet
  facet normal 9.063077e-01 4.226183e-01 -5.175582e-17
    outer loop
      vertex 7.517541e+00 2.736161e+00 4.440892e-16
      vertex 6.928203e+00 4.000000e+00 7.000000e-01
      vertex 7.517541e+00 2.736161e+00 7.000000e-01
    endloop
  endfacet
  facet normal 9.659259e-01 2.588190e-01 -3.169618e-17
    outer loop
      vertex 7.517541e+00 2.736161e+00 4.440892e-16
      vertex 7.517541e+00 2.736161e+00 7.000000e-01
      vertex 7.878462e+00 1.389185e+00 7.000000e-01
    endloop
  endfacet
  facet normal -7.071068e-01 -7.071068e-01 8.659561e-17
    outer loop
      vertex -6.128356e+00 -5.142301e+00 1.554312e-15
      vertex -5.142301e+00 -6.128356e+00 7.000000e-01
      vertex -6.128356e+00 -5.142301e+00 7.000000e-01
    endloop
  endfacet
  facet normal -7.071068e-01 -7.071068e-01 8.659561e-17
    outer loop
      vertex -6.128356e+00 -5.142301e+00 1.554312e-15
      vertex -5.142301e+00 -6.128356e+00 1.554312e-15
      vertex -5.142301e+00 -6.128356e+00 7.000000e-01
    endloop
  endfacet
  facet normal 9.659259e-01 2.588190e-01 -3.169618e-17
    outer loop
      vertex 7.878462e+00 1.389185e+00 6.661338e-16
      vertex 7.517541e+00 2.736161e+00 4.440892e-16
      vertex 7.878462e+00 1.389185e+00 7.000000e-01
    endloop
  endfacet
  facet normal 9.961947e-01 8.715587e-02 -1.067352e-17
    outer loop
      vertex 8.000000e+00 1.787984e-15 8.881784e-16
      vertex 7.878462e+00 1.389185e+00 6.661338e-16
      vertex 7.878462e+00 1.389185e+00 7.000000e-01
    endloop
  endfacet
  facet normal -8.191521e-01 -5.735763e-01 7.024284e-17
    outer loop
      vertex -6.928203e+00 -4.000000e+00 1.332268e-15
      vertex -6.128356e+00 -5.142301e+00 7.000000e-01
      vertex -6.928203e+00 -4.000000e+00 7.000000e-01
    endloop
  endfacet
  facet normal -8.191521e-01 -5.735763e-01 7.024284e-17
    outer loop
      vertex -6.928203e+00 -4.000000e+00 1.332268e-15
      vertex -6.128356e+00 -5.142301e+00 1.554312e-15
      vertex -6.128356e+00 -5.142301e+00 7.000000e-01
    endloop
  endfacet
  facet normal 9.961947e-01 8.715587e-02 -1.067352e-17
    outer loop
      vertex 8.000000e+00 1.787984e-15 8.881784e-16
      vertex 7.878462e+00 1.389185e+00 7.000000e-01
      vertex 8.000000e+00 1.873710e-15 7.000000e-01
    endloop
  endfacet
  facet normal -9.063077e-01 -4.226183e-01 5.175582e-17
    outer loop
      vertex -7.517541e+00 -2.736161e+00 1.332268e-15
      vertex -6.928203e+00 -4.000000e+00 7.000000e-01
      vertex -7.517541e+00 -2.736161e+00 7.000000e-01
    endloop
  endfacet
  facet normal -9.063077e-01 -4.226183e-01 5.175582e-17
    outer loop
      vertex -7.517541e+00 -2.736161e+00 1.332268e-15
      vertex -6.928203e+00 -4.000000e+00 1.332268e-15
      vertex -6.928203e+00 -4.000000e+00 7.000000e-01
    endloop
  endfacet
  facet normal -9.659259e-01 -2.588190e-01 3.169618e-17
    outer loop
      vertex -7.878462e+00 -1.389185e+00 1.110223e-15
      vertex -7.517541e+00 -2.736161e+00 7.000000e-01
      vertex -7.878462e+00 -1.389185e+00 7.000000e-01
    endloop
  endfacet
  facet normal -9.659259e-01 -2.588190e-01 3.169618e-17
    outer loop
      vertex -7.878462e+00 -1.389185e+00 1.110223e-15
      vertex -7.517541e+00 -2.736161e+00 1.332268e-15
      vertex -7.517541e+00 -2.736161e+00 7.000000e-01
    endloop
  endfacet
  facet normal -9.961947e-01 -8.715587e-02 1.067352e-17
    outer loop
      vertex -8.000000e+00 -1.180931e-14 8.881784e-16
      vertex -7.878462e+00 -1.389185e+00 7.000000e-01
      vertex -8.000000e+00 -1.172358e-14 7.000000e-01
    endloop
  endfacet
  facet normal -9.961947e-01 -8.715587e-02 1.067352e-17
    outer loop
      vertex -8.000000e+00 -1.180931e-14 8.881784e-16
      vertex -7.878462e+00 -1.389185e+00 1.110223e-15
      vertex -7.878462e+00 -1.389185e+00 7.000000e-01
    endloop
  endfacet
  facet normal -9.961947e-01 8.715587e-02 -1.067352e-17
    outer loop
      vertex -7.878462e+00 1.389185e+00 6.661338e-16
      vertex -8.000000e+00 -1.172358e-14 7.000000e-01
      vertex -7.878462e+00 1.389185e+00 7.000000e-01
    endloop
  endfacet
  facet normal -9.961947e-01 8.715587e-02 -1.067352e-17
    outer loop
      vertex -7.878462e+00 1.389185e+00 6.661338e-16
      vertex -8.000000e+00 -1.180931e-14 8.881784e-16
      vertex -8.000000e+00 -1.172358e-14 7.000000e-01
    endloop
  endfacet
  facet normal 0.000000e+00 1.224647e-16 1.000000e+00
    outer loop
      vertex -6.928203e+00 -4.000000e+00 7.000000e-01
      vertex -6.128356e+00 -5.142301e+00 7.000000e-01
      vertex -4.787778e+00 -4.017423e+00 7.000000e-01
    endloop
  endfacet
  facet normal 0.000000e+00 1.224647e-16 1.000000e+00
    outer loop
      vertex 5.142301e+00 6.128356e+00 7.000000e-01
      vertex 4.017423e+00 4.787778e+00 7.000000e-01
      vertex 4.787778e+00 4.017423e+00 7.000000e-01
    endloop
  endfacet
  facet normal 0.000000e+00 1.224647e-16 1.000000e+00
    outer loop
      vertex 5.142301e+00 6.128356e+00 7.000000e-01
      vertex 4.787778e+00 4.017423e+00 7.000000e-01
      vertex 6.128356e+00 5.142301e+00 7.000000e-01
    endloop
  endfacet
  facet normal 0.000000e+00 1.224647e-16 1.000000e+00
    outer loop
      vertex -4.017423e+00 -4.787778e+00 7.000000e-01
      vertex -4.787778e+00 -4.017423e+00 7.000000e-01
      vertex -5.142301e+00 -6.128356e+00 7.000000e-01
    endloop
  endfacet
  facet normal 0.000000e+00 1.224647e-16 1.000000e+00
    outer loop
      vertex -4.787778e+00 -4.017423e+00 7.000000e-01
      vertex -6.128356e+00 -5.142301e+00 7.000000e-01
      vertex -5.142301e+00 -6.128356e+00 7.000000e-01
    endloop
  endfacet
  facet normal 0.000000e+00 1.224647e-16 1.000000e+00
    outer loop
      vertex 4.787778e+00 4.017423e+00 7.000000e-01
      vertex 5.412659e+00 3.125000e+00 7.000000e-01
      vertex 6.928203e+00 4.000000e+00 7.000000e-01
    endloop
  endfacet
  facet normal 0.000000e+00 1.224647e-16 1.000000e+00
    outer loop
      vertex 6.128356e+00 5.142301e+00 7.000000e-01
      vertex 4.787778e+00 4.017423e+00 7.000000e-01
      vertex 6.928203e+00 4.000000e+00 7.000000e-01
    endloop
  endfacet
  facet normal 0.000000e+00 1.224647e-16 1.000000e+00
    outer loop
      vertex -3.125000e+00 -5.412659e+00 7.000000e-01
      vertex -4.017423e+00 -4.787778e+00 7.000000e-01
      vertex -4.000000e+00 -6.928203e+00 7.000000e-01
    endloop
  endfacet
  facet normal 0.000000e+00 1.224647e-16 1.000000e+00
    outer loop
      vertex -4.017423e+00 -4.787778e+00 7.000000e-01
      vertex -5.142301e+00 -6.128356e+00 7.000000e-01
      vertex -4.000000e+00 -6.928203e+00 7.000000e-01
    endloop
  endfacet
  facet normal 0.000000e+00 1.224647e-16 1.000000e+00
    outer loop
      vertex 6.928203e+00 4.000000e+00 7.000000e-01
      vertex 5.412659e+00 3.125000e+00 7.000000e-01
      vertex 5.873079e+00 2.137626e+00 7.000000e-01
    endloop
  endfacet
  facet normal 0.000000e+00 1.224647e-16 1.000000e+00
    outer loop
      vertex -5.142301e+00 6.128356e+00 7.000000e-01
      vertex -6.128356e+00 5.142301e+00 7.000000e-01
      vertex -4.017423e+00 4.787778e+00 7.000000e-01
    endloop
  endfacet
  facet normal 0.000000e+00 1.224647e-16 1.000000e+00
    outer loop
      vertex -4.000000e+00 6.928203e+00 7.000000e-01
      vertex -5.142301e+00 6.128356e+00 7.000000e-01
      vertex -4.017423e+00 4.787778e+00 7.000000e-01
    endloop
  endfacet
  facet normal 0.000000e+00 1.224647e-16 1.000000e+00
    outer loop
      vertex -3.125000e+00 -5.412659e+00 7.000000e-01
      vertex -4.000000e+00 -6.928203e+00 7.000000e-01
      vertex -2.137626e+00 -5.873079e+00 7.000000e-01
    endloop
  endfacet
  facet normal 0.000000e+00 1.224647e-16 1.000000e+00
    outer loop
      vertex 6.928203e+00 4.000000e+00 7.000000e-01
      vertex 5.873079e+00 2.137626e+00 7.000000e-01
      vertex 7.517541e+00 2.736161e+00 7.000000e-01
    endloop
  endfacet
  facet normal 0.000000e+00 1.224647e-16 1.000000e+00
    outer loop
      vertex -4.017423e+00 4.787778e+00 7.000000e-01
      vertex -6.128356e+00 5.142301e+00 7.000000e-01
      vertex -4.787778e+00 4.017423e+00 7.000000e-01
    endloop
  endfacet
  facet normal 0.000000e+00 1.224647e-16 1.000000e+00
    outer loop
      vertex -2.137626e+00 -5.873079e+00 7.000000e-01
      vertex -4.000000e+00 -6.928203e+00 7.000000e-01
      vertex -2.736161e+00 -7.517541e+00 7.000000e-01
    endloop
  endfacet
  facet normal 0.000000e+00 1.224647e-16 1.000000e+00
    outer loop
      vertex -4.000000e+00 6.928203e+00 7.000000e-01
      vertex -4.017423e+00 4.787778e+00 7.000000e-01
      vertex -3.125000e+00 5.412659e+00 7.000000e-01
    endloop
  endfacet
  facet normal 0.000000e+00 1.224647e-16 1.000000e+00
    outer loop
      vertex -6.928203e+00 4.000000e+00 7.000000e-01
      vertex -7.517541e+00 2.736161e+00 7.000000e-01
      vertex -5.412659e+00 3.125000e+00 7.000000e-01
    endloop
  endfacet
  facet normal 0.000000e+00 1.224647e-16 1.000000e+00
    outer loop
      vertex -6.128356e+00 5.142301e+00 7.000000e-01
      vertex -6.928203e+00 4.000000e+00 7.000000e-01
      vertex -5.412659e+00 3.125000e+00 7.000000e-01
    endloop
  endfacet
  facet normal 0.000000e+00 1.224647e-16 1.000000e+00
    outer loop
      vertex -4.787778e+00 4.017423e+00 7.000000e-01
      vertex -6.128356e+00 5.142301e+00 7.000000e-01
      vertex -5.412659e+00 3.125000e+00 7.000000e-01
    endloop
  endfacet
  facet normal 0.000000e+00 1.224647e-16 1.000000e+00
    outer loop
      vertex -2.736161e+00 7.517541e+00 7.000000e-01
      vertex -4.000000e+00 6.928203e+00 7.000000e-01
      vertex -2.137626e+00 5.873079e+00 7.000000e-01
    endloop
  endfacet
  facet normal 0.000000e+00 1.224647e-16 1.000000e+00
    outer loop
      vertex -1.389185e+00 7.878462e+00 7.000000e-01
      vertex -2.736161e+00 7.517541e+00 7.000000e-01
      vertex -2.137626e+00 5.873079e+00 7.000000e-01
    endloop
  endfacet
  facet normal 0.000000e+00 1.224647e-16 1.000000e+00
    outer loop
      vertex -4.000000e+00 6.928203e+00 7.000000e-01
      vertex -3.125000e+00 5.412659e+00 7.000000e-01
      vertex -2.137626e+00 5.873079e+00 7.000000e-01
    endloop
  endfacet
  facet normal 0.000000e+00 1.224647e-16 1.000000e+00
    outer loop
      vertex -5.412659e+00 3.125000e+00 7.000000e-01
      vertex -7.517541e+00 2.736161e+00 7.000000e-01
      vertex -5.873079e+00 2.137626e+00 7.000000e-01
    endloop
  endfacet
  facet normal 0.000000e+00 1.224647e-16 1.000000e+00
    outer loop
      vertex 5.873079e+00 2.137626e+00 7.000000e-01
      vertex 6.155048e+00 1.085301e+00 7.000000e-01
      vertex 7.878462e+00 1.389185e+00 7.000000e-01
    endloop
  endfacet
  facet normal 0.000000e+00 1.224647e-16 1.000000e+00
    outer loop
      vertex 6.155048e+00 1.085301e+00 7.000000e-01
      vertex 6.250000e+00 1.445083e-15 7.000000e-01
      vertex 7.878462e+00 1.389185e+00 7.000000e-01
    endloop
  endfacet
  facet normal 0.000000e+00 1.224647e-16 1.000000e+00
    outer loop
      vertex 7.517541e+00 2.736161e+00 7.000000e-01
      vertex 5.873079e+00 2.137626e+00 7.000000e-01
      vertex 7.878462e+00 1.389185e+00 7.000000e-01
    endloop
  endfacet
  facet normal 0.000000e+00 1.224647e-16 1.000000e+00
    outer loop
      vertex 3.827021e-16 -6.250000e+00 7.000000e-01
      vertex -1.085301e+00 -6.155048e+00 7.000000e-01
      vertex -1.389185e+00 -7.878462e+00 7.000000e-01
    endloop
  endfacet
  facet normal 0.000000e+00 1.224647e-16 1.000000e+00
    outer loop
      vertex -1.085301e+00 -6.155048e+00 7.000000e-01
      vertex -2.137626e+00 -5.873079e+00 7.000000e-01
      vertex -1.389185e+00 -7.878462e+00 7.000000e-01
    endloop
  endfacet
  facet normal 0.000000e+00 1.224647e-16 1.000000e+00
    outer loop
      vertex -2.137626e+00 -5.873079e+00 7.000000e-01
      vertex -2.736161e+00 -7.517541e+00 7.000000e-01
      vertex -1.389185e+00 -7.878462e+00 7.000000e-01
    endloop
  endfacet
  facet normal 0.000000e+00 1.224647e-16 1.000000e+00
    outer loop
      vertex -2.278586e-14 8.000000e+00 7.000000e-01
      vertex -1.389185e+00 7.878462e+00 7.000000e-01
      vertex -1.085301e+00 6.155048e+00 7.000000e-01
    endloop
  endfacet
  facet normal 0.000000e+00 1.224647e-16 1.000000e+00
    outer loop
      vertex -1.389185e+00 7.878462e+00 7.000000e-01
      vertex -2.137626e+00 5.873079e+00 7.000000e-01
      vertex -1.085301e+00 6.155048e+00 7.000000e-01
    endloop
  endfacet
  facet normal 0.000000e+00 1.224647e-16 1.000000e+00
    outer loop
      vertex -5.873079e+00 2.137626e+00 7.000000e-01
      vertex -7.517541e+00 2.736161e+00 7.000000e-01
      vertex -6.155048e+00 1.085301e+00 7.000000e-01
    endloop
  endfacet
  facet normal 0.000000e+00 1.224647e-16 1.000000e+00
    outer loop
      vertex -7.517541e+00 2.736161e+00 7.000000e-01
      vertex -7.878462e+00 1.389185e+00 7.000000e-01
      vertex -6.155048e+00 1.085301e+00 7.000000e-01
    endloop
  endfacet
  facet normal 0.000000e+00 1.224647e-16 1.000000e+00
    outer loop
      vertex 7.878462e+00 1.389185e+00 7.000000e-01
      vertex 6.250000e+00 1.445083e-15 7.000000e-01
      vertex 8.000000e+00 1.873710e-15 7.000000e-01
    endloop
  endfacet
  facet normal 0.000000e+00 1.224647e-16 1.000000e+00
    outer loop
      vertex 1.085301e+00 -6.155048e+00 7.000000e-01
      vertex 3.827021e-16 -6.250000e+00 7.000000e-01
      vertex 4.898587e-16 -8.000000e+00 7.000000e-01
    endloop
  endfacet
  facet normal 0.000000e+00 1.224647e-16 1.000000e+00
    outer loop
      vertex 3.827021e-16 -6.250000e+00 7.000000e-01
      vertex -1.389185e+00 -7.878462e+00 7.000000e-01
      vertex 4.898587e-16 -8.000000e+00 7.000000e-01
    endloop
  endfacet
  facet normal 0.000000e+00 1.224647e-16 1.000000e+00
    outer loop
      vertex -2.278586e-14 8.000000e+00 7.000000e-01
      vertex -1.085301e+00 6.155048e+00 7.000000e-01
      vertex -1.780145e-14 6.250000e+00 7.000000e-01
    endloop
  endfacet
  facet normal 0.000000e+00 1.224647e-16 1.000000e+00
    outer loop
      vertex -6.155048e+00 1.085301e+00 7.000000e-01
      vertex -7.878462e+00 1.389185e+00 7.000000e-01
      vertex -6.250000e+00 -9.177802e-15 7.000000e-01
    endloop
  endfacet
  facet normal 0.000000e+00 1.224647e-16 1.000000e+00
    outer loop
      vertex -8.000000e+00 -1.172358e-14 7.000000e-01
      vertex -7.878462e+00 -1.389185e+00 7.000000e-01
      vertex -6.250000e+00 -9.177802e-15 7.000000e-01
    endloop
  endfacet
  facet normal 0.000000e+00 1.224647e-16 1.000000e+00
    outer loop
      vertex -7.878462e+00 1.389185e+00 7.000000e-01
      vertex -8.000000e+00 -1.172358e-14 7.000000e-01
      vertex -6.250000e+00 -9.177802e-15 7.000000e-01
    endloop
  endfacet
  facet normal 0.000000e+00 1.224647e-16 1.000000e+00
    outer loop
      vertex -2.278586e-14 8.000000e+00 7.000000e-01
      vertex -1.780145e-14 6.250000e+00 7.000000e-01
      vertex 1.085301e+00 6.155048e+00 7.000000e-01
    endloop
  endfacet
  facet normal 0.000000e+00 1.224647e-16 1.000000e+00
    outer loop
      vertex 1.389185e+00 7.878462e+00 7.000000e-01
      vertex -2.278586e-14 8.000000e+00 7.000000e-01
      vertex 1.085301e+00 6.155048e+00 7.000000e-01
    endloop
  endfacet
  facet normal 0.000000e+00 1.224647e-16 1.000000e+00
    outer loop
      vertex -6.250000e+00 -9.177802e-15 7.000000e-01
      vertex -7.878462e+00 -1.389185e+00 7.000000e-01
      vertex -6.155048e+00 -1.085301e+00 7.000000e-01
    endloop
  endfacet
  facet normal 0.000000e+00 1.224647e-16 1.000000e+00
    outer loop
      vertex 1.389185e+00 7.878462e+00 7.000000e-01
      vertex 1.085301e+00 6.155048e+00 7.000000e-01
      vertex 2.137626e+00 5.873079e+00 7.000000e-01
    endloop
  endfacet
  facet normal 0.000000e+00 1.224647e-16 1.000000e+00
    outer loop
      vertex 6.250000e+00 1.445083e-15 7.000000e-01
      vertex 6.155048e+00 -1.085301e+00 7.000000e-01
      vertex 7.878462e+00 -1.389185e+00 7.000000e-01
    endloop
  endfacet
  facet normal 0.000000e+00 1.224647e-16 1.000000e+00
    outer loop
      vertex 6.155048e+00 -1.085301e+00 7.000000e-01
      vertex 5.873079e+00 -2.137626e+00 7.000000e-01
      vertex 7.878462e+00 -1.389185e+00 7.000000e-01
    endloop
  endfacet
  facet normal 0.000000e+00 1.224647e-16 1.000000e+00
    outer loop
      vertex 2.736161e+00 7.517541e+00 7.000000e-01
      vertex 1.389185e+00 7.878462e+00 7.000000e-01
      vertex 2.137626e+00 5.873079e+00 7.000000e-01
    endloop
  endfacet
  facet normal 0.000000e+00 1.224647e-16 1.000000e+00
    outer loop
      vertex 8.000000e+00 1.873710e-15 7.000000e-01
      vertex 6.250000e+00 1.445083e-15 7.000000e-01
      vertex 7.878462e+00 -1.389185e+00 7.000000e-01
    endloop
  endfacet
  facet normal 0.000000e+00 1.224647e-16 1.000000e+00
    outer loop
      vertex -6.155048e+00 -1.085301e+00 7.000000e-01
      vertex -7.878462e+00 -1.389185e+00 7.000000e-01
      vertex -5.873079e+00 -2.137626e+00 7.000000e-01
    endloop
  endfacet
  facet normal 0.000000e+00 1.224647e-16 1.000000e+00
    outer loop
      vertex -7.878462e+00 -1.389185e+00 7.000000e-01
      vertex -7.517541e+00 -2.736161e+00 7.000000e-01
      vertex -5.873079e+00 -2.137626e+00 7.000000e-01
    endloop
  endfacet
  facet normal 0.000000e+00 1.224647e-16 1.000000e+00
    outer loop
      vertex 1.085301e+00 -6.155048e+00 7.000000e-01
      vertex 4.898587e-16 -8.000000e+00 7.000000e-01
      vertex 1.389185e+00 -7.878462e+00 7.000000e-01
    endloop
  endfacet
  facet normal 0.000000e+00 1.224647e-16 1.000000e+00
    outer loop
      vertex 1.085301e+00 -6.155048e+00 7.000000e-01
      vertex 1.389185e+00 -7.878462e+00 7.000000e-01
      vertex 2.736161e+00 -7.517541e+00 7.000000e-01
    endloop
  endfacet
  facet normal 0.000000e+00 1.224647e-16 1.000000e+00
    outer loop
      vertex 3.125000e+00 -5.412659e+00 7.000000e-01
      vertex 2.137626e+00 -5.873079e+00 7.000000e-01
      vertex 2.736161e+00 -7.517541e+00 7.000000e-01
    endloop
  endfacet
  facet normal 0.000000e+00 1.224647e-16 1.000000e+00
    outer loop
      vertex 2.137626e+00 -5.873079e+00 7.000000e-01
      vertex 1.085301e+00 -6.155048e+00 7.000000e-01
      vertex 2.736161e+00 -7.517541e+00 7.000000e-01
    endloop
  endfacet
  facet normal 0.000000e+00 1.224647e-16 1.000000e+00
    outer loop
      vertex 2.736161e+00 7.517541e+00 7.000000e-01
      vertex 2.137626e+00 5.873079e+00 7.000000e-01
      vertex 3.125000e+00 5.412659e+00 7.000000e-01
    endloop
  endfacet
  facet normal 0.000000e+00 1.224647e-16 1.000000e+00
    outer loop
      vertex 5.873079e+00 -2.137626e+00 7.000000e-01
      vertex 5.412659e+00 -3.125000e+00 7.000000e-01
      vertex 7.517541e+00 -2.736161e+00 7.000000e-01
    endloop
  endfacet
  facet normal 0.000000e+00 1.224647e-16 1.000000e+00
    outer loop
      vertex 4.000000e+00 6.928203e+00 7.000000e-01
      vertex 2.736161e+00 7.517541e+00 7.000000e-01
      vertex 3.125000e+00 5.412659e+00 7.000000e-01
    endloop
  endfacet
  facet normal 0.000000e+00 1.224647e-16 1.000000e+00
    outer loop
      vertex -5.873079e+00 -2.137626e+00 7.000000e-01
      vertex -7.517541e+00 -2.736161e+00 7.000000e-01
      vertex -5.412659e+00 -3.125000e+00 7.000000e-01
    endloop
  endfacet
  facet normal 0.000000e+00 1.224647e-16 1.000000e+00
    outer loop
      vertex 7.878462e+00 -1.389185e+00 7.000000e-01
      vertex 5.873079e+00 -2.137626e+00 7.000000e-01
      vertex 7.517541e+00 -2.736161e+00 7.000000e-01
    endloop
  endfacet
  facet normal 0.000000e+00 1.224647e-16 1.000000e+00
    outer loop
      vertex 3.125000e+00 -5.412659e+00 7.000000e-01
      vertex 2.736161e+00 -7.517541e+00 7.000000e-01
      vertex 4.000000e+00 -6.928203e+00 7.000000e-01
    endloop
  endfacet
  facet normal 0.000000e+00 1.224647e-16 1.000000e+00
    outer loop
      vertex -7.517541e+00 -2.736161e+00 7.000000e-01
      vertex -6.928203e+00 -4.000000e+00 7.000000e-01
      vertex -5.412659e+00 -3.125000e+00 7.000000e-01
    endloop
  endfacet
  facet normal 0.000000e+00 1.224647e-16 1.000000e+00
    outer loop
      vertex 4.017423e+00 -4.787778e+00 7.000000e-01
      vertex 3.125000e+00 -5.412659e+00 7.000000e-01
      vertex 4.000000e+00 -6.928203e+00 7.000000e-01
    endloop
  endfacet
  facet normal 0.000000e+00 1.224647e-16 1.000000e+00
    outer loop
      vertex 5.412659e+00 -3.125000e+00 7.000000e-01
      vertex 4.787778e+00 -4.017423e+00 7.000000e-01
      vertex 6.928203e+00 -4.000000e+00 7.000000e-01
    endloop
  endfacet
  facet normal 0.000000e+00 1.224647e-16 1.000000e+00
    outer loop
      vertex 7.517541e+00 -2.736161e+00 7.000000e-01
      vertex 5.412659e+00 -3.125000e+00 7.000000e-01
      vertex 6.928203e+00 -4.000000e+00 7.000000e-01
    endloop
  endfacet
  facet normal 0.000000e+00 1.224647e-16 1.000000e+00
    outer loop
      vertex 4.017423e+00 -4.787778e+00 7.000000e-01
      vertex 4.000000e+00 -6.928203e+00 7.000000e-01
      vertex 5.142301e+00 -6.128356e+00 7.000000e-01
    endloop
  endfacet
  facet normal 0.000000e+00 1.224647e-16 1.000000e+00
    outer loop
      vertex 4.000000e+00 6.928203e+00 7.000000e-01
      vertex 3.125000e+00 5.412659e+00 7.000000e-01
      vertex 4.017423e+00 4.787778e+00 7.000000e-01
    endloop
  endfacet
  facet normal 0.000000e+00 1.224647e-16 1.000000e+00
    outer loop
      vertex 4.787778e+00 -4.017423e+00 7.000000e-01
      vertex 4.017423e+00 -4.787778e+00 7.000000e-01
      vertex 6.128356e+00 -5.142301e+00 7.000000e-01
    endloop
  endfacet
  facet normal 0.000000e+00 1.224647e-16 1.000000e+00
    outer loop
      vertex 6.928203e+00 -4.000000e+00 7.000000e-01
      vertex 4.787778e+00 -4.017423e+00 7.000000e-01
      vertex 6.128356e+00 -5.142301e+00 7.000000e-01
    endloop
  endfacet
  facet normal 0.000000e+00 1.224647e-16 1.000000e+00
    outer loop
      vertex 5.142301e+00 6.128356e+00 7.000000e-01
      vertex 4.000000e+00 6.928203e+00 7.000000e-01
      vertex 4.017423e+00 4.787778e+00 7.000000e-01
    endloop
  endfacet
  facet normal 0.000000e+00 1.224647e-16 1.000000e+00
    outer loop
      vertex 4.017423e+00 -4.787778e+00 7.000000e-01
      vertex 5.142301e+00 -6.128356e+00 7.000000e-01
      vertex 6.128356e+00 -5.142301e+00 7.000000e-01
    endloop
  endfacet
  facet normal 0.000000e+00 1.224647e-16 1.000000e+00
    outer loop
      vertex -5.412659e+00 -3.125000e+00 7.000000e-01
      vertex -6.928203e+00 -4.000000e+00 7.000000e-01
      vertex -4.787778e+00 -4.017423e+00 7.000000e-01
    endloop
  endfacet
  facet normal 0.000000e+00 -1.224647e-16 -1.000000e+00
    outer loop
      vertex 6.928203e+00 4.000000e+00 4.440892e-16
      vertex 4.113621e+00 2.375000e+00 6.661338e-16
      vertex 6.128356e+00 5.142301e+00 2.220446e-16
    endloop
  endfacet
  facet normal 0.000000e+00 -1.224647e-16 -1.000000e+00
    outer loop
      vertex -4.000000e+00 -6.928203e+00 1.776357e-15
      vertex -5.142301e+00 -6.128356e+00 1.554312e-15
      vertex -2.481868e+00 -4.050041e+00 1.332268e-15
    endloop
  endfacet
  facet normal 0.000000e+00 -1.224647e-16 -1.000000e+00
    outer loop
      vertex 7.517541e+00 2.736161e+00 4.440892e-16
      vertex 4.588148e+00 1.229391e+00 6.661338e-16
      vertex 4.113621e+00 2.375000e+00 6.661338e-16
    endloop
  endfacet
  facet normal 0.000000e+00 -1.224647e-16 -1.000000e+00
    outer loop
      vertex 7.517541e+00 2.736161e+00 4.440892e-16
      vertex 4.113621e+00 2.375000e+00 6.661338e-16
      vertex 6.928203e+00 4.000000e+00 4.440892e-16
    endloop
  endfacet
  facet normal 0.000000e+00 -1.224647e-16 -1.000000e+00
    outer loop
      vertex -2.736161e+00 -7.517541e+00 1.776357e-15
      vertex -2.481868e+00 -4.050041e+00 1.332268e-15
      vertex -1.467831e+00 -4.517519e+00 1.332268e-15
    endloop
  endfacet
  facet normal 0.000000e+00 -1.224647e-16 -1.000000e+00
    outer loop
      vertex -2.736161e+00 -7.517541e+00 1.776357e-15
      vertex -4.000000e+00 -6.928203e+00 1.776357e-15
      vertex -2.481868e+00 -4.050041e+00 1.332268e-15
    endloop
  endfacet
  facet normal 0.000000e+00 -1.224647e-16 -1.000000e+00
    outer loop
      vertex -3.084878e+00 3.611928e+00 4.440892e-16
      vertex -6.128356e+00 5.142301e+00 2.220446e-16
      vertex -5.142301e+00 6.128356e+00 2.220446e-16
    endloop
  endfacet
  facet normal 0.000000e+00 -1.224647e-16 -1.000000e+00
    outer loop
      vertex -3.084878e+00 3.611928e+00 4.440892e-16
      vertex -5.142301e+00 6.128356e+00 2.220446e-16
      vertex -4.000000e+00 6.928203e+00 0.000000e+00
    endloop
  endfacet
  facet normal 0.000000e+00 -1.224647e-16 -1.000000e+00
    outer loop
      vertex -3.842831e+00 2.791980e+00 4.440892e-16
      vertex -6.928203e+00 4.000000e+00 4.440892e-16
      vertex -6.128356e+00 5.142301e+00 2.220446e-16
    endloop
  endfacet
  facet normal 0.000000e+00 -1.224647e-16 -1.000000e+00
    outer loop
      vertex -3.842831e+00 2.791980e+00 4.440892e-16
      vertex -6.128356e+00 5.142301e+00 2.220446e-16
      vertex -3.084878e+00 3.611928e+00 4.440892e-16
    endloop
  endfacet
  facet normal 0.000000e+00 -1.224647e-16 -1.000000e+00
    outer loop
      vertex 7.878462e+00 1.389185e+00 6.661338e-16
      vertex 4.750000e+00 9.919639e-16 8.881784e-16
      vertex 4.588148e+00 1.229391e+00 6.661338e-16
    endloop
  endfacet
  facet normal 0.000000e+00 -1.224647e-16 -1.000000e+00
    outer loop
      vertex 7.878462e+00 1.389185e+00 6.661338e-16
      vertex 4.588148e+00 1.229391e+00 6.661338e-16
      vertex 7.517541e+00 2.736161e+00 4.440892e-16
    endloop
  endfacet
  facet normal 0.000000e+00 -1.224647e-16 -1.000000e+00
    outer loop
      vertex -1.389185e+00 -7.878462e+00 1.776357e-15
      vertex -1.467831e+00 -4.517519e+00 1.332268e-15
      vertex -3.726807e-01 -4.735357e+00 1.554312e-15
    endloop
  endfacet
  facet normal 0.000000e+00 -1.224647e-16 -1.000000e+00
    outer loop
      vertex -1.389185e+00 -7.878462e+00 1.776357e-15
      vertex -2.736161e+00 -7.517541e+00 1.776357e-15
      vertex -1.467831e+00 -4.517519e+00 1.332268e-15
    endloop
  endfacet
  facet normal 0.000000e+00 -1.224647e-16 -1.000000e+00
    outer loop
      vertex -2.156455e+00 4.232281e+00 4.440892e-16
      vertex -4.000000e+00 6.928203e+00 0.000000e+00
      vertex -2.736161e+00 7.517541e+00 0.000000e+00
    endloop
  endfacet
  facet normal 0.000000e+00 -1.224647e-16 -1.000000e+00
    outer loop
      vertex -2.156455e+00 4.232281e+00 4.440892e-16
      vertex -3.084878e+00 3.611928e+00 4.440892e-16
      vertex -4.000000e+00 6.928203e+00 0.000000e+00
    endloop
  endfacet
  facet normal 0.000000e+00 -1.224647e-16 -1.000000e+00
    outer loop
      vertex -4.388428e+00 1.817746e+00 6.661338e-16
      vertex -7.517541e+00 2.736161e+00 4.440892e-16
      vertex -6.928203e+00 4.000000e+00 4.440892e-16
    endloop
  endfacet
  facet normal 0.000000e+00 -1.224647e-16 -1.000000e+00
    outer loop
      vertex -4.388428e+00 1.817746e+00 6.661338e-16
      vertex -6.928203e+00 4.000000e+00 4.440892e-16
      vertex -3.842831e+00 2.791980e+00 4.440892e-16
    endloop
  endfacet
  facet normal 0.000000e+00 -1.224647e-16 -1.000000e+00
    outer loop
      vertex 8.000000e+00 1.787984e-15 8.881784e-16
      vertex 4.750000e+00 9.919639e-16 8.881784e-16
      vertex 7.878462e+00 1.389185e+00 6.661338e-16
    endloop
  endfacet
  facet normal 0.000000e+00 -1.224647e-16 -1.000000e+00
    outer loop
      vertex -1.108865e+00 4.618757e+00 2.220446e-16
      vertex -2.736161e+00 7.517541e+00 0.000000e+00
      vertex -1.389185e+00 7.878462e+00 0.000000e+00
    endloop
  endfacet
  facet normal 0.000000e+00 -1.224647e-16 -1.000000e+00
    outer loop
      vertex -1.108865e+00 4.618757e+00 2.220446e-16
      vertex -2.156455e+00 4.232281e+00 4.440892e-16
      vertex -2.736161e+00 7.517541e+00 0.000000e+00
    endloop
  endfacet
  facet normal 0.000000e+00 -1.224647e-16 -1.000000e+00
    outer loop
      vertex 4.898587e-16 -8.000000e+00 1.776357e-15
      vertex -3.726807e-01 -4.735357e+00 1.554312e-15
      vertex 7.430637e-01 -4.691520e+00 1.554312e-15
    endloop
  endfacet
  facet normal 0.000000e+00 -1.224647e-16 -1.000000e+00
    outer loop
      vertex 4.898587e-16 -8.000000e+00 1.776357e-15
      vertex -1.389185e+00 -7.878462e+00 1.776357e-15
      vertex -3.726807e-01 -4.735357e+00 1.554312e-15
    endloop
  endfacet
  facet normal 0.000000e+00 -1.224647e-16 -1.000000e+00
    outer loop
      vertex -4.691520e+00 7.430637e-01 8.881784e-16
      vertex -8.000000e+00 -1.180931e-14 8.881784e-16
      vertex -7.878462e+00 1.389185e+00 6.661338e-16
    endloop
  endfacet
  facet normal 0.000000e+00 -1.224647e-16 -1.000000e+00
    outer loop
      vertex -4.691520e+00 7.430637e-01 8.881784e-16
      vertex -7.878462e+00 1.389185e+00 6.661338e-16
      vertex -7.517541e+00 2.736161e+00 4.440892e-16
    endloop
  endfacet
  facet normal 0.000000e+00 -1.224647e-16 -1.000000e+00
    outer loop
      vertex 7.878462e+00 -1.389185e+00 1.110223e-15
      vertex 4.618757e+00 -1.108865e+00 1.110223e-15
      vertex 4.750000e+00 9.919639e-16 8.881784e-16
    endloop
  endfacet
  facet normal 0.000000e+00 -1.224647e-16 -1.000000e+00
    outer loop
      vertex -4.691520e+00 7.430637e-01 8.881784e-16
      vertex -7.517541e+00 2.736161e+00 4.440892e-16
      vertex -4.388428e+00 1.817746e+00 6.661338e-16
    endloop
  endfacet
  facet normal 0.000000e+00 -1.224647e-16 -1.000000e+00
    outer loop
      vertex 7.878462e+00 -1.389185e+00 1.110223e-15
      vertex 4.750000e+00 9.919639e-16 8.881784e-16
      vertex 8.000000e+00 1.787984e-15 8.881784e-16
    endloop
  endfacet
  facet normal 0.000000e+00 -1.224647e-16 -1.000000e+00
    outer loop
      vertex -1.163414e-15 4.750000e+00 2.220446e-16
      vertex -1.389185e+00 7.878462e+00 0.000000e+00
      vertex -2.278586e-14 8.000000e+00 0.000000e+00
    endloop
  endfacet
  facet normal 0.000000e+00 -1.224647e-16 -1.000000e+00
    outer loop
      vertex 1.389185e+00 -7.878462e+00 1.776357e-15
      vertex 4.898587e-16 -8.000000e+00 1.776357e-15
      vertex 7.430637e-01 -4.691520e+00 1.554312e-15
    endloop
  endfacet
  facet normal 0.000000e+00 -1.224647e-16 -1.000000e+00
    outer loop
      vertex -1.163414e-15 4.750000e+00 2.220446e-16
      vertex -2.278586e-14 8.000000e+00 0.000000e+00
      vertex 1.389185e+00 7.878462e+00 0.000000e+00
    endloop
  endfacet
  facet normal 0.000000e+00 -1.224647e-16 -1.000000e+00
    outer loop
      vertex -1.163414e-15 4.750000e+00 2.220446e-16
      vertex -1.108865e+00 4.618757e+00 2.220446e-16
      vertex -1.389185e+00 7.878462e+00 0.000000e+00
    endloop
  endfacet
  facet normal 0.000000e+00 -1.224647e-16 -1.000000e+00
    outer loop
      vertex 7.517541e+00 -2.736161e+00 1.332268e-15
      vertex 4.232281e+00 -2.156455e+00 1.110223e-15
      vertex 4.618757e+00 -1.108865e+00 1.110223e-15
    endloop
  endfacet
  facet normal 0.000000e+00 -1.224647e-16 -1.000000e+00
    outer loop
      vertex 7.517541e+00 -2.736161e+00 1.332268e-15
      vertex 4.618757e+00 -1.108865e+00 1.110223e-15
      vertex 7.878462e+00 -1.389185e+00 1.110223e-15
    endloop
  endfacet
  facet normal 0.000000e+00 -1.224647e-16 -1.000000e+00
    outer loop
      vertex -4.735357e+00 -3.726807e-01 8.881784e-16
      vertex -7.878462e+00 -1.389185e+00 1.110223e-15
      vertex -8.000000e+00 -1.180931e-14 8.881784e-16
    endloop
  endfacet
  facet normal 0.000000e+00 -1.224647e-16 -1.000000e+00
    outer loop
      vertex -4.735357e+00 -3.726807e-01 8.881784e-16
      vertex -8.000000e+00 -1.180931e-14 8.881784e-16
      vertex -4.691520e+00 7.430637e-01 8.881784e-16
    endloop
  endfacet
  facet normal 0.000000e+00 -1.224647e-16 -1.000000e+00
    outer loop
      vertex 2.736161e+00 -7.517541e+00 1.776357e-15
      vertex 7.430637e-01 -4.691520e+00 1.554312e-15
      vertex 1.817746e+00 -4.388428e+00 1.332268e-15
    endloop
  endfacet
  facet normal 0.000000e+00 -1.224647e-16 -1.000000e+00
    outer loop
      vertex 1.229391e+00 4.588148e+00 2.220446e-16
      vertex 1.389185e+00 7.878462e+00 0.000000e+00
      vertex 2.736161e+00 7.517541e+00 0.000000e+00
    endloop
  endfacet
  facet normal 0.000000e+00 -1.224647e-16 -1.000000e+00
    outer loop
      vertex 2.736161e+00 -7.517541e+00 1.776357e-15
      vertex 1.389185e+00 -7.878462e+00 1.776357e-15
      vertex 7.430637e-01 -4.691520e+00 1.554312e-15
    endloop
  endfacet
  facet normal 0.000000e+00 -1.224647e-16 -1.000000e+00
    outer loop
      vertex 1.229391e+00 4.588148e+00 2.220446e-16
      vertex -1.163414e-15 4.750000e+00 2.220446e-16
      vertex 1.389185e+00 7.878462e+00 0.000000e+00
    endloop
  endfacet
  facet normal 0.000000e+00 -1.224647e-16 -1.000000e+00
    outer loop
      vertex 6.928203e+00 -4.000000e+00 1.332268e-15
      vertex 3.611928e+00 -3.084878e+00 1.332268e-15
      vertex 4.232281e+00 -2.156455e+00 1.110223e-15
    endloop
  endfacet
  facet normal 0.000000e+00 -1.224647e-16 -1.000000e+00
    outer loop
      vertex -4.517519e+00 -1.467831e+00 1.110223e-15
      vertex -7.517541e+00 -2.736161e+00 1.332268e-15
      vertex -7.878462e+00 -1.389185e+00 1.110223e-15
    endloop
  endfacet
  facet normal 0.000000e+00 -1.224647e-16 -1.000000e+00
    outer loop
      vertex 6.928203e+00 -4.000000e+00 1.332268e-15
      vertex 4.232281e+00 -2.156455e+00 1.110223e-15
      vertex 7.517541e+00 -2.736161e+00 1.332268e-15
    endloop
  endfacet
  facet normal 0.000000e+00 -1.224647e-16 -1.000000e+00
    outer loop
      vertex -4.517519e+00 -1.467831e+00 1.110223e-15
      vertex -7.878462e+00 -1.389185e+00 1.110223e-15
      vertex -4.735357e+00 -3.726807e-01 8.881784e-16
    endloop
  endfacet
  facet normal 0.000000e+00 -1.224647e-16 -1.000000e+00
    outer loop
      vertex 4.000000e+00 -6.928203e+00 1.776357e-15
      vertex 1.817746e+00 -4.388428e+00 1.332268e-15
      vertex 2.791980e+00 -3.842831e+00 1.332268e-15
    endloop
  endfacet
  facet normal 0.000000e+00 -1.224647e-16 -1.000000e+00
    outer loop
      vertex 4.000000e+00 -6.928203e+00 1.776357e-15
      vertex 2.736161e+00 -7.517541e+00 1.776357e-15
      vertex 1.817746e+00 -4.388428e+00 1.332268e-15
    endloop
  endfacet
  facet normal 0.000000e+00 -1.224647e-16 -1.000000e+00
    outer loop
      vertex 6.128356e+00 -5.142301e+00 1.554312e-15
      vertex 3.611928e+00 -3.084878e+00 1.332268e-15
      vertex 6.928203e+00 -4.000000e+00 1.332268e-15
    endloop
  endfacet
  facet normal 0.000000e+00 -1.224647e-16 -1.000000e+00
    outer loop
      vertex 5.142301e+00 -6.128356e+00 1.554312e-15
      vertex 2.791980e+00 -3.842831e+00 1.332268e-15
      vertex 3.611928e+00 -3.084878e+00 1.332268e-15
    endloop
  endfacet
  facet normal 0.000000e+00 -1.224647e-16 -1.000000e+00
    outer loop
      vertex 2.375000e+00 4.113621e+00 4.440892e-16
      vertex 2.736161e+00 7.517541e+00 0.000000e+00
      vertex 4.000000e+00 6.928203e+00 0.000000e+00
    endloop
  endfacet
  facet normal 0.000000e+00 -1.224647e-16 -1.000000e+00
    outer loop
      vertex 5.142301e+00 -6.128356e+00 1.554312e-15
      vertex 3.611928e+00 -3.084878e+00 1.332268e-15
      vertex 6.128356e+00 -5.142301e+00 1.554312e-15
    endloop
  endfacet
  facet normal 0.000000e+00 -1.224647e-16 -1.000000e+00
    outer loop
      vertex 2.375000e+00 4.113621e+00 4.440892e-16
      vertex 1.229391e+00 4.588148e+00 2.220446e-16
      vertex 2.736161e+00 7.517541e+00 0.000000e+00
    endloop
  endfacet
  facet normal 0.000000e+00 -1.224647e-16 -1.000000e+00
    outer loop
      vertex 5.142301e+00 -6.128356e+00 1.554312e-15
      vertex 4.000000e+00 -6.928203e+00 1.776357e-15
      vertex 2.791980e+00 -3.842831e+00 1.332268e-15
    endloop
  endfacet
  facet normal 0.000000e+00 -1.224647e-16 -1.000000e+00
    outer loop
      vertex -4.050041e+00 -2.481868e+00 1.110223e-15
      vertex -6.928203e+00 -4.000000e+00 1.332268e-15
      vertex -7.517541e+00 -2.736161e+00 1.332268e-15
    endloop
  endfacet
  facet normal 0.000000e+00 -1.224647e-16 -1.000000e+00
    outer loop
      vertex -4.050041e+00 -2.481868e+00 1.110223e-15
      vertex -7.517541e+00 -2.736161e+00 1.332268e-15
      vertex -4.517519e+00 -1.467831e+00 1.110223e-15
    endloop
  endfacet
  facet normal 0.000000e+00 -1.224647e-16 -1.000000e+00
    outer loop
      vertex 5.142301e+00 6.128356e+00 2.220446e-16
      vertex 2.375000e+00 4.113621e+00 4.440892e-16
      vertex 4.000000e+00 6.928203e+00 0.000000e+00
    endloop
  endfacet
  facet normal 0.000000e+00 -1.224647e-16 -1.000000e+00
    outer loop
      vertex -6.128356e+00 -5.142301e+00 1.554312e-15
      vertex -6.928203e+00 -4.000000e+00 1.332268e-15
      vertex -4.050041e+00 -2.481868e+00 1.110223e-15
    endloop
  endfacet
  facet normal 0.000000e+00 -1.224647e-16 -1.000000e+00
    outer loop
      vertex 3.358757e+00 3.358757e+00 4.440892e-16
      vertex 2.375000e+00 4.113621e+00 4.440892e-16
      vertex 5.142301e+00 6.128356e+00 2.220446e-16
    endloop
  endfacet
  facet normal 0.000000e+00 -1.224647e-16 -1.000000e+00
    outer loop
      vertex -3.358757e+00 -3.358757e+00 1.332268e-15
      vertex -6.128356e+00 -5.142301e+00 1.554312e-15
      vertex -4.050041e+00 -2.481868e+00 1.110223e-15
    endloop
  endfacet
  facet normal 0.000000e+00 -1.224647e-16 -1.000000e+00
    outer loop
      vertex 6.128356e+00 5.142301e+00 2.220446e-16
      vertex 3.358757e+00 3.358757e+00 4.440892e-16
      vertex 5.142301e+00 6.128356e+00 2.220446e-16
    endloop
  endfacet
  facet normal 0.000000e+00 -1.224647e-16 -1.000000e+00
    outer loop
      vertex -5.142301e+00 -6.128356e+00 1.554312e-15
      vertex -6.128356e+00 -5.142301e+00 1.554312e-15
      vertex -3.358757e+00 -3.358757e+00 1.332268e-15
    endloop
  endfacet
  facet normal 0.000000e+00 -1.224647e-16 -1.000000e+00
    outer loop
      vertex -2.481868e+00 -4.050041e+00 1.332268e-15
      vertex -5.142301e+00 -6.128356e+00 1.554312e-15
      vertex -3.358757e+00 -3.358757e+00 1.332268e-15
    endloop
  endfacet
  facet normal 0.000000e+00 -1.224647e-16 -1.000000e+00
    outer loop
      vertex 4.113621e+00 2.375000e+00 6.661338e-16
      vertex 3.358757e+00 3.358757e+00 4.440892e-16
      vertex 6.128356e+00 5.142301e+00 2.220446e-16
    endloop
  endfacet
  facet normal -9.063078e-01 4.226183e-01 -5.175581e-17
    outer loop
      vertex -5.412659e+00 3.125000e+00 7.000000e-01
      vertex -5.873079e+00 2.137626e+00 1.400000e+00
      vertex -5.412659e+00 3.125000e+00 1.400000e+00
    endloop
  endfacet
  facet normal 9.961947e-01 -8.715581e-02 1.067351e-17
    outer loop
      vertex 6.250000e+00 1.445083e-15 7.000000e-01
      vertex 6.250000e+00 1.530808e-15 1.400000e+00
      vertex 6.155048e+00 -1.085301e+00 1.400000e+00
    endloop
  endfacet
  facet normal -9.063078e-01 4.226183e-01 -5.175581e-17
    outer loop
      vertex -5.412659e+00 3.125000e+00 7.000000e-01
      vertex -5.873079e+00 2.137626e+00 7.000000e-01
      vertex -5.873079e+00 2.137626e+00 1.400000e+00
    endloop
  endfacet
  facet normal -8.191522e-01 5.735763e-01 -7.024283e-17
    outer loop
      vertex -4.787778e+00 4.017423e+00 7.000000e-01
      vertex -5.412659e+00 3.125000e+00 1.400000e+00
      vertex -4.787778e+00 4.017423e+00 1.400000e+00
    endloop
  endfacet
  facet normal 9.961947e-01 -8.715581e-02 1.067351e-17
    outer loop
      vertex 6.155048e+00 -1.085301e+00 7.000000e-01
      vertex 6.250000e+00 1.445083e-15 7.000000e-01
      vertex 6.155048e+00 -1.085301e+00 1.400000e+00
    endloop
  endfacet
  facet normal -8.191522e-01 5.735763e-01 -7.024283e-17
    outer loop
      vertex -4.787778e+00 4.017423e+00 7.000000e-01
      vertex -5.412659e+00 3.125000e+00 7.000000e-01
      vertex -5.412659e+00 3.125000e+00 1.400000e+00
    endloop
  endfacet
  facet normal 9.659258e-01 -2.588190e-01 3.169619e-17
    outer loop
      vertex 5.873079e+00 -2.137626e+00 7.000000e-01
      vertex 6.155048e+00 -1.085301e+00 1.400000e+00
      vertex 5.873079e+00 -2.137626e+00 1.400000e+00
    endloop
  endfacet
  facet normal -7.071068e-01 7.071068e-01 -8.659561e-17
    outer loop
      vertex -4.017423e+00 4.787778e+00 7.000000e-01
      vertex -4.787778e+00 4.017423e+00 1.400000e+00
      vertex -4.017423e+00 4.787778e+00 1.400000e+00
    endloop
  endfacet
  facet normal 9.659258e-01 -2.588190e-01 3.169619e-17
    outer loop
      vertex 5.873079e+00 -2.137626e+00 7.000000e-01
      vertex 6.155048e+00 -1.085301e+00 7.000000e-01
      vertex 6.155048e+00 -1.085301e+00 1.400000e+00
    endloop
  endfacet
  facet normal -7.071068e-01 7.071068e-01 -8.659561e-17
    outer loop
      vertex -4.017423e+00 4.787778e+00 7.000000e-01
      vertex -4.787778e+00 4.017423e+00 7.000000e-01
      vertex -4.787778e+00 4.017423e+00 1.400000e+00
    endloop
  endfacet
  facet normal 9.063078e-01 -4.226183e-01 5.175581e-17
    outer loop
      vertex 5.412659e+00 -3.125000e+00 7.000000e-01
      vertex 5.873079e+00 -2.137626e+00 1.400000e+00
      vertex 5.412659e+00 -3.125000e+00 1.400000e+00
    endloop
  endfacet
  facet normal -5.735763e-01 8.191522e-01 -1.003172e-16
    outer loop
      vertex -3.125000e+00 5.412659e+00 7.000000e-01
      vertex -4.017423e+00 4.787778e+00 1.400000e+00
      vertex -3.125000e+00 5.412659e+00 1.400000e+00
    endloop
  endfacet
  facet normal 8.191522e-01 -5.735763e-01 7.024283e-17
    outer loop
      vertex 5.412659e+00 -3.125000e+00 7.000000e-01
      vertex 5.412659e+00 -3.125000e+00 1.400000e+00
      vertex 4.787778e+00 -4.017423e+00 1.400000e+00
    endloop
  endfacet
  facet normal 9.063078e-01 -4.226183e-01 5.175581e-17
    outer loop
      vertex 5.412659e+00 -3.125000e+00 7.000000e-01
      vertex 5.873079e+00 -2.137626e+00 7.000000e-01
      vertex 5.873079e+00 -2.137626e+00 1.400000e+00
    endloop
  endfacet
  facet normal -5.735763e-01 8.191522e-01 -1.003172e-16
    outer loop
      vertex -3.125000e+00 5.412659e+00 7.000000e-01
      vertex -4.017423e+00 4.787778e+00 7.000000e-01
      vertex -4.017423e+00 4.787778e+00 1.400000e+00
    endloop
  endfacet
  facet normal -4.226183e-01 9.063078e-01 -1.109907e-16
    outer loop
      vertex -2.137626e+00 5.873079e+00 7.000000e-01
      vertex -3.125000e+00 5.412659e+00 1.400000e+00
      vertex -2.137626e+00 5.873079e+00 1.400000e+00
    endloop
  endfacet
  facet normal 8.191522e-01 -5.735763e-01 7.024283e-17
    outer loop
      vertex 4.787778e+00 -4.017423e+00 7.000000e-01
      vertex 5.412659e+00 -3.125000e+00 7.000000e-01
      vertex 4.787778e+00 -4.017423e+00 1.400000e+00
    endloop
  endfacet
  facet normal -2.588190e-01 9.659258e-01 -1.182918e-16
    outer loop
      vertex -2.137626e+00 5.873079e+00 7.000000e-01
      vertex -2.137626e+00 5.873079e+00 1.400000e+00
      vertex -1.085301e+00 6.155048e+00 1.400000e+00
    endloop
  endfacet
  facet normal -4.226183e-01 9.063078e-01 -1.109907e-16
    outer loop
      vertex -2.137626e+00 5.873079e+00 7.000000e-01
      vertex -3.125000e+00 5.412659e+00 7.000000e-01
      vertex -3.125000e+00 5.412659e+00 1.400000e+00
    endloop
  endfacet
  facet normal 7.071068e-01 -7.071068e-01 8.659561e-17
    outer loop
      vertex 4.017423e+00 -4.787778e+00 7.000000e-01
      vertex 4.787778e+00 -4.017423e+00 1.400000e+00
      vertex 4.017423e+00 -4.787778e+00 1.400000e+00
    endloop
  endfacet
  facet normal 5.735763e-01 -8.191522e-01 1.003172e-16
    outer loop
      vertex 4.017423e+00 -4.787778e+00 7.000000e-01
      vertex 4.017423e+00 -4.787778e+00 1.400000e+00
      vertex 3.125000e+00 -5.412659e+00 1.400000e+00
    endloop
  endfacet
  facet normal -2.588190e-01 9.659258e-01 -1.182918e-16
    outer loop
      vertex -1.085301e+00 6.155048e+00 7.000000e-01
      vertex -2.137626e+00 5.873079e+00 7.000000e-01
      vertex -1.085301e+00 6.155048e+00 1.400000e+00
    endloop
  endfacet
  facet normal 7.071068e-01 -7.071068e-01 8.659561e-17
    outer loop
      vertex 4.017423e+00 -4.787778e+00 7.000000e-01
      vertex 4.787778e+00 -4.017423e+00 7.000000e-01
      vertex 4.787778e+00 -4.017423e+00 1.400000e+00
    endloop
  endfacet
  facet normal 5.735763e-01 -8.191522e-01 1.003172e-16
    outer loop
      vertex 3.125000e+00 -5.412659e+00 7.000000e-01
      vertex 4.017423e+00 -4.787778e+00 7.000000e-01
      vertex 3.125000e+00 -5.412659e+00 1.400000e+00
    endloop
  endfacet
  facet normal -8.715581e-02 9.961947e-01 -1.219987e-16
    outer loop
      vertex -1.780145e-14 6.250000e+00 7.000000e-01
      vertex -1.085301e+00 6.155048e+00 1.400000e+00
      vertex -1.780145e-14 6.250000e+00 1.400000e+00
    endloop
  endfacet
  facet normal -8.715581e-02 9.961947e-01 -1.219987e-16
    outer loop
      vertex -1.780145e-14 6.250000e+00 7.000000e-01
      vertex -1.085301e+00 6.155048e+00 7.000000e-01
      vertex -1.085301e+00 6.155048e+00 1.400000e+00
    endloop
  endfacet
  facet normal 4.226183e-01 -9.063078e-01 1.109907e-16
    outer loop
      vertex 2.137626e+00 -5.873079e+00 7.000000e-01
      vertex 3.125000e+00 -5.412659e+00 7.000000e-01
      vertex 3.125000e+00 -5.412659e+00 1.400000e+00
    endloop
  endfacet
  facet normal 8.715581e-02 9.961947e-01 -1.219987e-16
    outer loop
      vertex 1.085301e+00 6.155048e+00 7.000000e-01
      vertex -1.780145e-14 6.250000e+00 1.400000e+00
      vertex 1.085301e+00 6.155048e+00 1.400000e+00
    endloop
  endfacet
  facet normal 4.226183e-01 -9.063078e-01 1.109907e-16
    outer loop
      vertex 2.137626e+00 -5.873079e+00 7.000000e-01
      vertex 3.125000e+00 -5.412659e+00 1.400000e+00
      vertex 2.137626e+00 -5.873079e+00 1.400000e+00
    endloop
  endfacet
  facet normal 2.588190e-01 -9.659258e-01 1.182918e-16
    outer loop
      vertex 2.137626e+00 -5.873079e+00 7.000000e-01
      vertex 2.137626e+00 -5.873079e+00 1.400000e+00
      vertex 1.085301e+00 -6.155048e+00 1.400000e+00
    endloop
  endfacet
  facet normal 8.715581e-02 9.961947e-01 -1.219987e-16
    outer loop
      vertex 1.085301e+00 6.155048e+00 7.000000e-01
      vertex -1.780145e-14 6.250000e+00 7.000000e-01
      vertex -1.780145e-14 6.250000e+00 1.400000e+00
    endloop
  endfacet
  facet normal 2.588190e-01 -9.659258e-01 1.182918e-16
    outer loop
      vertex 1.085301e+00 -6.155048e+00 7.000000e-01
      vertex 2.137626e+00 -5.873079e+00 7.000000e-01
      vertex 1.085301e+00 -6.155048e+00 1.400000e+00
    endloop
  endfacet
  facet normal 2.588190e-01 9.659258e-01 -1.182918e-16
    outer loop
      vertex 2.137626e+00 5.873079e+00 7.000000e-01
      vertex 1.085301e+00 6.155048e+00 1.400000e+00
      vertex 2.137626e+00 5.873079e+00 1.400000e+00
    endloop
  endfacet
  facet normal 4.226183e-01 9.063078e-01 -1.109907e-16
    outer loop
      vertex 2.137626e+00 5.873079e+00 7.000000e-01
      vertex 2.137626e+00 5.873079e+00 1.400000e+00
      vertex 3.125000e+00 5.412659e+00 1.400000e+00
    endloop
  endfacet
  facet normal 2.588190e-01 9.659258e-01 -1.182918e-16
    outer loop
      vertex 2.137626e+00 5.873079e+00 7.000000e-01
      vertex 1.085301e+00 6.155048e+00 7.000000e-01
      vertex 1.085301e+00 6.155048e+00 1.400000e+00
    endloop
  endfacet
  facet normal 8.715581e-02 -9.961947e-01 1.219987e-16
    outer loop
      vertex 3.827021e-16 -6.250000e+00 7.000000e-01
      vertex 1.085301e+00 -6.155048e+00 7.000000e-01
      vertex 1.085301e+00 -6.155048e+00 1.400000e+00
    endloop
  endfacet
  facet normal 8.715581e-02 -9.961947e-01 1.219987e-16
    outer loop
      vertex 3.827021e-16 -6.250000e+00 7.000000e-01
      vertex 1.085301e+00 -6.155048e+00 1.400000e+00
      vertex 3.827021e-16 -6.250000e+00 1.400000e+00
    endloop
  endfacet
  facet normal 4.226183e-01 9.063078e-01 -1.109907e-16
    outer loop
      vertex 3.125000e+00 5.412659e+00 7.000000e-01
      vertex 2.137626e+00 5.873079e+00 7.000000e-01
      vertex 3.125000e+00 5.412659e+00 1.400000e+00
    endloop
  endfacet
  facet normal -8.715581e-02 -9.961947e-01 1.219987e-16
    outer loop
      vertex -1.085301e+00 -6.155048e+00 7.000000e-01
      vertex 3.827021e-16 -6.250000e+00 1.400000e+00
      vertex -1.085301e+00 -6.155048e+00 1.400000e+00
    endloop
  endfacet
  facet normal -2.588190e-01 -9.659258e-01 1.182918e-16
    outer loop
      vertex -1.085301e+00 -6.155048e+00 7.000000e-01
      vertex -1.085301e+00 -6.155048e+00 1.400000e+00
      vertex -2.137626e+00 -5.873079e+00 1.400000e+00
    endloop
  endfacet
  facet normal 5.735763e-01 8.191522e-01 -1.003172e-16
    outer loop
      vertex 4.017423e+00 4.787778e+00 7.000000e-01
      vertex 3.125000e+00 5.412659e+00 7.000000e-01
      vertex 3.125000e+00 5.412659e+00 1.400000e+00
    endloop
  endfacet
  facet normal -8.715581e-02 -9.961947e-01 1.219987e-16
    outer loop
      vertex -1.085301e+00 -6.155048e+00 7.000000e-01
      vertex 3.827021e-16 -6.250000e+00 7.000000e-01
      vertex 3.827021e-16 -6.250000e+00 1.400000e+00
    endloop
  endfacet
  facet normal 5.735763e-01 8.191522e-01 -1.003172e-16
    outer loop
      vertex 4.017423e+00 4.787778e+00 7.000000e-01
      vertex 3.125000e+00 5.412659e+00 1.400000e+00
      vertex 4.017423e+00 4.787778e+00 1.400000e+00
    endloop
  endfacet
  facet normal -2.588190e-01 -9.659258e-01 1.182918e-16
    outer loop
      vertex -2.137626e+00 -5.873079e+00 7.000000e-01
      vertex -1.085301e+00 -6.155048e+00 7.000000e-01
      vertex -2.137626e+00 -5.873079e+00 1.400000e+00
    endloop
  endfacet
  facet normal 7.071068e-01 7.071068e-01 -8.659561e-17
    outer loop
      vertex 4.787778e+00 4.017423e+00 7.000000e-01
      vertex 4.017423e+00 4.787778e+00 7.000000e-01
      vertex 4.017423e+00 4.787778e+00 1.400000e+00
    endloop
  endfacet
  facet normal 7.071068e-01 7.071068e-01 -8.659561e-17
    outer loop
      vertex 4.787778e+00 4.017423e+00 7.000000e-01
      vertex 4.017423e+00 4.787778e+00 1.400000e+00
      vertex 4.787778e+00 4.017423e+00 1.400000e+00
    endloop
  endfacet
  facet normal -4.226183e-01 -9.063078e-01 1.109907e-16
    outer loop
      vertex -3.125000e+00 -5.412659e+00 7.000000e-01
      vertex -2.137626e+00 -5.873079e+00 1.400000e+00
      vertex -3.125000e+00 -5.412659e+00 1.400000e+00
    endloop
  endfacet
  facet normal 8.191522e-01 5.735763e-01 -7.024283e-17
    outer loop
      vertex 5.412659e+00 3.125000e+00 7.000000e-01
      vertex 4.787778e+00 4.017423e+00 7.000000e-01
      vertex 4.787778e+00 4.017423e+00 1.400000e+00
    endloop
  endfacet
  facet normal -4.226183e-01 -9.063078e-01 1.109907e-16
    outer loop
      vertex -3.125000e+00 -5.412659e+00 7.000000e-01
      vertex -2.137626e+00 -5.873079e+00 7.000000e-01
      vertex -2.137626e+00 -5.873079e+00 1.400000e+00
    endloop
  endfacet
  facet normal 8.191522e-01 5.735763e-01 -7.024283e-17
    outer loop
      vertex 5.412659e+00 3.125000e+00 7.000000e-01
      vertex 4.787778e+00 4.017423e+00 1.400000e+00
      vertex 5.412659e+00 3.125000e+00 1.400000e+00
    endloop
  endfacet
  facet normal 9.063078e-01 4.226183e-01 -5.175581e-17
    outer loop
      vertex 5.412659e+00 3.125000e+00 7.000000e-01
      vertex 5.412659e+00 3.125000e+00 1.400000e+00
      vertex 5.873079e+00 2.137626e+00 1.400000e+00
    endloop
  endfacet
  facet normal -5.735763e-01 -8.191522e-01 1.003172e-16
    outer loop
      vertex -4.017423e+00 -4.787778e+00 7.000000e-01
      vertex -3.125000e+00 -5.412659e+00 1.400000e+00
      vertex -4.017423e+00 -4.787778e+00 1.400000e+00
    endloop
  endfacet
  facet normal -7.071068e-01 -7.071068e-01 8.659561e-17
    outer loop
      vertex -4.017423e+00 -4.787778e+00 7.000000e-01
      vertex -4.017423e+00 -4.787778e+00 1.400000e+00
      vertex -4.787778e+00 -4.017423e+00 1.400000e+00
    endloop
  endfacet
  facet normal -5.735763e-01 -8.191522e-01 1.003172e-16
    outer loop
      vertex -4.017423e+00 -4.787778e+00 7.000000e-01
      vertex -3.125000e+00 -5.412659e+00 7.000000e-01
      vertex -3.125000e+00 -5.412659e+00 1.400000e+00
    endloop
  endfacet
  facet normal 9.063078e-01 4.226183e-01 -5.175581e-17
    outer loop
      vertex 5.873079e+00 2.137626e+00 7.000000e-01
      vertex 5.412659e+00 3.125000e+00 7.000000e-01
      vertex 5.873079e+00 2.137626e+00 1.400000e+00
    endloop
  endfacet
  facet normal 9.659258e-01 2.588190e-01 -3.169619e-17
    outer loop
      vertex 6.155048e+00 1.085301e+00 7.000000e-01
      vertex 5.873079e+00 2.137626e+00 7.000000e-01
      vertex 5.873079e+00 2.137626e+00 1.400000e+00
    endloop
  endfacet
  facet normal 9.659258e-01 2.588190e-01 -3.169619e-17
    outer loop
      vertex 6.155048e+00 1.085301e+00 7.000000e-01
      vertex 5.873079e+00 2.137626e+00 1.400000e+00
      vertex 6.155048e+00 1.085301e+00 1.400000e+00
    endloop
  endfacet
  facet normal -7.071068e-01 -7.071068e-01 8.659561e-17
    outer loop
      vertex -4.787778e+00 -4.017423e+00 7.000000e-01
      vertex -4.017423e+00 -4.787778e+00 7.000000e-01
      vertex -4.787778e+00 -4.017423e+00 1.400000e+00
    endloop
  endfacet
  facet normal 9.961947e-01 8.715581e-02 -1.067351e-17
    outer loop
      vertex 6.250000e+00 1.445083e-15 7.000000e-01
      vertex 6.155048e+00 1.085301e+00 7.000000e-01
      vertex 6.155048e+00 1.085301e+00 1.400000e+00
    endloop
  endfacet
  facet normal 9.961947e-01 8.715581e-02 -1.067351e-17
    outer loop
      vertex 6.250000e+00 1.445083e-15 7.000000e-01
      vertex 6.155048e+00 1.085301e+00 1.400000e+00
      vertex 6.250000e+00 1.530808e-15 1.400000e+00
    endloop
  endfacet
  facet normal -8.191522e-01 -5.735763e-01 7.024283e-17
    outer loop
      vertex -5.412659e+00 -3.125000e+00 7.000000e-01
      vertex -4.787778e+00 -4.017423e+00 1.400000e+00
      vertex -5.412659e+00 -3.125000e+00 1.400000e+00
    endloop
  endfacet
  facet normal -9.063078e-01 -4.226183e-01 5.175581e-17
    outer loop
      vertex -5.412659e+00 -3.125000e+00 7.000000e-01
      vertex -5.412659e+00 -3.125000e+00 1.400000e+00
      vertex -5.873079e+00 -2.137626e+00 1.400000e+00
    endloop
  endfacet
  facet normal -8.191522e-01 -5.735763e-01 7.024283e-17
    outer loop
      vertex -5.412659e+00 -3.125000e+00 7.000000e-01
      vertex -4.787778e+00 -4.017423e+00 7.000000e-01
      vertex -4.787778e+00 -4.017423e+00 1.400000e+00
    endloop
  endfacet
  facet normal -9.063078e-01 -4.226183e-01 5.175581e-17
    outer loop
      vertex -5.873079e+00 -2.137626e+00 7.000000e-01
      vertex -5.412659e+00 -3.125000e+00 7.000000e-01
      vertex -5.873079e+00 -2.137626e+00 1.400000e+00
    endloop
  endfacet
  facet normal -9.659258e-01 -2.588190e-01 3.169619e-17
    outer loop
      vertex -6.155048e+00 -1.085301e+00 7.000000e-01
      vertex -5.873079e+00 -2.137626e+00 1.400000e+00
      vertex -6.155048e+00 -1.085301e+00 1.400000e+00
    endloop
  endfacet
  facet normal -9.961947e-01 -8.715581e-02 1.067351e-17
    outer loop
      vertex -6.155048e+00 -1.085301e+00 7.000000e-01
      vertex -6.155048e+00 -1.085301e+00 1.400000e+00
      vertex -6.250000e+00 -9.092077e-15 1.400000e+00
    endloop
  endfacet
  facet normal -9.659258e-01 -2.588190e-01 3.169619e-17
    outer loop
      vertex -6.155048e+00 -1.085301e+00 7.000000e-01
      vertex -5.873079e+00 -2.137626e+00 7.000000e-01
      vertex -5.873079e+00 -2.137626e+00 1.400000e+00
    endloop
  endfacet
  facet normal -9.961947e-01 -8.715581e-02 1.067351e-17
    outer loop
      vertex -6.250000e+00 -9.177802e-15 7.000000e-01
      vertex -6.155048e+00 -1.085301e+00 7.000000e-01
      vertex -6.250000e+00 -9.092077e-15 1.400000e+00
    endloop
  endfacet
  facet normal -9.961947e-01 8.715581e-02 -1.067351e-17
    outer loop
      vertex -6.155048e+00 1.085301e+00 7.000000e-01
      vertex -6.250000e+00 -9.092077e-15 1.400000e+00
      vertex -6.155048e+00 1.085301e+00 1.400000e+00
    endloop
  endfacet
  facet normal -9.659258e-01 2.588190e-01 -3.169619e-17
    outer loop
      vertex -6.155048e+00 1.085301e+00 7.000000e-01
      vertex -6.155048e+00 1.085301e+00 1.400000e+00
      vertex -5.873079e+00 2.137626e+00 1.400000e+00
    endloop
  endfacet
  facet normal -9.961947e-01 8.715581e-02 -1.067351e-17
    outer loop
      vertex -6.155048e+00 1.085301e+00 7.000000e-01
      vertex -6.250000e+00 -9.177802e-15 7.000000e-01
      vertex -6.250000e+00 -9.092077e-15 1.400000e+00
    endloop
  endfacet
  facet normal -9.659258e-01 2.588190e-01 -3.169619e-17
    outer loop
      vertex -5.873079e+00 2.137626e+00 7.000000e-01
      vertex -6.155048e+00 1.085301e+00 7.000000e-01
      vertex -5.873079e+00 2.137626e+00 1.400000e+00
    endloop
  endfacet
  facet normal -1.305262e-01 -9.914449e-01 1.214170e-16
    outer loop
      vertex 1.229391e+00 4.588148e+00 1.400000e+00
      vertex -1.163414e-15 4.750000e+00 1.400000e+00
      vertex 1.229391e+00 4.588148e+00 2.220446e-16
    endloop
  endfacet
  facet normal -1.305262e-01 -9.914449e-01 1.214170e-16
    outer loop
      vertex -1.163414e-15 4.750000e+00 1.400000e+00
      vertex -1.163414e-15 4.750000e+00 2.220446e-16
      vertex 1.229391e+00 4.588148e+00 2.220446e-16
    endloop
  endfacet
  facet normal -9.930685e-01 1.175373e-01 -1.439417e-17
    outer loop
      vertex 4.618757e+00 -1.108865e+00 1.400000e+00
      vertex 4.750000e+00 1.163414e-15 1.400000e+00
      vertex 4.750000e+00 9.919639e-16 8.881784e-16
    endloop
  endfacet
  facet normal -3.826834e-01 -9.238796e-01 1.131426e-16
    outer loop
      vertex 2.375000e+00 4.113621e+00 1.400000e+00
      vertex 1.229391e+00 4.588148e+00 1.400000e+00
      vertex 2.375000e+00 4.113621e+00 4.440892e-16
    endloop
  endfacet
  facet normal -3.826834e-01 -9.238796e-01 1.131426e-16
    outer loop
      vertex 1.229391e+00 4.588148e+00 1.400000e+00
      vertex 1.229391e+00 4.588148e+00 2.220446e-16
      vertex 2.375000e+00 4.113621e+00 4.440892e-16
    endloop
  endfacet
  facet normal -9.381914e-01 3.461170e-01 -4.238711e-17
    outer loop
      vertex 4.232281e+00 -2.156455e+00 1.400000e+00
      vertex 4.618757e+00 -1.108865e+00 1.400000e+00
      vertex 4.618757e+00 -1.108865e+00 1.110223e-15
    endloop
  endfacet
  facet normal -9.930685e-01 1.175373e-01 -1.439417e-17
    outer loop
      vertex 4.618757e+00 -1.108865e+00 1.400000e+00
      vertex 4.750000e+00 9.919639e-16 8.881784e-16
      vertex 4.618757e+00 -1.108865e+00 1.110223e-15
    endloop
  endfacet
  facet normal -6.087614e-01 -7.933533e-01 9.715776e-17
    outer loop
      vertex 3.358757e+00 3.358757e+00 1.400000e+00
      vertex 2.375000e+00 4.113621e+00 1.400000e+00
      vertex 3.358757e+00 3.358757e+00 4.440892e-16
    endloop
  endfacet
  facet normal -6.087614e-01 -7.933533e-01 9.715776e-17
    outer loop
      vertex 2.375000e+00 4.113621e+00 1.400000e+00
      vertex 2.375000e+00 4.113621e+00 4.440892e-16
      vertex 3.358757e+00 3.358757e+00 4.440892e-16
    endloop
  endfacet
  facet normal -8.314695e-01 5.555704e-01 -6.803776e-17
    outer loop
      vertex 3.611928e+00 -3.084878e+00 1.400000e+00
      vertex 4.232281e+00 -2.156455e+00 1.400000e+00
      vertex 4.232281e+00 -2.156455e+00 1.110223e-15
    endloop
  endfacet
  facet normal -9.381914e-01 3.461170e-01 -4.238711e-17
    outer loop
      vertex 4.232281e+00 -2.156455e+00 1.400000e+00
      vertex 4.618757e+00 -1.108865e+00 1.110223e-15
      vertex 4.232281e+00 -2.156455e+00 1.110223e-15
    endloop
  endfacet
  facet normal -7.933533e-01 -6.087614e-01 7.455178e-17
    outer loop
      vertex 4.113621e+00 2.375000e+00 1.400000e+00
      vertex 3.358757e+00 3.358757e+00 1.400000e+00
      vertex 4.113621e+00 2.375000e+00 6.661338e-16
    endloop
  endfacet
  facet normal -7.933533e-01 -6.087614e-01 7.455178e-17
    outer loop
      vertex 3.358757e+00 3.358757e+00 1.400000e+00
      vertex 3.358757e+00 3.358757e+00 4.440892e-16
      vertex 4.113621e+00 2.375000e+00 6.661338e-16
    endloop
  endfacet
  facet normal -8.314695e-01 5.555704e-01 -6.803776e-17
    outer loop
      vertex 3.611928e+00 -3.084878e+00 1.400000e+00
      vertex 4.232281e+00 -2.156455e+00 1.110223e-15
      vertex 3.611928e+00 -3.084878e+00 1.332268e-15
    endloop
  endfacet
  facet normal -9.238796e-01 -3.826834e-01 4.686519e-17
    outer loop
      vertex 4.588148e+00 1.229391e+00 1.400000e+00
      vertex 4.113621e+00 2.375000e+00 1.400000e+00
      vertex 4.588148e+00 1.229391e+00 6.661338e-16
    endloop
  endfacet
  facet normal -6.788008e-01 7.343224e-01 -8.992856e-17
    outer loop
      vertex 2.791980e+00 -3.842831e+00 1.400000e+00
      vertex 3.611928e+00 -3.084878e+00 1.400000e+00
      vertex 2.791980e+00 -3.842831e+00 1.332268e-15
    endloop
  endfacet
  facet normal -9.914449e-01 -1.305262e-01 1.598485e-17
    outer loop
      vertex 4.750000e+00 1.163414e-15 1.400000e+00
      vertex 4.588148e+00 1.229391e+00 1.400000e+00
      vertex 4.588148e+00 1.229391e+00 6.661338e-16
    endloop
  endfacet
  facet normal -4.886212e-01 8.724960e-01 -1.068499e-16
    outer loop
      vertex 1.817746e+00 -4.388428e+00 1.400000e+00
      vertex 2.791980e+00 -3.842831e+00 1.400000e+00
      vertex 2.791980e+00 -3.842831e+00 1.332268e-15
    endloop
  endfacet
  facet normal -9.238796e-01 -3.826834e-01 4.686519e-17
    outer loop
      vertex 4.113621e+00 2.375000e+00 1.400000e+00
      vertex 4.113621e+00 2.375000e+00 6.661338e-16
      vertex 4.588148e+00 1.229391e+00 6.661338e-16
    endloop
  endfacet
  facet normal -6.788008e-01 7.343224e-01 -8.992856e-17
    outer loop
      vertex 3.611928e+00 -3.084878e+00 1.400000e+00
      vertex 3.611928e+00 -3.084878e+00 1.332268e-15
      vertex 2.791980e+00 -3.842831e+00 1.332268e-15
    endloop
  endfacet
  facet normal -9.914449e-01 -1.305262e-01 1.598485e-17
    outer loop
      vertex 4.750000e+00 1.163414e-15 1.400000e+00
      vertex 4.588148e+00 1.229391e+00 6.661338e-16
      vertex 4.750000e+00 9.919639e-16 8.881784e-16
    endloop
  endfacet
  facet normal -4.886212e-01 8.724960e-01 -1.068499e-16
    outer loop
      vertex 1.817746e+00 -4.388428e+00 1.400000e+00
      vertex 2.791980e+00 -3.842831e+00 1.332268e-15
      vertex 1.817746e+00 -4.388428e+00 1.332268e-15
    endloop
  endfacet
  facet normal -2.714406e-01 9.624553e-01 -1.178668e-16
    outer loop
      vertex 7.430637e-01 -4.691520e+00 1.400000e+00
      vertex 1.817746e+00 -4.388428e+00 1.400000e+00
      vertex 7.430637e-01 -4.691520e+00 1.554312e-15
    endloop
  endfacet
  facet normal -2.714406e-01 9.624553e-01 -1.178668e-16
    outer loop
      vertex 1.817746e+00 -4.388428e+00 1.400000e+00
      vertex 1.817746e+00 -4.388428e+00 1.332268e-15
      vertex 7.430637e-01 -4.691520e+00 1.554312e-15
    endloop
  endfacet
  facet normal -3.925966e-02 9.992290e-01 -1.223703e-16
    outer loop
      vertex -3.726807e-01 -4.735357e+00 1.400000e+00
      vertex 7.430637e-01 -4.691520e+00 1.400000e+00
      vertex -3.726807e-01 -4.735357e+00 1.554312e-15
    endloop
  endfacet
  facet normal -3.925966e-02 9.992290e-01 -1.223703e-16
    outer loop
      vertex 7.430637e-01 -4.691520e+00 1.400000e+00
      vertex 7.430637e-01 -4.691520e+00 1.554312e-15
      vertex -3.726807e-01 -4.735357e+00 1.554312e-15
    endloop
  endfacet
  facet normal 1.950902e-01 9.807854e-01 -1.201116e-16
    outer loop
      vertex -1.467831e+00 -4.517519e+00 1.400000e+00
      vertex -3.726807e-01 -4.735357e+00 1.400000e+00
      vertex -1.467831e+00 -4.517519e+00 1.332268e-15
    endloop
  endfacet
  facet normal 4.186598e-01 9.081432e-01 -1.112155e-16
    outer loop
      vertex -2.481868e+00 -4.050041e+00 1.400000e+00
      vertex -1.467831e+00 -4.517519e+00 1.400000e+00
      vertex -1.467831e+00 -4.517519e+00 1.332268e-15
    endloop
  endfacet
  facet normal 1.950902e-01 9.807854e-01 -1.201116e-16
    outer loop
      vertex -3.726807e-01 -4.735357e+00 1.400000e+00
      vertex -3.726807e-01 -4.735357e+00 1.554312e-15
      vertex -1.467831e+00 -4.517519e+00 1.332268e-15
    endloop
  endfacet
  facet normal 4.186598e-01 9.081432e-01 -1.112155e-16
    outer loop
      vertex -2.481868e+00 -4.050041e+00 1.400000e+00
      vertex -1.467831e+00 -4.517519e+00 1.332268e-15
      vertex -2.481868e+00 -4.050041e+00 1.332268e-15
    endloop
  endfacet
  facet normal 6.190940e-01 7.853170e-01 -9.617360e-17
    outer loop
      vertex -3.358757e+00 -3.358757e+00 1.400000e+00
      vertex -2.481868e+00 -4.050041e+00 1.400000e+00
      vertex -3.358757e+00 -3.358757e+00 1.332268e-15
    endloop
  endfacet
  facet normal 7.853170e-01 6.190940e-01 -7.581714e-17
    outer loop
      vertex -4.050041e+00 -2.481868e+00 1.400000e+00
      vertex -3.358757e+00 -3.358757e+00 1.400000e+00
      vertex -3.358757e+00 -3.358757e+00 1.332268e-15
    endloop
  endfacet
  facet normal 6.190940e-01 7.853170e-01 -9.617360e-17
    outer loop
      vertex -2.481868e+00 -4.050041e+00 1.400000e+00
      vertex -2.481868e+00 -4.050041e+00 1.332268e-15
      vertex -3.358757e+00 -3.358757e+00 1.332268e-15
    endloop
  endfacet
  facet normal 7.853170e-01 6.190940e-01 -7.581714e-17
    outer loop
      vertex -4.050041e+00 -2.481868e+00 1.400000e+00
      vertex -3.358757e+00 -3.358757e+00 1.332268e-15
      vertex -4.050041e+00 -2.481868e+00 1.110223e-15
    endloop
  endfacet
  facet normal 9.081432e-01 4.186598e-01 -5.127104e-17
    outer loop
      vertex -4.517519e+00 -1.467831e+00 1.400000e+00
      vertex -4.050041e+00 -2.481868e+00 1.400000e+00
      vertex -4.050041e+00 -2.481868e+00 1.110223e-15
    endloop
  endfacet
  facet normal 9.081432e-01 4.186598e-01 -5.127104e-17
    outer loop
      vertex -4.517519e+00 -1.467831e+00 1.400000e+00
      vertex -4.050041e+00 -2.481868e+00 1.110223e-15
      vertex -4.517519e+00 -1.467831e+00 1.110223e-15
    endloop
  endfacet
  facet normal 9.807854e-01 1.950902e-01 -2.389166e-17
    outer loop
      vertex -4.735357e+00 -3.726807e-01 1.400000e+00
      vertex -4.517519e+00 -1.467831e+00 1.400000e+00
      vertex -4.517519e+00 -1.467831e+00 1.110223e-15
    endloop
  endfacet
  facet normal 9.807854e-01 1.950902e-01 -2.389166e-17
    outer loop
      vertex -4.735357e+00 -3.726807e-01 1.400000e+00
      vertex -4.517519e+00 -1.467831e+00 1.110223e-15
      vertex -4.735357e+00 -3.726807e-01 8.881784e-16
    endloop
  endfacet
  facet normal 9.992290e-01 -3.925966e-02 4.807922e-18
    outer loop
      vertex -4.735357e+00 -3.726807e-01 1.400000e+00
      vertex -4.735357e+00 -3.726807e-01 8.881784e-16
      vertex -4.691520e+00 7.430637e-01 8.881784e-16
    endloop
  endfacet
  facet normal 9.992290e-01 -3.925966e-02 4.807922e-18
    outer loop
      vertex -4.691520e+00 7.430637e-01 1.400000e+00
      vertex -4.735357e+00 -3.726807e-01 1.400000e+00
      vertex -4.691520e+00 7.430637e-01 8.881784e-16
    endloop
  endfacet
  facet normal 9.624553e-01 -2.714406e-01 3.324189e-17
    outer loop
      vertex -4.388428e+00 1.817746e+00 1.400000e+00
      vertex -4.691520e+00 7.430637e-01 1.400000e+00
      vertex -4.691520e+00 7.430637e-01 8.881784e-16
    endloop
  endfacet
  facet normal 9.624553e-01 -2.714406e-01 3.324189e-17
    outer loop
      vertex -4.388428e+00 1.817746e+00 1.400000e+00
      vertex -4.691520e+00 7.430637e-01 8.881784e-16
      vertex -4.388428e+00 1.817746e+00 6.661338e-16
    endloop
  endfacet
  facet normal 8.724960e-01 -4.886212e-01 5.983884e-17
    outer loop
      vertex -3.842831e+00 2.791980e+00 1.400000e+00
      vertex -4.388428e+00 1.817746e+00 1.400000e+00
      vertex -3.842831e+00 2.791980e+00 4.440892e-16
    endloop
  endfacet
  facet normal 8.724960e-01 -4.886212e-01 5.983884e-17
    outer loop
      vertex -4.388428e+00 1.817746e+00 1.400000e+00
      vertex -4.388428e+00 1.817746e+00 6.661338e-16
      vertex -3.842831e+00 2.791980e+00 4.440892e-16
    endloop
  endfacet
  facet normal 7.343224e-01 -6.788008e-01 8.312912e-17
    outer loop
      vertex -3.084878e+00 3.611928e+00 1.400000e+00
      vertex -3.842831e+00 2.791980e+00 1.400000e+00
      vertex -3.084878e+00 3.611928e+00 4.440892e-16
    endloop
  endfacet
  facet normal 5.555704e-01 -8.314695e-01 1.018256e-16
    outer loop
      vertex -2.156455e+00 4.232281e+00 1.400000e+00
      vertex -3.084878e+00 3.611928e+00 1.400000e+00
      vertex -3.084878e+00 3.611928e+00 4.440892e-16
    endloop
  endfacet
  facet normal 7.343224e-01 -6.788008e-01 8.312912e-17
    outer loop
      vertex -3.842831e+00 2.791980e+00 1.400000e+00
      vertex -3.842831e+00 2.791980e+00 4.440892e-16
      vertex -3.084878e+00 3.611928e+00 4.440892e-16
    endloop
  endfacet
  facet normal 5.555704e-01 -8.314695e-01 1.018256e-16
    outer loop
      vertex -2.156455e+00 4.232281e+00 1.400000e+00
      vertex -3.084878e+00 3.611928e+00 4.440892e-16
      vertex -2.156455e+00 4.232281e+00 4.440892e-16
    endloop
  endfacet
  facet normal 3.461170e-01 -9.381914e-01 1.148953e-16
    outer loop
      vertex -1.108865e+00 4.618757e+00 1.400000e+00
      vertex -2.156455e+00 4.232281e+00 1.400000e+00
      vertex -1.108865e+00 4.618757e+00 2.220446e-16
    endloop
  endfacet
  facet normal 3.461170e-01 -9.381914e-01 1.148953e-16
    outer loop
      vertex -2.156455e+00 4.232281e+00 1.400000e+00
      vertex -2.156455e+00 4.232281e+00 4.440892e-16
      vertex -1.108865e+00 4.618757e+00 2.220446e-16
    endloop
  endfacet
  facet normal 1.175373e-01 -9.930685e-01 1.216158e-16
    outer loop
      vertex -1.163414e-15 4.750000e+00 1.400000e+00
      vertex -1.108865e+00 4.618757e+00 1.400000e+00
      vertex -1.163414e-15 4.750000e+00 2.220446e-16
    endloop
  endfacet
  facet normal 1.175373e-01 -9.930685e-01 1.216158e-16
    outer loop
      vertex -1.108865e+00 4.618757e+00 1.400000e+00
      vertex -1.108865e+00 4.618757e+00 2.220446e-16
      vertex -1.163414e-15 4.750000e+00 2.220446e-16
    endloop
  endfacet
  facet normal 0.000000e+00 1.224647e-16 1.000000e+00
    outer loop
      vertex -2.481868e+00 -4.050041e+00 1.400000e+00
      vertex -4.017423e+00 -4.787778e+00 1.400000e+00
      vertex -3.125000e+00 -5.412659e+00 1.400000e+00
    endloop
  endfacet
  facet normal 0.000000e+00 1.224647e-16 1.000000e+00
    outer loop
      vertex 4.113621e+00 2.375000e+00 1.400000e+00
      vertex 4.588148e+00 1.229391e+00 1.400000e+00
      vertex 5.873079e+00 2.137626e+00 1.400000e+00
    endloop
  endfacet
  facet normal 0.000000e+00 1.224647e-16 1.000000e+00
    outer loop
      vertex 5.412659e+00 3.125000e+00 1.400000e+00
      vertex 4.113621e+00 2.375000e+00 1.400000e+00
      vertex 5.873079e+00 2.137626e+00 1.400000e+00
    endloop
  endfacet
  facet normal 0.000000e+00 1.224647e-16 1.000000e+00
    outer loop
      vertex -1.467831e+00 -4.517519e+00 1.400000e+00
      vertex -2.481868e+00 -4.050041e+00 1.400000e+00
      vertex -2.137626e+00 -5.873079e+00 1.400000e+00
    endloop
  endfacet
  facet normal 0.000000e+00 1.224647e-16 1.000000e+00
    outer loop
      vertex -2.481868e+00 -4.050041e+00 1.400000e+00
      vertex -3.125000e+00 -5.412659e+00 1.400000e+00
      vertex -2.137626e+00 -5.873079e+00 1.400000e+00
    endloop
  endfacet
  facet normal 0.000000e+00 1.224647e-16 1.000000e+00
    outer loop
      vertex 4.588148e+00 1.229391e+00 1.400000e+00
      vertex 4.750000e+00 1.163414e-15 1.400000e+00
      vertex 6.155048e+00 1.085301e+00 1.400000e+00
    endloop
  endfacet
  facet normal 0.000000e+00 1.224647e-16 1.000000e+00
    outer loop
      vertex 5.873079e+00 2.137626e+00 1.400000e+00
      vertex 4.588148e+00 1.229391e+00 1.400000e+00
      vertex 6.155048e+00 1.085301e+00 1.400000e+00
    endloop
  endfacet
  facet normal 0.000000e+00 1.224647e-16 1.000000e+00
    outer loop
      vertex -3.726807e-01 -4.735357e+00 1.400000e+00
      vertex -1.467831e+00 -4.517519e+00 1.400000e+00
      vertex -1.085301e+00 -6.155048e+00 1.400000e+00
    endloop
  endfacet
  facet normal 0.000000e+00 1.224647e-16 1.000000e+00
    outer loop
      vertex -4.017423e+00 4.787778e+00 1.400000e+00
      vertex -4.787778e+00 4.017423e+00 1.400000e+00
      vertex -3.084878e+00 3.611928e+00 1.400000e+00
    endloop
  endfacet
  facet normal 0.000000e+00 1.224647e-16 1.000000e+00
    outer loop
      vertex -3.125000e+00 5.412659e+00 1.400000e+00
      vertex -4.017423e+00 4.787778e+00 1.400000e+00
      vertex -3.084878e+00 3.611928e+00 1.400000e+00
    endloop
  endfacet
  facet normal 0.000000e+00 1.224647e-16 1.000000e+00
    outer loop
      vertex -1.467831e+00 -4.517519e+00 1.400000e+00
      vertex -2.137626e+00 -5.873079e+00 1.400000e+00
      vertex -1.085301e+00 -6.155048e+00 1.400000e+00
    endloop
  endfacet
  facet normal 0.000000e+00 1.224647e-16 1.000000e+00
    outer loop
      vertex -4.787778e+00 4.017423e+00 1.400000e+00
      vertex -5.412659e+00 3.125000e+00 1.400000e+00
      vertex -3.842831e+00 2.791980e+00 1.400000e+00
    endloop
  endfacet
  facet normal 0.000000e+00 1.224647e-16 1.000000e+00
    outer loop
      vertex -3.084878e+00 3.611928e+00 1.400000e+00
      vertex -4.787778e+00 4.017423e+00 1.400000e+00
      vertex -3.842831e+00 2.791980e+00 1.400000e+00
    endloop
  endfacet
  facet normal 0.000000e+00 1.224647e-16 1.000000e+00
    outer loop
      vertex -2.137626e+00 5.873079e+00 1.400000e+00
      vertex -3.125000e+00 5.412659e+00 1.400000e+00
      vertex -2.156455e+00 4.232281e+00 1.400000e+00
    endloop
  endfacet
  facet normal 0.000000e+00 1.224647e-16 1.000000e+00
    outer loop
      vertex -3.125000e+00 5.412659e+00 1.400000e+00
      vertex -3.084878e+00 3.611928e+00 1.400000e+00
      vertex -2.156455e+00 4.232281e+00 1.400000e+00
    endloop
  endfacet
  facet normal 0.000000e+00 1.224647e-16 1.000000e+00
    outer loop
      vertex 6.155048e+00 1.085301e+00 1.400000e+00
      vertex 4.750000e+00 1.163414e-15 1.400000e+00
      vertex 6.250000e+00 1.530808e-15 1.400000e+00
    endloop
  endfacet
  facet normal 0.000000e+00 1.224647e-16 1.000000e+00
    outer loop
      vertex -5.412659e+00 3.125000e+00 1.400000e+00
      vertex -5.873079e+00 2.137626e+00 1.400000e+00
      vertex -4.388428e+00 1.817746e+00 1.400000e+00
    endloop
  endfacet
  facet normal 0.000000e+00 1.224647e-16 1.000000e+00
    outer loop
      vertex 7.430637e-01 -4.691520e+00 1.400000e+00
      vertex -3.726807e-01 -4.735357e+00 1.400000e+00
      vertex 3.827021e-16 -6.250000e+00 1.400000e+00
    endloop
  endfacet
  facet normal 0.000000e+00 1.224647e-16 1.000000e+00
    outer loop
      vertex -3.726807e-01 -4.735357e+00 1.400000e+00
      vertex -1.085301e+00 -6.155048e+00 1.400000e+00
      vertex 3.827021e-16 -6.250000e+00 1.400000e+00
    endloop
  endfacet
  facet normal 0.000000e+00 1.224647e-16 1.000000e+00
    outer loop
      vertex -3.842831e+00 2.791980e+00 1.400000e+00
      vertex -5.412659e+00 3.125000e+00 1.400000e+00
      vertex -4.388428e+00 1.817746e+00 1.400000e+00
    endloop
  endfacet
  facet normal 0.000000e+00 1.224647e-16 1.000000e+00
    outer loop
      vertex -1.085301e+00 6.155048e+00 1.400000e+00
      vertex -2.137626e+00 5.873079e+00 1.400000e+00
      vertex -1.108865e+00 4.618757e+00 1.400000e+00
    endloop
  endfacet
  facet normal 0.000000e+00 1.224647e-16 1.000000e+00
    outer loop
      vertex -2.137626e+00 5.873079e+00 1.400000e+00
      vertex -2.156455e+00 4.232281e+00 1.400000e+00
      vertex -1.108865e+00 4.618757e+00 1.400000e+00
    endloop
  endfacet
  facet normal 0.000000e+00 1.224647e-16 1.000000e+00
    outer loop
      vertex -6.155048e+00 1.085301e+00 1.400000e+00
      vertex -6.250000e+00 -9.092077e-15 1.400000e+00
      vertex -4.691520e+00 7.430637e-01 1.400000e+00
    endloop
  endfacet
  facet normal 0.000000e+00 1.224647e-16 1.000000e+00
    outer loop
      vertex -5.873079e+00 2.137626e+00 1.400000e+00
      vertex -6.155048e+00 1.085301e+00 1.400000e+00
      vertex -4.691520e+00 7.430637e-01 1.400000e+00
    endloop
  endfacet
  facet normal 0.000000e+00 1.224647e-16 1.000000e+00
    outer loop
      vertex -4.388428e+00 1.817746e+00 1.400000e+00
      vertex -5.873079e+00 2.137626e+00 1.400000e+00
      vertex -4.691520e+00 7.430637e-01 1.400000e+00
    endloop
  endfacet
  facet normal 0.000000e+00 1.224647e-16 1.000000e+00
    outer loop
      vertex 4.750000e+00 1.163414e-15 1.400000e+00
      vertex 4.618757e+00 -1.108865e+00 1.400000e+00
      vertex 6.155048e+00 -1.085301e+00 1.400000e+00
    endloop
  endfacet
  facet normal 0.000000e+00 1.224647e-16 1.000000e+00
    outer loop
      vertex 6.250000e+00 1.530808e-15 1.400000e+00
      vertex 4.750000e+00 1.163414e-15 1.400000e+00
      vertex 6.155048e+00 -1.085301e+00 1.400000e+00
    endloop
  endfacet
  facet normal 0.000000e+00 1.224647e-16 1.000000e+00
    outer loop
      vertex -1.780145e-14 6.250000e+00 1.400000e+00
      vertex -1.085301e+00 6.155048e+00 1.400000e+00
      vertex -1.163414e-15 4.750000e+00 1.400000e+00
    endloop
  endfacet
  facet normal 0.000000e+00 1.224647e-16 1.000000e+00
    outer loop
      vertex 1.085301e+00 6.155048e+00 1.400000e+00
      vertex -1.780145e-14 6.250000e+00 1.400000e+00
      vertex -1.163414e-15 4.750000e+00 1.400000e+00
    endloop
  endfacet
  facet normal 0.000000e+00 1.224647e-16 1.000000e+00
    outer loop
      vertex -1.085301e+00 6.155048e+00 1.400000e+00
      vertex -1.108865e+00 4.618757e+00 1.400000e+00
      vertex -1.163414e-15 4.750000e+00 1.400000e+00
    endloop
  endfacet
  facet normal 0.000000e+00 1.224647e-16 1.000000e+00
    outer loop
      vertex 7.430637e-01 -4.691520e+00 1.400000e+00
      vertex 3.827021e-16 -6.250000e+00 1.400000e+00
      vertex 1.085301e+00 -6.155048e+00 1.400000e+00
    endloop
  endfacet
  facet normal 0.000000e+00 1.224647e-16 1.000000e+00
    outer loop
      vertex -6.250000e+00 -9.092077e-15 1.400000e+00
      vertex -6.155048e+00 -1.085301e+00 1.400000e+00
      vertex -4.735357e+00 -3.726807e-01 1.400000e+00
    endloop
  endfacet
  facet normal 0.000000e+00 1.224647e-16 1.000000e+00
    outer loop
      vertex 1.817746e+00 -4.388428e+00 1.400000e+00
      vertex 7.430637e-01 -4.691520e+00 1.400000e+00
      vertex 2.137626e+00 -5.873079e+00 1.400000e+00
    endloop
  endfacet
  facet normal 0.000000e+00 1.224647e-16 1.000000e+00
    outer loop
      vertex -4.691520e+00 7.430637e-01 1.400000e+00
      vertex -6.250000e+00 -9.092077e-15 1.400000e+00
      vertex -4.735357e+00 -3.726807e-01 1.400000e+00
    endloop
  endfacet
  facet normal 0.000000e+00 1.224647e-16 1.000000e+00
    outer loop
      vertex 7.430637e-01 -4.691520e+00 1.400000e+00
      vertex 1.085301e+00 -6.155048e+00 1.400000e+00
      vertex 2.137626e+00 -5.873079e+00 1.400000e+00
    endloop
  endfacet
  facet normal 0.000000e+00 1.224647e-16 1.000000e+00
    outer loop
      vertex 4.618757e+00 -1.108865e+00 1.400000e+00
      vertex 4.232281e+00 -2.156455e+00 1.400000e+00
      vertex 5.873079e+00 -2.137626e+00 1.400000e+00
    endloop
  endfacet
  facet normal 0.000000e+00 1.224647e-16 1.000000e+00
    outer loop
      vertex 6.155048e+00 -1.085301e+00 1.400000e+00
      vertex 4.618757e+00 -1.108865e+00 1.400000e+00
      vertex 5.873079e+00 -2.137626e+00 1.400000e+00
    endloop
  endfacet
  facet normal 0.000000e+00 1.224647e-16 1.000000e+00
    outer loop
      vertex 2.791980e+00 -3.842831e+00 1.400000e+00
      vertex 1.817746e+00 -4.388428e+00 1.400000e+00
      vertex 3.125000e+00 -5.412659e+00 1.400000e+00
    endloop
  endfacet
  facet normal 0.000000e+00 1.224647e-16 1.000000e+00
    outer loop
      vertex 1.817746e+00 -4.388428e+00 1.400000e+00
      vertex 2.137626e+00 -5.873079e+00 1.400000e+00
      vertex 3.125000e+00 -5.412659e+00 1.400000e+00
    endloop
  endfacet
  facet normal 0.000000e+00 1.224647e-16 1.000000e+00
    outer loop
      vertex 2.137626e+00 5.873079e+00 1.400000e+00
      vertex 1.085301e+00 6.155048e+00 1.400000e+00
      vertex 1.229391e+00 4.588148e+00 1.400000e+00
    endloop
  endfacet
  facet normal 0.000000e+00 1.224647e-16 1.000000e+00
    outer loop
      vertex 4.232281e+00 -2.156455e+00 1.400000e+00
      vertex 3.611928e+00 -3.084878e+00 1.400000e+00
      vertex 5.412659e+00 -3.125000e+00 1.400000e+00
    endloop
  endfacet
  facet normal 0.000000e+00 1.224647e-16 1.000000e+00
    outer loop
      vertex 1.085301e+00 6.155048e+00 1.400000e+00
      vertex -1.163414e-15 4.750000e+00 1.400000e+00
      vertex 1.229391e+00 4.588148e+00 1.400000e+00
    endloop
  endfacet
  facet normal 0.000000e+00 1.224647e-16 1.000000e+00
    outer loop
      vertex -4.735357e+00 -3.726807e-01 1.400000e+00
      vertex -6.155048e+00 -1.085301e+00 1.400000e+00
      vertex -4.517519e+00 -1.467831e+00 1.400000e+00
    endloop
  endfacet
  facet normal 0.000000e+00 1.224647e-16 1.000000e+00
    outer loop
      vertex 5.873079e+00 -2.137626e+00 1.400000e+00
      vertex 4.232281e+00 -2.156455e+00 1.400000e+00
      vertex 5.412659e+00 -3.125000e+00 1.400000e+00
    endloop
  endfacet
  facet normal 0.000000e+00 1.224647e-16 1.000000e+00
    outer loop
      vertex -6.155048e+00 -1.085301e+00 1.400000e+00
      vertex -5.873079e+00 -2.137626e+00 1.400000e+00
      vertex -4.517519e+00 -1.467831e+00 1.400000e+00
    endloop
  endfacet
  facet normal 0.000000e+00 1.224647e-16 1.000000e+00
    outer loop
      vertex 5.412659e+00 -3.125000e+00 1.400000e+00
      vertex 3.611928e+00 -3.084878e+00 1.400000e+00
      vertex 4.787778e+00 -4.017423e+00 1.400000e+00
    endloop
  endfacet
  facet normal 0.000000e+00 1.224647e-16 1.000000e+00
    outer loop
      vertex 3.611928e+00 -3.084878e+00 1.400000e+00
      vertex 2.791980e+00 -3.842831e+00 1.400000e+00
      vertex 4.017423e+00 -4.787778e+00 1.400000e+00
    endloop
  endfacet
  facet normal 0.000000e+00 1.224647e-16 1.000000e+00
    outer loop
      vertex 4.787778e+00 -4.017423e+00 1.400000e+00
      vertex 3.611928e+00 -3.084878e+00 1.400000e+00
      vertex 4.017423e+00 -4.787778e+00 1.400000e+00
    endloop
  endfacet
  facet normal 0.000000e+00 1.224647e-16 1.000000e+00
    outer loop
      vertex 2.791980e+00 -3.842831e+00 1.400000e+00
      vertex 3.125000e+00 -5.412659e+00 1.400000e+00
      vertex 4.017423e+00 -4.787778e+00 1.400000e+00
    endloop
  endfacet
  facet normal 0.000000e+00 1.224647e-16 1.000000e+00
    outer loop
      vertex 2.137626e+00 5.873079e+00 1.400000e+00
      vertex 1.229391e+00 4.588148e+00 1.400000e+00
      vertex 2.375000e+00 4.113621e+00 1.400000e+00
    endloop
  endfacet
  facet normal 0.000000e+00 1.224647e-16 1.000000e+00
    outer loop
      vertex 3.125000e+00 5.412659e+00 1.400000e+00
      vertex 2.137626e+00 5.873079e+00 1.400000e+00
      vertex 2.375000e+00 4.113621e+00 1.400000e+00
    endloop
  endfacet
  facet normal 0.000000e+00 1.224647e-16 1.000000e+00
    outer loop
      vertex -4.517519e+00 -1.467831e+00 1.400000e+00
      vertex -5.873079e+00 -2.137626e+00 1.400000e+00
      vertex -4.050041e+00 -2.481868e+00 1.400000e+00
    endloop
  endfacet
  facet normal 0.000000e+00 1.224647e-16 1.000000e+00
    outer loop
      vertex -5.873079e+00 -2.137626e+00 1.400000e+00
      vertex -5.412659e+00 -3.125000e+00 1.400000e+00
      vertex -4.050041e+00 -2.481868e+00 1.400000e+00
    endloop
  endfacet
  facet normal 0.000000e+00 1.224647e-16 1.000000e+00
    outer loop
      vertex 3.125000e+00 5.412659e+00 1.400000e+00
      vertex 2.375000e+00 4.113621e+00 1.400000e+00
      vertex 4.017423e+00 4.787778e+00 1.400000e+00
    endloop
  endfacet
  facet normal 0.000000e+00 1.224647e-16 1.000000e+00
    outer loop
      vertex -4.050041e+00 -2.481868e+00 1.400000e+00
      vertex -5.412659e+00 -3.125000e+00 1.400000e+00
      vertex -4.787778e+00 -4.017423e+00 1.400000e+00
    endloop
  endfacet
  facet normal 0.000000e+00 1.224647e-16 1.000000e+00
    outer loop
      vertex 4.017423e+00 4.787778e+00 1.400000e+00
      vertex 2.375000e+00 4.113621e+00 1.400000e+00
      vertex 3.358757e+00 3.358757e+00 1.400000e+00
    endloop
  endfacet
  facet normal 0.000000e+00 1.224647e-16 1.000000e+00
    outer loop
      vertex -4.050041e+00 -2.481868e+00 1.400000e+00
      vertex -4.787778e+00 -4.017423e+00 1.400000e+00
      vertex -3.358757e+00 -3.358757e+00 1.400000e+00
    endloop
  endfacet
  facet normal 0.000000e+00 1.224647e-16 1.000000e+00
    outer loop
      vertex 4.017423e+00 4.787778e+00 1.400000e+00
      vertex 3.358757e+00 3.358757e+00 1.400000e+00
      vertex 4.787778e+00 4.017423e+00 1.400000e+00
    endloop
  endfacet
  facet normal 0.000000e+00 1.224647e-16 1.000000e+00
    outer loop
      vertex -3.358757e+00 -3.358757e+00 1.400000e+00
      vertex -4.787778e+00 -4.017423e+00 1.400000e+00
      vertex -4.017423e+00 -4.787778e+00 1.400000e+00
    endloop
  endfacet
  facet normal 0.000000e+00 1.224647e-16 1.000000e+00
    outer loop
      vertex -3.358757e+00 -3.358757e+00 1.400000e+00
      vertex -4.017423e+00 -4.787778e+00 1.400000e+00
      vertex -2.481868e+00 -4.050041e+00 1.400000e+00
    endloop
  endfacet
  facet normal 0.000000e+00 1.224647e-16 1.000000e+00
    outer loop
      vertex 4.787778e+00 4.017423e+00 1.400000e+00
      vertex 3.358757e+00 3.358757e+00 1.400000e+00
      vertex 4.113621e+00 2.375000e+00 1.400000e+00
    endloop
  endfacet
  facet normal 0.000000e+00 1.224647e-16 1.000000e+00
    outer loop
      vertex 4.787778e+00 4.017423e+00 1.400000e+00
      vertex 4.113621e+00 2.375000e+00 1.400000e+00
      vertex 5.412659e+00 3.125000e+00 1.400000e+00
    endloop
  endfacet
endsolid Default
