G04 #@! TF.FileFunction,Soldermask,Top*
%FSLAX46Y46*%
G04 Gerber Fmt 4.6, Leading zero omitted, Abs format (unit mm)*
G04 Created by KiCad (PCBNEW (after 2015-may-25 BZR unknown)-product) date 7/21/2015 11:36:56 AM*
%MOMM*%
G01*
G04 APERTURE LIST*
%ADD10C,0.100000*%
%ADD11R,1.500000X1.250000*%
%ADD12R,1.250000X1.500000*%
%ADD13R,1.300000X1.300000*%
%ADD14C,1.300000*%
%ADD15R,1.699260X1.699260*%
%ADD16C,1.998980*%
%ADD17R,1.998980X1.998980*%
%ADD18C,2.540000*%
%ADD19R,2.235200X2.235200*%
%ADD20R,1.727200X2.032000*%
%ADD21O,1.727200X2.032000*%
%ADD22O,3.500120X7.000240*%
%ADD23O,1.600200X2.499360*%
%ADD24R,1.500000X1.300000*%
%ADD25R,1.300000X1.500000*%
%ADD26R,0.800100X0.248920*%
%ADD27R,0.800100X0.251460*%
%ADD28R,0.248920X0.800100*%
%ADD29R,0.251460X0.800100*%
%ADD30R,0.600000X1.550000*%
%ADD31R,1.550000X0.600000*%
%ADD32R,1.099820X1.899920*%
%ADD33R,0.800100X0.800100*%
%ADD34R,1.450000X0.450000*%
%ADD35C,1.524000*%
%ADD36C,2.700020*%
%ADD37R,2.032000X2.032000*%
%ADD38O,2.032000X2.032000*%
%ADD39R,2.000000X1.600000*%
%ADD40R,1.600000X2.000000*%
%ADD41C,10.160000*%
%ADD42O,0.248920X1.000760*%
%ADD43O,1.000760X0.248920*%
%ADD44R,3.000000X3.000000*%
%ADD45C,3.000000*%
G04 APERTURE END LIST*
D10*
D11*
X27610000Y-21850000D03*
X25110000Y-21850000D03*
X65150000Y-34900000D03*
X67650000Y-34900000D03*
X65150000Y-26250000D03*
X67650000Y-26250000D03*
X63850000Y-23800000D03*
X66350000Y-23800000D03*
D12*
X28900000Y-19290000D03*
X28900000Y-16790000D03*
X33980000Y-26950000D03*
X33980000Y-29450000D03*
X26360000Y-19290000D03*
X26360000Y-16790000D03*
X4450000Y-49750000D03*
X4450000Y-52250000D03*
X4200000Y-32050000D03*
X4200000Y-34550000D03*
X42550000Y-13100000D03*
X42550000Y-15600000D03*
X14250000Y-51250000D03*
X14250000Y-53750000D03*
X14200000Y-33650000D03*
X14200000Y-36150000D03*
D11*
X47200000Y-16850000D03*
X44700000Y-16850000D03*
D12*
X46650000Y-68000000D03*
X46650000Y-65500000D03*
X42150000Y-65500000D03*
X42150000Y-68000000D03*
X44150000Y-65500000D03*
X44150000Y-68000000D03*
X38900000Y-70750000D03*
X38900000Y-68250000D03*
X98100000Y-33900000D03*
X98100000Y-31400000D03*
D11*
X26500000Y-68500000D03*
X24000000Y-68500000D03*
X26500000Y-70500000D03*
X24000000Y-70500000D03*
D12*
X86650000Y-33550000D03*
X86650000Y-36050000D03*
D11*
X84700000Y-95200000D03*
X82200000Y-95200000D03*
D12*
X83800000Y-33500000D03*
X83800000Y-36000000D03*
D11*
X103100000Y-94200000D03*
X100600000Y-94200000D03*
X71850000Y-89950000D03*
X74350000Y-89950000D03*
X90150000Y-91400000D03*
X92650000Y-91400000D03*
D13*
X79050000Y-20450000D03*
D14*
X79050000Y-25450000D03*
D11*
X37000000Y-68000000D03*
X34500000Y-68000000D03*
X24000000Y-63500000D03*
X26500000Y-63500000D03*
D12*
X69750000Y-97450000D03*
X69750000Y-99950000D03*
X88150000Y-100600000D03*
X88150000Y-98100000D03*
D11*
X71900000Y-97700000D03*
X74400000Y-97700000D03*
X90200000Y-100400000D03*
X92700000Y-100400000D03*
X41050000Y-56600000D03*
X43550000Y-56600000D03*
X29550000Y-56350000D03*
X27050000Y-56350000D03*
D12*
X117100000Y-29850000D03*
X117100000Y-32350000D03*
X106850000Y-28650000D03*
X106850000Y-31150000D03*
X108900000Y-32450000D03*
X108900000Y-34950000D03*
D13*
X98450000Y-40550000D03*
D14*
X103450000Y-40550000D03*
D12*
X10250000Y-80750000D03*
X10250000Y-78250000D03*
D11*
X14500000Y-78250000D03*
X17000000Y-78250000D03*
X8000000Y-71250000D03*
X5500000Y-71250000D03*
X16000000Y-76250000D03*
X18500000Y-76250000D03*
X9500000Y-68750000D03*
X12000000Y-68750000D03*
X16000000Y-71250000D03*
X18500000Y-71250000D03*
X19250000Y-93500000D03*
X16750000Y-93500000D03*
D12*
X26500000Y-91500000D03*
X26500000Y-94000000D03*
D11*
X23250000Y-84250000D03*
X20750000Y-84250000D03*
D12*
X28500000Y-91500000D03*
X28500000Y-94000000D03*
D11*
X24750000Y-81750000D03*
X27250000Y-81750000D03*
D12*
X31250000Y-84500000D03*
X31250000Y-87000000D03*
X42500000Y-95500000D03*
X42500000Y-93000000D03*
D11*
X46750000Y-92750000D03*
X49250000Y-92750000D03*
X40500000Y-84750000D03*
X38000000Y-84750000D03*
X48500000Y-90250000D03*
X51000000Y-90250000D03*
D12*
X43750000Y-79750000D03*
X43750000Y-82250000D03*
D11*
X48500000Y-84750000D03*
X51000000Y-84750000D03*
D12*
X61500000Y-89000000D03*
X61500000Y-86500000D03*
D11*
X65750000Y-86250000D03*
X68250000Y-86250000D03*
X58500000Y-78750000D03*
X56000000Y-78750000D03*
X66500000Y-83750000D03*
X69000000Y-83750000D03*
D12*
X61750000Y-73500000D03*
X61750000Y-76000000D03*
D11*
X66500000Y-78500000D03*
X69000000Y-78500000D03*
D12*
X74450000Y-64550000D03*
X74450000Y-62050000D03*
D11*
X67950000Y-69550000D03*
X70450000Y-69550000D03*
D12*
X87400000Y-58600000D03*
X87400000Y-56100000D03*
D11*
X79800000Y-63350000D03*
X82300000Y-63350000D03*
X68950000Y-72000000D03*
X71450000Y-72000000D03*
X82250000Y-65400000D03*
X84750000Y-65400000D03*
D12*
X81100000Y-68350000D03*
X81100000Y-70850000D03*
D11*
X78350000Y-78650000D03*
X75850000Y-78650000D03*
D12*
X100550000Y-62400000D03*
X100550000Y-59900000D03*
D11*
X92400000Y-67050000D03*
X94900000Y-67050000D03*
D12*
X110400000Y-75250000D03*
X110400000Y-72750000D03*
D11*
X103100000Y-80050000D03*
X105600000Y-80050000D03*
D12*
X89850000Y-64750000D03*
X89850000Y-67250000D03*
X99900000Y-77100000D03*
X99900000Y-79600000D03*
D11*
X90100000Y-73400000D03*
X92600000Y-73400000D03*
X90300000Y-80850000D03*
X87800000Y-80850000D03*
X62750000Y-102250000D03*
X60250000Y-102250000D03*
X21250000Y-104250000D03*
X18750000Y-104250000D03*
X49250000Y-97000000D03*
X51750000Y-97000000D03*
X8250000Y-99000000D03*
X10750000Y-99000000D03*
D15*
X3250000Y-25500000D03*
D16*
X3250000Y-22960000D03*
D15*
X3250000Y-19750000D03*
D16*
X3250000Y-17210000D03*
X86097460Y-20440000D03*
D17*
X86097460Y-30600000D03*
D16*
X104002540Y-34860000D03*
D17*
X104002540Y-24700000D03*
D18*
X98949360Y-24500000D03*
X93950640Y-24500000D03*
X112599360Y-19700000D03*
X107600640Y-19700000D03*
D19*
X60950000Y-21100000D03*
D20*
X77160000Y-9150000D03*
D21*
X74620000Y-9150000D03*
X72080000Y-9150000D03*
X69540000Y-9150000D03*
X67000000Y-9150000D03*
X64460000Y-9150000D03*
X61920000Y-9150000D03*
X59380000Y-9150000D03*
X56840000Y-9150000D03*
X54300000Y-9150000D03*
X51760000Y-9150000D03*
X49220000Y-9150000D03*
X46680000Y-9150000D03*
D22*
X91702220Y-6536600D03*
X101900320Y-6536600D03*
D23*
X96800000Y-10801260D03*
X94300640Y-10801260D03*
D20*
X80800000Y-9100000D03*
D21*
X83340000Y-9100000D03*
X85880000Y-9100000D03*
D22*
X96097780Y-112763400D03*
X85899680Y-112763400D03*
D23*
X91000000Y-108498740D03*
X93499360Y-108498740D03*
D22*
X115097780Y-112763400D03*
X104899680Y-112763400D03*
D23*
X110000000Y-108498740D03*
X112499360Y-108498740D03*
D22*
X15097780Y-112763400D03*
X4899680Y-112763400D03*
D23*
X10000000Y-108498740D03*
X12499360Y-108498740D03*
D22*
X53097780Y-112763400D03*
X42899680Y-112763400D03*
D23*
X48000000Y-108498740D03*
X50499360Y-108498740D03*
D22*
X72097780Y-112763400D03*
X61899680Y-112763400D03*
D23*
X67000000Y-108498740D03*
X69499360Y-108498740D03*
D22*
X34097780Y-112763400D03*
X23899680Y-112763400D03*
D23*
X29000000Y-108498740D03*
X31499360Y-108498740D03*
D24*
X25010000Y-24390000D03*
X27710000Y-24390000D03*
D25*
X6500000Y-22850000D03*
X6500000Y-25550000D03*
X6500000Y-16750000D03*
X6500000Y-19450000D03*
D24*
X19850000Y-12200000D03*
X22550000Y-12200000D03*
X60450000Y-29200000D03*
X63150000Y-29200000D03*
D25*
X49300000Y-12300000D03*
X49300000Y-15000000D03*
D24*
X66400000Y-21800000D03*
X63700000Y-21800000D03*
D25*
X79800000Y-12450000D03*
X79800000Y-15150000D03*
D24*
X93600000Y-14900000D03*
X96300000Y-14900000D03*
D25*
X87100000Y-15250000D03*
X87100000Y-12550000D03*
X74620000Y-15580000D03*
X74620000Y-12880000D03*
X69540000Y-15580000D03*
X69540000Y-12880000D03*
X67000000Y-15580000D03*
X67000000Y-12880000D03*
X48000000Y-55350000D03*
X48000000Y-52650000D03*
D24*
X34400000Y-71000000D03*
X37100000Y-71000000D03*
D25*
X96250000Y-31300000D03*
X96250000Y-34000000D03*
X94650000Y-36300000D03*
X94650000Y-39000000D03*
D24*
X31650000Y-73250000D03*
X34350000Y-73250000D03*
D25*
X92900000Y-39000000D03*
X92900000Y-36300000D03*
D24*
X23900000Y-72500000D03*
X26600000Y-72500000D03*
D25*
X79100000Y-86800000D03*
X79100000Y-84100000D03*
X76950000Y-86800000D03*
X76950000Y-84100000D03*
X97000000Y-87100000D03*
X97000000Y-84400000D03*
X95050000Y-87100000D03*
X95050000Y-84400000D03*
D24*
X37100000Y-62750000D03*
X34400000Y-62750000D03*
X26600000Y-74500000D03*
X23900000Y-74500000D03*
X82150000Y-93200000D03*
X84850000Y-93200000D03*
X71750000Y-91900000D03*
X74450000Y-91900000D03*
X100500000Y-92300000D03*
X103200000Y-92300000D03*
X90050000Y-89450000D03*
X92750000Y-89450000D03*
X34400000Y-66000000D03*
X37100000Y-66000000D03*
X23900000Y-65500000D03*
X26600000Y-65500000D03*
X29650000Y-59850000D03*
X26950000Y-59850000D03*
X71700000Y-95750000D03*
X74400000Y-95750000D03*
X71750000Y-99600000D03*
X74450000Y-99600000D03*
X90100000Y-96300000D03*
X92800000Y-96300000D03*
X90150000Y-98300000D03*
X92850000Y-98300000D03*
D25*
X117100000Y-27450000D03*
X117100000Y-24750000D03*
X114550000Y-35050000D03*
X114550000Y-32350000D03*
D24*
X78300000Y-101500000D03*
X81000000Y-101500000D03*
X96650000Y-100850000D03*
X99350000Y-100850000D03*
D25*
X111500000Y-32350000D03*
X111500000Y-35050000D03*
X14250000Y-80900000D03*
X14250000Y-83600000D03*
X12250000Y-78150000D03*
X12250000Y-80850000D03*
D24*
X5400000Y-73250000D03*
X8100000Y-73250000D03*
X15900000Y-74000000D03*
X18600000Y-74000000D03*
X5400000Y-76250000D03*
X8100000Y-76250000D03*
X14150000Y-68750000D03*
X16850000Y-68750000D03*
X19350000Y-95500000D03*
X16650000Y-95500000D03*
X24350000Y-93500000D03*
X21650000Y-93500000D03*
X20650000Y-86250000D03*
X23350000Y-86250000D03*
D25*
X30250000Y-91400000D03*
X30250000Y-94100000D03*
D24*
X20650000Y-88750000D03*
X23350000Y-88750000D03*
X29400000Y-81750000D03*
X32100000Y-81750000D03*
X42400000Y-97750000D03*
X45100000Y-97750000D03*
D25*
X44500000Y-92900000D03*
X44500000Y-95600000D03*
D24*
X37900000Y-86750000D03*
X40600000Y-86750000D03*
X48400000Y-88250000D03*
X51100000Y-88250000D03*
X37900000Y-90250000D03*
X40600000Y-90250000D03*
D25*
X46500000Y-82350000D03*
X46500000Y-79650000D03*
D24*
X61350000Y-91250000D03*
X58650000Y-91250000D03*
D25*
X63500000Y-86400000D03*
X63500000Y-89100000D03*
D24*
X55900000Y-80750000D03*
X58600000Y-80750000D03*
X66400000Y-81750000D03*
X69100000Y-81750000D03*
X55900000Y-83750000D03*
X58600000Y-83750000D03*
D25*
X64500000Y-76100000D03*
X64500000Y-73400000D03*
X79200000Y-68250000D03*
X79200000Y-70950000D03*
D24*
X75850000Y-80550000D03*
X78550000Y-80550000D03*
X90050000Y-71450000D03*
X92750000Y-71450000D03*
X87700000Y-82850000D03*
X90400000Y-82850000D03*
X62850000Y-100000000D03*
X60150000Y-100000000D03*
X51850000Y-99250000D03*
X49150000Y-99250000D03*
X21350000Y-102250000D03*
X18650000Y-102250000D03*
X10850000Y-101000000D03*
X8150000Y-101000000D03*
D26*
X57127020Y-26721720D03*
D27*
X57127020Y-27222100D03*
X57127020Y-27722480D03*
X57127020Y-28222860D03*
D26*
X57127020Y-28720700D03*
X57127020Y-29221080D03*
X57127020Y-29718920D03*
X57127020Y-30219300D03*
D27*
X57127020Y-30717140D03*
X57127020Y-31217520D03*
X57127020Y-31717900D03*
D26*
X57127020Y-32218280D03*
D28*
X55778280Y-33567020D03*
D29*
X55277900Y-33567020D03*
X54777520Y-33567020D03*
X54277140Y-33567020D03*
D28*
X53779300Y-33567020D03*
X53278920Y-33567020D03*
X52781080Y-33567020D03*
X52280700Y-33567020D03*
D29*
X51782860Y-33567020D03*
X51282480Y-33567020D03*
X50782100Y-33567020D03*
D28*
X50281720Y-33567020D03*
D26*
X48932980Y-26721720D03*
D27*
X48932980Y-27222100D03*
X48932980Y-27722480D03*
X48932980Y-28222860D03*
D26*
X48932980Y-28720700D03*
X48932980Y-29221080D03*
X48932980Y-29718920D03*
X48932980Y-30219300D03*
D27*
X48932980Y-30717140D03*
X48932980Y-31217520D03*
X48932980Y-31717900D03*
D26*
X48932980Y-32218280D03*
D28*
X55778280Y-25372980D03*
D29*
X55277900Y-25372980D03*
X54777520Y-25372980D03*
X54277140Y-25372980D03*
D28*
X53779300Y-25372980D03*
X53278920Y-25372980D03*
X52781080Y-25372980D03*
X52280700Y-25372980D03*
D29*
X51782860Y-25372980D03*
X51282480Y-25372980D03*
X50782100Y-25372980D03*
D28*
X50281720Y-25372980D03*
D30*
X32405000Y-63050000D03*
X31135000Y-63050000D03*
X29865000Y-63050000D03*
X28595000Y-63050000D03*
X28595000Y-68450000D03*
X29865000Y-68450000D03*
X31135000Y-68450000D03*
X32405000Y-68450000D03*
X80255000Y-89950000D03*
X78985000Y-89950000D03*
X77715000Y-89950000D03*
X76445000Y-89950000D03*
X76445000Y-95350000D03*
X77715000Y-95350000D03*
X78985000Y-95350000D03*
X80255000Y-95350000D03*
X98555000Y-89700000D03*
X97285000Y-89700000D03*
X96015000Y-89700000D03*
X94745000Y-89700000D03*
X94745000Y-95100000D03*
X96015000Y-95100000D03*
X97285000Y-95100000D03*
X98555000Y-95100000D03*
X10095000Y-76200000D03*
X11365000Y-76200000D03*
X12635000Y-76200000D03*
X13905000Y-76200000D03*
X13905000Y-70800000D03*
X12635000Y-70800000D03*
X11365000Y-70800000D03*
X10095000Y-70800000D03*
X25345000Y-89200000D03*
X26615000Y-89200000D03*
X27885000Y-89200000D03*
X29155000Y-89200000D03*
X29155000Y-83800000D03*
X27885000Y-83800000D03*
X26615000Y-83800000D03*
X25345000Y-83800000D03*
X42595000Y-90200000D03*
X43865000Y-90200000D03*
X45135000Y-90200000D03*
X46405000Y-90200000D03*
X46405000Y-84800000D03*
X45135000Y-84800000D03*
X43865000Y-84800000D03*
X42595000Y-84800000D03*
X60595000Y-83950000D03*
X61865000Y-83950000D03*
X63135000Y-83950000D03*
X64405000Y-83950000D03*
X64405000Y-78550000D03*
X63135000Y-78550000D03*
X61865000Y-78550000D03*
X60595000Y-78550000D03*
D31*
X81050000Y-76755000D03*
X81050000Y-75485000D03*
X81050000Y-74215000D03*
X81050000Y-72945000D03*
X75650000Y-72945000D03*
X75650000Y-74215000D03*
X75650000Y-75485000D03*
X75650000Y-76755000D03*
X93000000Y-79055000D03*
X93000000Y-77785000D03*
X93000000Y-76515000D03*
X93000000Y-75245000D03*
X87600000Y-75245000D03*
X87600000Y-76515000D03*
X87600000Y-77785000D03*
X87600000Y-79055000D03*
D32*
X64949380Y-28750880D03*
X64949380Y-32449120D03*
X67250620Y-32449120D03*
X67250620Y-28750880D03*
D33*
X84550000Y-12899240D03*
X82650000Y-12899240D03*
X83600000Y-14898220D03*
X44400000Y-15250760D03*
X46300000Y-15250760D03*
X45350000Y-13251780D03*
D34*
X42075000Y-70150000D03*
X42075000Y-70800000D03*
X42075000Y-71450000D03*
X42075000Y-72100000D03*
X46475000Y-72100000D03*
X46475000Y-71450000D03*
X46475000Y-70800000D03*
X46475000Y-70150000D03*
D31*
X88850000Y-30695000D03*
X88850000Y-31965000D03*
X88850000Y-33235000D03*
X88850000Y-34505000D03*
X94250000Y-34505000D03*
X94250000Y-33235000D03*
X94250000Y-31965000D03*
X94250000Y-30695000D03*
D34*
X32350000Y-55650000D03*
X32350000Y-56300000D03*
X32350000Y-56950000D03*
X32350000Y-57600000D03*
X32350000Y-58250000D03*
X32350000Y-58900000D03*
X32350000Y-59550000D03*
X38250000Y-59550000D03*
X38250000Y-58900000D03*
X38250000Y-58250000D03*
X38250000Y-57600000D03*
X38250000Y-56950000D03*
X38250000Y-56300000D03*
X38250000Y-55650000D03*
D31*
X109100000Y-26695000D03*
X109100000Y-27965000D03*
X109100000Y-29235000D03*
X109100000Y-30505000D03*
X114500000Y-30505000D03*
X114500000Y-29235000D03*
X114500000Y-27965000D03*
X114500000Y-26695000D03*
X66500000Y-63645000D03*
X66500000Y-64915000D03*
X66500000Y-66185000D03*
X66500000Y-67455000D03*
X71900000Y-67455000D03*
X71900000Y-66185000D03*
X71900000Y-64915000D03*
X71900000Y-63645000D03*
X79700000Y-57445000D03*
X79700000Y-58715000D03*
X79700000Y-59985000D03*
X79700000Y-61255000D03*
X85100000Y-61255000D03*
X85100000Y-59985000D03*
X85100000Y-58715000D03*
X85100000Y-57445000D03*
X92300000Y-61395000D03*
X92300000Y-62665000D03*
X92300000Y-63935000D03*
X92300000Y-65205000D03*
X97700000Y-65205000D03*
X97700000Y-63935000D03*
X97700000Y-62665000D03*
X97700000Y-61395000D03*
X102850000Y-74345000D03*
X102850000Y-75615000D03*
X102850000Y-76885000D03*
X102850000Y-78155000D03*
X108250000Y-78155000D03*
X108250000Y-76885000D03*
X108250000Y-75615000D03*
X108250000Y-74345000D03*
D30*
X12845000Y-103950000D03*
X14115000Y-103950000D03*
X15385000Y-103950000D03*
X16655000Y-103950000D03*
X16655000Y-98550000D03*
X15385000Y-98550000D03*
X14115000Y-98550000D03*
X12845000Y-98550000D03*
X54095000Y-102450000D03*
X55365000Y-102450000D03*
X56635000Y-102450000D03*
X57905000Y-102450000D03*
X57905000Y-97050000D03*
X56635000Y-97050000D03*
X55365000Y-97050000D03*
X54095000Y-97050000D03*
D35*
X35250000Y-12959000D03*
X32710000Y-12959000D03*
X32710000Y-10960020D03*
X35250000Y-10960020D03*
D36*
X39979480Y-8260000D03*
X27980520Y-8260000D03*
D11*
X81500000Y-38500000D03*
X84000000Y-38500000D03*
D13*
X75150000Y-33600000D03*
D14*
X80150000Y-33600000D03*
D12*
X89450000Y-38900000D03*
X89450000Y-36400000D03*
D13*
X88850000Y-45350000D03*
D14*
X93850000Y-45350000D03*
D11*
X114400000Y-38300000D03*
X116900000Y-38300000D03*
D13*
X117150000Y-44500000D03*
D14*
X112150000Y-44500000D03*
D12*
X106250000Y-46850000D03*
X106250000Y-44350000D03*
D13*
X116650000Y-55400000D03*
D14*
X111650000Y-55400000D03*
D37*
X20000000Y-9200000D03*
D38*
X22540000Y-9200000D03*
D20*
X39060000Y-37090000D03*
D21*
X41600000Y-37090000D03*
X44140000Y-37090000D03*
D12*
X48400000Y-24450000D03*
X48400000Y-21950000D03*
X57800000Y-34350000D03*
X57800000Y-36850000D03*
D11*
X48250000Y-34200000D03*
X45750000Y-34200000D03*
D12*
X61750000Y-26000000D03*
X61750000Y-23500000D03*
X46000000Y-24450000D03*
X46000000Y-21950000D03*
D39*
X14550000Y-49000000D03*
X18550000Y-49000000D03*
X14500000Y-31400000D03*
X18500000Y-31400000D03*
D12*
X18550000Y-51250000D03*
X18550000Y-53750000D03*
X18500000Y-33650000D03*
X18500000Y-36150000D03*
D31*
X6650000Y-48395000D03*
X6650000Y-49665000D03*
X6650000Y-50935000D03*
X6650000Y-52205000D03*
X12050000Y-52205000D03*
X12050000Y-50935000D03*
X12050000Y-49665000D03*
X12050000Y-48395000D03*
X6600000Y-30695000D03*
X6600000Y-31965000D03*
X6600000Y-33235000D03*
X6600000Y-34505000D03*
X12000000Y-34505000D03*
X12000000Y-33235000D03*
X12000000Y-31965000D03*
X12000000Y-30695000D03*
D40*
X72750000Y-24900000D03*
X72750000Y-28900000D03*
D39*
X81550000Y-41200000D03*
X85550000Y-41200000D03*
X107700000Y-38300000D03*
X111700000Y-38300000D03*
D40*
X108500000Y-42900000D03*
X108500000Y-46900000D03*
D11*
X13750000Y-39700000D03*
X16250000Y-39700000D03*
D24*
X16450000Y-44400000D03*
X13750000Y-44400000D03*
X16450000Y-42200000D03*
X13750000Y-42200000D03*
D31*
X6100000Y-40195000D03*
X6100000Y-41465000D03*
X6100000Y-42735000D03*
X6100000Y-44005000D03*
X11500000Y-44005000D03*
X11500000Y-42735000D03*
X11500000Y-41465000D03*
X11500000Y-40195000D03*
D24*
X79700000Y-99550000D03*
X82400000Y-99550000D03*
X98200000Y-98950000D03*
X100900000Y-98950000D03*
X52500000Y-69500000D03*
X49800000Y-69500000D03*
X52500000Y-71500000D03*
X49800000Y-71500000D03*
X52500000Y-73500000D03*
X49800000Y-73500000D03*
X72150000Y-57000000D03*
X74850000Y-57000000D03*
X69950000Y-57050000D03*
X67250000Y-57050000D03*
X82050000Y-55100000D03*
X84750000Y-55100000D03*
X68850000Y-61450000D03*
X71550000Y-61450000D03*
D25*
X93800000Y-53350000D03*
X93800000Y-56050000D03*
X91500000Y-53300000D03*
X91500000Y-56000000D03*
D24*
X105300000Y-72300000D03*
X108000000Y-72300000D03*
X94800000Y-59050000D03*
X97500000Y-59050000D03*
D11*
X29750000Y-71000000D03*
X32250000Y-71000000D03*
X77200000Y-97700000D03*
X79700000Y-97700000D03*
X95450000Y-97200000D03*
X97950000Y-97200000D03*
D24*
X47400000Y-103750000D03*
X50100000Y-103750000D03*
X62600000Y-97000000D03*
X59900000Y-97000000D03*
X7400000Y-104500000D03*
X10100000Y-104500000D03*
X21350000Y-98500000D03*
X18650000Y-98500000D03*
D41*
X112500000Y-89500000D03*
X7500000Y-7000000D03*
X112500000Y-7000000D03*
X7500000Y-89500000D03*
D25*
X30650000Y-53900000D03*
X30650000Y-51200000D03*
X38950000Y-53750000D03*
X38950000Y-51050000D03*
D42*
X35481140Y-19350640D03*
X34980760Y-19350640D03*
X34480380Y-19350640D03*
X33980000Y-19350640D03*
X33479620Y-19350640D03*
X32979240Y-19350640D03*
X32478860Y-19350640D03*
D43*
X31480640Y-20348860D03*
X31480640Y-20849240D03*
X31480640Y-21349620D03*
X31480640Y-21850000D03*
X31480640Y-22350380D03*
X31480640Y-22850760D03*
X31480640Y-23351140D03*
D42*
X32478860Y-24349360D03*
X32979240Y-24349360D03*
X33479620Y-24349360D03*
X33980000Y-24349360D03*
X34480380Y-24349360D03*
X34980760Y-24349360D03*
X35481140Y-24349360D03*
D43*
X36479360Y-23351140D03*
X36479360Y-22850760D03*
X36479360Y-22350380D03*
X36479360Y-21850000D03*
X36479360Y-21349620D03*
X36479360Y-20849240D03*
X36479360Y-20348860D03*
D44*
X33980000Y-21850000D03*
D45*
X33980000Y-21850000D03*
M02*
