M48
;DRILL file {KiCad (after 2015-may-25 BZR unknown)-product} date 7/20/2015 1:22:12 PM
;FORMAT={-:-/ absolute / metric / decimal}
FMAT,2
METRIC,TZ
T1C0.400
T2C0.800
T3C0.813
T4C1.001
T5C1.016
T6C1.270
T7C1.500
T8C2.000
T9C2.200
T10C2.301
T11C6.096
%
G90
G05
M71
T1
X2.6Y-31.7
X3.85Y-70.45
X4.Y-73.3
X4.35Y-40.05
X4.4Y-41.55
X6.45Y-100.85
X7.75Y-17.
X7.85Y-22.8
X11.15Y-36.95
X12.1Y-63.35
X12.15Y-67.4
X18.55Y-79.15
X18.75Y-83.65
X19.25Y-40.15
X19.3Y-86.25
X19.4Y-41.7
X20.1Y-34.65
X20.1Y-71.1
X20.2Y-73.95
X20.3Y-51.2
X21.9Y-64.7
X22.2Y-74.
X22.25Y-70.5
X22.85Y-102.3
X23.7Y-61.95
X24.2Y-78.65
X25.2Y-19.15
X26.95Y-54.75
X27.05Y-79.85
X28.55Y-53.95
X29.3Y-46.2
X30.05Y-22.1
X30.1Y-20.15
X32.75Y-87.25
X33.05Y-94.05
X33.8Y-53.9
X33.85Y-99.15
X36.6Y-86.75
X37.2Y-83.25
X40.15Y-60.65
X40.15Y-68.25
X40.2Y-46.2
X40.65Y-71.6
X41.Y-67.1
X42.1Y-72.85
X42.15Y-82.05
X42.45Y-43.45
X42.9Y-27.3
X43.Y-29.2
X44.35Y-63.6
X44.8Y-24.4
X46.45Y-63.9
X46.725Y-28.175
X46.8Y-26.925
X46.875Y-25.675
X47.25Y-57.05
X47.7Y-25.95
X47.8Y-99.25
X47.85Y-33.
X48.05Y-67.7
X48.65Y-16.9
X48.825Y-41.2
X49.35Y-53.1
X50.3Y-22.7
X51.Y-62.3
X51.225Y-23.025
X51.325Y-35.025
X51.35Y-36.
X51.7Y-42.15
X52.075Y-65.925
X52.45Y-38.425
X52.45Y-90.95
X52.825Y-43.05
X52.85Y-36.15
X53.4Y-52.4
X53.8Y-80.95
X54.05Y-35.85
X54.125Y-15.275
X54.15Y-22.85
X54.225Y-71.475
X54.5Y-35.05
X54.5Y-78.15
X54.75Y-89.7
X55.1Y-23.05
X55.2Y-35.7
X55.65Y-36.475
X55.725Y-15.075
X56.05Y-22.95
X56.75Y-15.525
X57.05Y-73.65
X58.35Y-71.3
X58.625Y-43.85
X59.15Y-25.5
X59.2Y-26.5
X59.3Y-34.75
X59.7Y-75.95
X59.725Y-32.825
X59.75Y-30.975
X59.9Y-31.85
X60.35Y-14.25
X60.5Y-25.1
X63.05Y-15.125
X64.15Y-15.4
X64.35Y-100.
X64.55Y-102.1
X64.9Y-54.35
X64.9Y-63.45
X66.7Y-70.1
X67.375Y-61.45
X67.75Y-97.15
X68.1Y-87.65
X68.3Y-99.3
X69.65Y-51.05
X70.2Y-91.95
X70.35Y-90.1
X70.6Y-55.3
X70.6Y-81.75
X71.9Y-69.85
X73.3Y-66.05
X75.05Y-71.9
X75.65Y-60.35
X75.7Y-64.3
X76.55Y-56.4
X78.15Y-51.95
X78.3Y-63.7
X78.75Y-53.25
X79.15Y-66.6
X79.9Y-78.95
X80.1Y-80.55
X82.35Y-67.1
X82.5Y-74.1
X83.8Y-63.6
X84.15Y-96.8
X84.25Y-17.725
X86.2Y-93.2
X86.75Y-60.45
X87.1Y-101.8
X87.4Y-54.6
X87.65Y-96.4
X88.Y-91.05
X88.45Y-73.3
X88.5Y-71.25
X88.7Y-59.4
X90.25Y-87.95
X91.85Y-81.45
X91.875Y-15.2
X91.9Y-82.85
X92.2Y-68.4
X93.4Y-94.5
X93.5Y-59.15
X94.75Y-78.95
X95.4Y-56.3
X96.25Y-67.15
X97.35Y-54.8
X97.35Y-77.65
X99.45Y-33.7
X100.Y-13.4
X100.6Y-58.25
X100.65Y-63.8
X101.85Y-80.05
X103.Y-96.05
X104.7Y-92.2
X105.25Y-81.4
X110.45Y-77.6
X112.05Y-74.6
T2
X75.15Y-33.6
X79.05Y-20.45
X79.05Y-25.45
X80.15Y-33.6
X88.85Y-45.35
X93.85Y-45.35
X98.45Y-40.55
X103.45Y-40.55
X111.65Y-55.4
X112.15Y-44.5
X116.65Y-55.4
X117.15Y-44.5
T3
X32.71Y-10.96
X32.71Y-12.959
X35.25Y-10.96
X35.25Y-12.959
T4
X3.25Y-17.21
X3.25Y-19.75
X3.25Y-22.96
X3.25Y-25.5
X10.Y-108.499
X12.499Y-108.499
X29.Y-108.499
X31.499Y-108.499
X48.Y-108.499
X50.499Y-108.499
X67.Y-108.499
X69.499Y-108.499
X86.097Y-30.6
X91.Y-108.499
X93.499Y-108.499
X94.301Y-10.801
X96.8Y-10.801
X104.003Y-24.7
X110.Y-108.499
X112.499Y-108.499
T5
X20.Y-9.2
X22.54Y-9.2
X39.06Y-37.09
X41.6Y-37.09
X44.14Y-37.09
X46.68Y-9.15
X49.22Y-9.15
X51.76Y-9.15
X54.3Y-9.15
X56.84Y-9.15
X59.38Y-9.15
X60.95Y-21.1
X61.92Y-9.15
X64.46Y-9.15
X67.Y-9.15
X69.54Y-9.15
X72.08Y-9.15
X74.62Y-9.15
X77.16Y-9.15
X80.8Y-9.1
X83.34Y-9.1
X85.88Y-9.1
T6
X86.097Y-20.44
X104.003Y-34.86
T7
X93.951Y-24.5
X98.949Y-24.5
X107.601Y-19.7
X112.599Y-19.7
T8
X33.98Y-21.85
T9
X4.9Y-112.763
X15.098Y-112.763
X23.9Y-112.763
X34.098Y-112.763
X42.9Y-112.763
X53.098Y-112.763
X61.9Y-112.763
X72.098Y-112.763
X85.9Y-112.763
X91.702Y-6.537
X96.098Y-112.763
X101.9Y-6.537
X104.9Y-112.763
X115.098Y-112.763
T10
X27.981Y-8.26
X39.979Y-8.26
T11
X7.5Y-7.
X7.5Y-89.5
X112.5Y-7.
X112.5Y-89.5
T0
M30
