G04 #@! TF.FileFunction,Legend,Bot*
%FSLAX46Y46*%
G04 Gerber Fmt 4.6, Leading zero omitted, Abs format (unit mm)*
G04 Created by KiCad (PCBNEW (after 2015-may-25 BZR unknown)-product) date 7/20/2015 1:21:50 PM*
%MOMM*%
G01*
G04 APERTURE LIST*
%ADD10C,0.100000*%
%ADD11R,1.300000X1.300000*%
%ADD12C,1.300000*%
%ADD13R,1.699260X1.699260*%
%ADD14C,1.998980*%
%ADD15R,1.998980X1.998980*%
%ADD16C,2.540000*%
%ADD17R,2.235200X2.235200*%
%ADD18R,1.727200X2.032000*%
%ADD19O,1.727200X2.032000*%
%ADD20O,3.500120X7.000240*%
%ADD21O,1.600200X2.499360*%
%ADD22C,1.524000*%
%ADD23C,2.700020*%
%ADD24R,2.032000X2.032000*%
%ADD25O,2.032000X2.032000*%
%ADD26C,10.160000*%
%ADD27C,3.000000*%
G04 APERTURE END LIST*
D10*
%LPC*%
D11*
X79050000Y-20450000D03*
D12*
X79050000Y-25450000D03*
D11*
X98450000Y-40550000D03*
D12*
X103450000Y-40550000D03*
D13*
X3250000Y-25500000D03*
D14*
X3250000Y-22960000D03*
D13*
X3250000Y-19750000D03*
D14*
X3250000Y-17210000D03*
X86097460Y-20440000D03*
D15*
X86097460Y-30600000D03*
D14*
X104002540Y-34860000D03*
D15*
X104002540Y-24700000D03*
D16*
X98949360Y-24500000D03*
X93950640Y-24500000D03*
X112599360Y-19700000D03*
X107600640Y-19700000D03*
D17*
X60950000Y-21100000D03*
D18*
X77160000Y-9150000D03*
D19*
X74620000Y-9150000D03*
X72080000Y-9150000D03*
X69540000Y-9150000D03*
X67000000Y-9150000D03*
X64460000Y-9150000D03*
X61920000Y-9150000D03*
X59380000Y-9150000D03*
X56840000Y-9150000D03*
X54300000Y-9150000D03*
X51760000Y-9150000D03*
X49220000Y-9150000D03*
X46680000Y-9150000D03*
D20*
X91702220Y-6536600D03*
X101900320Y-6536600D03*
D21*
X96800000Y-10801260D03*
X94300640Y-10801260D03*
D18*
X80800000Y-9100000D03*
D19*
X83340000Y-9100000D03*
X85880000Y-9100000D03*
D20*
X96097780Y-112763400D03*
X85899680Y-112763400D03*
D21*
X91000000Y-108498740D03*
X93499360Y-108498740D03*
D20*
X115097780Y-112763400D03*
X104899680Y-112763400D03*
D21*
X110000000Y-108498740D03*
X112499360Y-108498740D03*
D20*
X15097780Y-112763400D03*
X4899680Y-112763400D03*
D21*
X10000000Y-108498740D03*
X12499360Y-108498740D03*
D20*
X53097780Y-112763400D03*
X42899680Y-112763400D03*
D21*
X48000000Y-108498740D03*
X50499360Y-108498740D03*
D20*
X72097780Y-112763400D03*
X61899680Y-112763400D03*
D21*
X67000000Y-108498740D03*
X69499360Y-108498740D03*
D20*
X34097780Y-112763400D03*
X23899680Y-112763400D03*
D21*
X29000000Y-108498740D03*
X31499360Y-108498740D03*
D22*
X35250000Y-12959000D03*
X32710000Y-12959000D03*
X32710000Y-10960020D03*
X35250000Y-10960020D03*
D23*
X39979480Y-8260000D03*
X27980520Y-8260000D03*
D11*
X75150000Y-33600000D03*
D12*
X80150000Y-33600000D03*
D11*
X88850000Y-45350000D03*
D12*
X93850000Y-45350000D03*
D11*
X117150000Y-44500000D03*
D12*
X112150000Y-44500000D03*
D11*
X116650000Y-55400000D03*
D12*
X111650000Y-55400000D03*
D24*
X20000000Y-9200000D03*
D25*
X22540000Y-9200000D03*
D18*
X39060000Y-37090000D03*
D19*
X41600000Y-37090000D03*
X44140000Y-37090000D03*
D26*
X112500000Y-89500000D03*
X7500000Y-7000000D03*
X112500000Y-7000000D03*
X7500000Y-89500000D03*
D27*
X33980000Y-21850000D03*
M02*
