G04 #@! TF.FileFunction,Copper,L1,Top,Signal*
%FSLAX46Y46*%
G04 Gerber Fmt 4.6, Leading zero omitted, Abs format (unit mm)*
G04 Created by KiCad (PCBNEW (after 2015-may-25 BZR unknown)-product) date 7/2/2015 5:13:15 PM*
%MOMM*%
G01*
G04 APERTURE LIST*
%ADD10C,0.100000*%
%ADD11C,0.099060*%
G04 APERTURE END LIST*
D10*
D11*
X203776580Y-109446060D02*
X204276960Y-109446060D01*
X204276960Y-109446060D02*
X204462380Y-109440980D01*
X204462380Y-109440980D02*
X204645260Y-109428280D01*
X204645260Y-109428280D02*
X204830680Y-109405420D01*
X169377360Y-109446060D02*
X169875200Y-109446060D01*
X168925240Y-109245400D02*
X169377360Y-109446060D01*
X136326880Y-106845100D02*
X136806940Y-106507280D01*
X129006600Y-112047020D02*
X129575560Y-111645700D01*
X129006600Y-112047020D02*
X128577340Y-112047020D01*
X124876560Y-112047020D02*
X124876560Y-111546640D01*
X207975200Y-105247440D02*
X207975200Y-105745280D01*
X159176720Y-104645460D02*
X159826960Y-104945180D01*
X159176720Y-104645460D02*
X159125920Y-104046020D01*
X124876560Y-100446840D02*
X124876560Y-99946460D01*
X207975200Y-95615760D02*
X207975200Y-96095820D01*
X207998060Y-95615760D02*
X207858360Y-95432880D01*
X207858360Y-95432880D02*
X207716120Y-95250000D01*
X207716120Y-95250000D02*
X207573880Y-95069660D01*
X207573880Y-95069660D02*
X207431640Y-94886780D01*
X207431640Y-94886780D02*
X207289400Y-94706440D01*
X207289400Y-94706440D02*
X207144620Y-94526100D01*
X158125160Y-92997020D02*
X158056580Y-92275660D01*
X158056580Y-92275660D02*
X158376620Y-92245180D01*
X127876300Y-96946720D02*
X127375920Y-97447100D01*
X127876300Y-96446340D02*
X127876300Y-96946720D01*
X157787340Y-89286080D02*
X158275020Y-89245440D01*
X157787340Y-89286080D02*
X157777180Y-89047320D01*
X157576520Y-85445600D02*
X157548580Y-85206840D01*
X157548580Y-85206840D02*
X157482540Y-84975700D01*
X157482540Y-84975700D02*
X157380940Y-84757260D01*
X157380940Y-84757260D02*
X157246320Y-84559140D01*
X157246320Y-84559140D02*
X157083760Y-84383880D01*
X157083760Y-84383880D02*
X156893260Y-84236560D01*
X156893260Y-84236560D02*
X156679900Y-84122260D01*
X156679900Y-84122260D02*
X156453840Y-84043520D01*
X156453840Y-84043520D02*
X156217620Y-84002880D01*
X156217620Y-84002880D02*
X155976320Y-84000340D01*
X155976320Y-84000340D02*
X156217620Y-84002880D01*
X156217620Y-84002880D02*
X156453840Y-84043520D01*
X156453840Y-84043520D02*
X156679900Y-84122260D01*
X156679900Y-84122260D02*
X156893260Y-84236560D01*
X156893260Y-84236560D02*
X157083760Y-84383880D01*
X157083760Y-84383880D02*
X157246320Y-84559140D01*
X157246320Y-84559140D02*
X157380940Y-84757260D01*
X157380940Y-84757260D02*
X157482540Y-84975700D01*
X157482540Y-84975700D02*
X157548580Y-85206840D01*
X157548580Y-85206840D02*
X157576520Y-85445600D01*
X136476740Y-85704680D02*
X136230360Y-85750400D01*
X136230360Y-85750400D02*
X135996680Y-85834220D01*
X135996680Y-85834220D02*
X135778240Y-85958680D01*
X135778240Y-85958680D02*
X135585200Y-86118700D01*
X135585200Y-86118700D02*
X135420100Y-86306660D01*
X135420100Y-86306660D02*
X135288020Y-86520020D01*
X135288020Y-86520020D02*
X135194040Y-86751160D01*
X135194040Y-86751160D02*
X135140700Y-86995000D01*
X135140700Y-86995000D02*
X135128000Y-87246460D01*
X135128000Y-87246460D02*
X135140700Y-86995000D01*
X135140700Y-86995000D02*
X135194040Y-86751160D01*
X135194040Y-86751160D02*
X135288020Y-86520020D01*
X135288020Y-86520020D02*
X135420100Y-86306660D01*
X135420100Y-86306660D02*
X135585200Y-86118700D01*
X135585200Y-86118700D02*
X135778240Y-85958680D01*
X135778240Y-85958680D02*
X135996680Y-85834220D01*
X135996680Y-85834220D02*
X136230360Y-85750400D01*
X136230360Y-85750400D02*
X136476740Y-85704680D01*
X188577220Y-78445360D02*
X189075060Y-78445360D01*
X189136020Y-78452980D02*
X189329060Y-78574900D01*
X189329060Y-78574900D02*
X189519560Y-78694280D01*
X189519560Y-78694280D02*
X189710060Y-78816200D01*
X189710060Y-78816200D02*
X189900560Y-78938120D01*
X189900560Y-78938120D02*
X190091060Y-79062580D01*
X165475920Y-78445360D02*
X166276020Y-78445360D01*
X161975800Y-78445360D02*
X162476180Y-78445360D01*
X127876300Y-78445360D02*
X127876300Y-78945740D01*
X127876300Y-78445360D02*
X128176020Y-78445360D01*
X129075180Y-78445360D02*
X129377440Y-78445360D01*
X129377440Y-78445360D02*
X129397760Y-78694280D01*
X129397760Y-78694280D02*
X129458720Y-78933040D01*
X129458720Y-78933040D02*
X129557780Y-79159100D01*
X129557780Y-79159100D02*
X129692400Y-79367380D01*
X129692400Y-79367380D02*
X129860040Y-79550260D01*
X129860040Y-79550260D02*
X130055620Y-79702660D01*
X130055620Y-79702660D02*
X130274060Y-79819500D01*
X130274060Y-79819500D02*
X130507740Y-79900780D01*
X130507740Y-79900780D02*
X130751580Y-79941420D01*
X130751580Y-79941420D02*
X131000500Y-79941420D01*
X131000500Y-79941420D02*
X131244340Y-79900780D01*
X131244340Y-79900780D02*
X131478020Y-79819500D01*
X131478020Y-79819500D02*
X131696460Y-79702660D01*
X131696460Y-79702660D02*
X131892040Y-79550260D01*
X131892040Y-79550260D02*
X132059680Y-79367380D01*
X132059680Y-79367380D02*
X132194300Y-79159100D01*
X132194300Y-79159100D02*
X132295900Y-78933040D01*
X132295900Y-78933040D02*
X132356860Y-78694280D01*
X132356860Y-78694280D02*
X132377180Y-78445360D01*
X132377180Y-78445360D02*
X132356860Y-78694280D01*
X132356860Y-78694280D02*
X132295900Y-78933040D01*
X132295900Y-78933040D02*
X132194300Y-79159100D01*
X132194300Y-79159100D02*
X132059680Y-79367380D01*
X132059680Y-79367380D02*
X131892040Y-79550260D01*
X131892040Y-79550260D02*
X131696460Y-79702660D01*
X131696460Y-79702660D02*
X131478020Y-79819500D01*
X131478020Y-79819500D02*
X131244340Y-79900780D01*
X131244340Y-79900780D02*
X131000500Y-79941420D01*
X131000500Y-79941420D02*
X130751580Y-79941420D01*
X130751580Y-79941420D02*
X130507740Y-79900780D01*
X130507740Y-79900780D02*
X130274060Y-79819500D01*
X130274060Y-79819500D02*
X130055620Y-79702660D01*
X130055620Y-79702660D02*
X129860040Y-79550260D01*
X129860040Y-79550260D02*
X129692400Y-79367380D01*
X129692400Y-79367380D02*
X129557780Y-79159100D01*
X129557780Y-79159100D02*
X129458720Y-78933040D01*
X129458720Y-78933040D02*
X129397760Y-78694280D01*
X129397760Y-78694280D02*
X129377440Y-78445360D01*
X125376940Y-112047020D02*
X124876560Y-112047020D01*
X125227080Y-99595940D02*
X124876560Y-99946460D01*
X162476180Y-78445360D02*
X162496500Y-78694280D01*
X162496500Y-78694280D02*
X162557460Y-78933040D01*
X162557460Y-78933040D02*
X162656520Y-79159100D01*
X162656520Y-79159100D02*
X162793680Y-79367380D01*
X162793680Y-79367380D02*
X162961320Y-79550260D01*
X162961320Y-79550260D02*
X163156900Y-79702660D01*
X163156900Y-79702660D02*
X163372800Y-79819500D01*
X163372800Y-79819500D02*
X163609020Y-79900780D01*
X163609020Y-79900780D02*
X163852860Y-79941420D01*
X163852860Y-79941420D02*
X164099240Y-79941420D01*
X164099240Y-79941420D02*
X164345620Y-79900780D01*
X164345620Y-79900780D02*
X164579300Y-79819500D01*
X164579300Y-79819500D02*
X164797740Y-79702660D01*
X164797740Y-79702660D02*
X164993320Y-79550260D01*
X164993320Y-79550260D02*
X165160960Y-79367380D01*
X165160960Y-79367380D02*
X165295580Y-79159100D01*
X165295580Y-79159100D02*
X165394640Y-78933040D01*
X165394640Y-78933040D02*
X165455600Y-78694280D01*
X165455600Y-78694280D02*
X165475920Y-78445360D01*
X165475920Y-78445360D02*
X165455600Y-78694280D01*
X165455600Y-78694280D02*
X165394640Y-78933040D01*
X165394640Y-78933040D02*
X165295580Y-79159100D01*
X165295580Y-79159100D02*
X165160960Y-79367380D01*
X165160960Y-79367380D02*
X164993320Y-79550260D01*
X164993320Y-79550260D02*
X164797740Y-79702660D01*
X164797740Y-79702660D02*
X164579300Y-79819500D01*
X164579300Y-79819500D02*
X164345620Y-79900780D01*
X164345620Y-79900780D02*
X164099240Y-79941420D01*
X164099240Y-79941420D02*
X163852860Y-79941420D01*
X163852860Y-79941420D02*
X163609020Y-79900780D01*
X163609020Y-79900780D02*
X163372800Y-79819500D01*
X163372800Y-79819500D02*
X163156900Y-79702660D01*
X163156900Y-79702660D02*
X162961320Y-79550260D01*
X162961320Y-79550260D02*
X162793680Y-79367380D01*
X162793680Y-79367380D02*
X162656520Y-79159100D01*
X162656520Y-79159100D02*
X162557460Y-78933040D01*
X162557460Y-78933040D02*
X162496500Y-78694280D01*
X162496500Y-78694280D02*
X162476180Y-78445360D01*
X132377180Y-78445360D02*
X132875020Y-78445360D01*
X207975200Y-105745280D02*
X207972660Y-105930700D01*
X207972660Y-105930700D02*
X207957420Y-106116120D01*
X207957420Y-106116120D02*
X207934560Y-106299000D01*
X159605980Y-92141040D02*
X159852360Y-92097860D01*
X159852360Y-92097860D02*
X160086040Y-92016580D01*
X160086040Y-92016580D02*
X160301940Y-91897200D01*
X160301940Y-91897200D02*
X160497520Y-91744800D01*
X160497520Y-91744800D02*
X160665160Y-91561920D01*
X160665160Y-91561920D02*
X160799780Y-91353640D01*
X160799780Y-91353640D02*
X160896300Y-91127580D01*
X160896300Y-91127580D02*
X160957260Y-90886280D01*
X160957260Y-90886280D02*
X160975040Y-90639900D01*
X160975040Y-90639900D02*
X160954720Y-90393520D01*
X160954720Y-90393520D02*
X160893760Y-90152220D01*
X160893760Y-90152220D02*
X160792160Y-89926160D01*
X160792160Y-89926160D02*
X160655000Y-89720420D01*
X160655000Y-89720420D02*
X160487360Y-89537540D01*
X160487360Y-89537540D02*
X160291780Y-89387680D01*
X160291780Y-89387680D02*
X160073340Y-89270840D01*
X160073340Y-89270840D02*
X159837120Y-89189560D01*
X159837120Y-89189560D02*
X159593280Y-89151460D01*
X159593280Y-89151460D02*
X159344360Y-89151460D01*
X159344360Y-89151460D02*
X159593280Y-89151460D01*
X159593280Y-89151460D02*
X159837120Y-89189560D01*
X159837120Y-89189560D02*
X160073340Y-89270840D01*
X160073340Y-89270840D02*
X160291780Y-89387680D01*
X160291780Y-89387680D02*
X160487360Y-89537540D01*
X160487360Y-89537540D02*
X160655000Y-89720420D01*
X160655000Y-89720420D02*
X160792160Y-89926160D01*
X160792160Y-89926160D02*
X160893760Y-90152220D01*
X160893760Y-90152220D02*
X160954720Y-90393520D01*
X160954720Y-90393520D02*
X160975040Y-90639900D01*
X160975040Y-90639900D02*
X160957260Y-90886280D01*
X160957260Y-90886280D02*
X160896300Y-91127580D01*
X160896300Y-91127580D02*
X160799780Y-91353640D01*
X160799780Y-91353640D02*
X160665160Y-91561920D01*
X160665160Y-91561920D02*
X160497520Y-91744800D01*
X160497520Y-91744800D02*
X160301940Y-91897200D01*
X160301940Y-91897200D02*
X160086040Y-92016580D01*
X160086040Y-92016580D02*
X159852360Y-92097860D01*
X159852360Y-92097860D02*
X159605980Y-92141040D01*
X136806940Y-106507280D02*
X136776460Y-105945940D01*
M02*
