<?xml version="1.0" encoding="UTF-8" standalone="no"?>
<svg
   xmlns:dc="http://purl.org/dc/elements/1.1/"
   xmlns:cc="http://creativecommons.org/ns#"
   xmlns:rdf="http://www.w3.org/1999/02/22-rdf-syntax-ns#"
   xmlns:svg="http://www.w3.org/2000/svg"
   xmlns="http://www.w3.org/2000/svg"
   xmlns:sodipodi="http://sodipodi.sourceforge.net/DTD/sodipodi-0.dtd"
   xmlns:inkscape="http://www.inkscape.org/namespaces/inkscape"
   version="1.1"
   width="3.60934cm"
   height="3.28168cm"
   viewBox="0 0 14210 12920 "
   id="svg2"
   inkscape:version="0.48.4 r9939"
   sodipodi:docname="relay-board-B_Cu.svg">
  <metadata
     id="metadata488">
    <rdf:RDF>
      <cc:Work
         rdf:about="">
        <dc:format>image/svg+xml</dc:format>
        <dc:type
           rdf:resource="http://purl.org/dc/dcmitype/StillImage" />
      </cc:Work>
    </rdf:RDF>
  </metadata>
  <defs
     id="defs486" />
  <sodipodi:namedview
     pagecolor="#ffffff"
     bordercolor="#666666"
     borderopacity="1"
     objecttolerance="10"
     gridtolerance="10"
     guidetolerance="10"
     inkscape:pageopacity="0"
     inkscape:pageshadow="2"
     inkscape:window-width="1858"
     inkscape:window-height="1058"
     id="namedview484"
     showgrid="false"
     inkscape:zoom="5.7405294"
     inkscape:cx="94.066471"
     inkscape:cy="87.190338"
     inkscape:window-x="54"
     inkscape:window-y="-8"
     inkscape:window-maximized="1"
     inkscape:current-layer="svg2" />
  <title
     id="title4">SVG Picture created as relay-board-B_Cu.svg date 2015/08/21 09:51:24 </title>
  <desc
     id="desc6">Picture generated by PCBNEW </desc>
  <g
     style="fill:#000000; fill-opacity:1;stroke:#000000; stroke-opacity:1; stroke-linecap:round; stroke-linejoin:round; "
     transform="translate(0 0) scale(1 1)"
     id="g8" />
  <g
     style="fill:#000000; fill-opacity:0.0;  stroke:#000000; stroke-width:0; stroke-opacity:1;  stroke-linecap:round; stroke-linejoin:round;"
     id="g22" />
  <g
     style="fill:#000000; fill-opacity:1.0;  stroke:#000000; stroke-width:39.3701; stroke-opacity:1;  stroke-linecap:round; stroke-linejoin:round;"
     id="g30" />
  <g
     style="fill:#000000; fill-opacity:1.0;  stroke:#000000; stroke-width:39.3701; stroke-opacity:1;  stroke-linecap:round; stroke-linejoin:round;"
     id="g38" />
  <g
     style="fill:#000000; fill-opacity:1.0;  stroke:#000000; stroke-width:680; stroke-opacity:1;  stroke-linecap:round; stroke-linejoin:round;"
     id="g44" />
  <g
     style="fill:#000000; fill-opacity:0.0;  stroke:#000000; stroke-width:0; stroke-opacity:1;  stroke-linecap:round; stroke-linejoin:round;"
     id="g52" />
  <g
     style="fill:#000000; fill-opacity:1.0;  stroke:#000000; stroke-width:39.3701; stroke-opacity:1;  stroke-linecap:round; stroke-linejoin:round;"
     id="g88" />
  <g
     style="fill:#000000; fill-opacity:1.0;  stroke:#000000; stroke-width:39.3701; stroke-opacity:1;  stroke-linecap:round; stroke-linejoin:round;"
     id="g94" />
  <g
     style="fill:#000000; fill-opacity:1.0;  stroke:#000000; stroke-width:39.3701; stroke-opacity:1;  stroke-linecap:round; stroke-linejoin:round;"
     id="g100" />
  <g
     style="fill:#000000; fill-opacity:1.0;  stroke:#000000; stroke-width:39.3701; stroke-opacity:1;  stroke-linecap:round; stroke-linejoin:round;"
     id="g106" />
  <g
     style="fill:#000000; fill-opacity:1.0;  stroke:#000000; stroke-width:39.3701; stroke-opacity:1;  stroke-linecap:round; stroke-linejoin:round;"
     id="g112" />
  <g
     style="fill:#000000; fill-opacity:1.0;  stroke:#000000; stroke-width:39.3701; stroke-opacity:1;  stroke-linecap:round; stroke-linejoin:round;"
     id="g118" />
  <g
     style="fill:#000000; fill-opacity:1.0;  stroke:#000000; stroke-width:39.3701; stroke-opacity:1;  stroke-linecap:round; stroke-linejoin:round;"
     id="g124" />
  <g
     style="fill:#000000; fill-opacity:1.0;  stroke:#000000; stroke-width:39.3701; stroke-opacity:1;  stroke-linecap:round; stroke-linejoin:round;"
     id="g130" />
  <g
     style="fill:#000000; fill-opacity:1.0;  stroke:#000000; stroke-width:314.961; stroke-opacity:1;  stroke-linecap:round; stroke-linejoin:round;"
     id="g146" />
  <g
     style="fill:#FFFFFF; fill-opacity:1.0;  stroke:#FFFFFF; stroke-width:39.3701; stroke-opacity:1;  stroke-linecap:round; stroke-linejoin:round;"
     id="g356" />
  <g
     style="fill:#FFFFFF; fill-opacity:1.0;  stroke:#FFFFFF; stroke-width:39.3701; stroke-opacity:1;  stroke-linecap:round; stroke-linejoin:round;"
     id="g362" />
  <g
     style="fill:#FFFFFF; fill-opacity:1.0;  stroke:#FFFFFF; stroke-width:39.3701; stroke-opacity:1;  stroke-linecap:round; stroke-linejoin:round;"
     id="g368" />
  <g
     style="fill:#FFFFFF; fill-opacity:1.0;  stroke:#FFFFFF; stroke-width:39.3701; stroke-opacity:1;  stroke-linecap:round; stroke-linejoin:round;"
     id="g374" />
  <g
     style="fill:#FFFFFF; fill-opacity:1.0;  stroke:#FFFFFF; stroke-width:39.3701; stroke-opacity:1;  stroke-linecap:round; stroke-linejoin:round;"
     id="g380" />
  <g
     style="fill:#FFFFFF; fill-opacity:1.0;  stroke:#FFFFFF; stroke-width:39.3701; stroke-opacity:1;  stroke-linecap:round; stroke-linejoin:round;"
     id="g386" />
  <g
     style="fill:#FFFFFF; fill-opacity:1.0;  stroke:#FFFFFF; stroke-width:39.3701; stroke-opacity:1;  stroke-linecap:round; stroke-linejoin:round;"
     id="g392" />
  <g
     style="fill:#FFFFFF; fill-opacity:1.0;  stroke:#FFFFFF; stroke-width:39.3701; stroke-opacity:1;  stroke-linecap:round; stroke-linejoin:round;"
     id="g398" />
  <g
     style="fill:#FFFFFF; fill-opacity:1.0;  stroke:#FFFFFF; stroke-width:39.3701; stroke-opacity:1;  stroke-linecap:round; stroke-linejoin:round;"
     id="g404" />
  <g
     style="fill:#FFFFFF; fill-opacity:1.0;  stroke:#FFFFFF; stroke-width:39.3701; stroke-opacity:1;  stroke-linecap:round; stroke-linejoin:round;"
     id="g410" />
  <g
     style="fill:#FFFFFF; fill-opacity:1.0;  stroke:#FFFFFF; stroke-width:39.3701; stroke-opacity:1;  stroke-linecap:round; stroke-linejoin:round;"
     id="g416" />
  <g
     style="fill:#FFFFFF; fill-opacity:1.0;  stroke:#FFFFFF; stroke-width:39.3701; stroke-opacity:1;  stroke-linecap:round; stroke-linejoin:round;"
     id="g422" />
  <g
     style="fill:#FFFFFF; fill-opacity:1.0;  stroke:#FFFFFF; stroke-width:39.3701; stroke-opacity:1;  stroke-linecap:round; stroke-linejoin:round;"
     id="g428" />
  <g
     style="fill:#FFFFFF; fill-opacity:1.0;  stroke:#FFFFFF; stroke-width:39.3701; stroke-opacity:1;  stroke-linecap:round; stroke-linejoin:round;"
     id="g434" />
  <g
     style="fill:#FFFFFF; fill-opacity:1.0;  stroke:#FFFFFF; stroke-width:39.3701; stroke-opacity:1;  stroke-linecap:round; stroke-linejoin:round;"
     id="g440" />
  <g
     style="fill:#FFFFFF; fill-opacity:1.0;  stroke:#FFFFFF; stroke-width:39.3701; stroke-opacity:1;  stroke-linecap:round; stroke-linejoin:round;"
     id="g446" />
  <g
     style="fill:#FFFFFF; fill-opacity:1.0;  stroke:#FFFFFF; stroke-width:39.3701; stroke-opacity:1;  stroke-linecap:round; stroke-linejoin:round;"
     id="g452" />
  <g
     style="fill:#FFFFFF; fill-opacity:1.0;  stroke:#FFFFFF; stroke-width:39.3701; stroke-opacity:1;  stroke-linecap:round; stroke-linejoin:round;"
     id="g458" />
  <g
     style="fill:#FFFFFF; fill-opacity:1.0;  stroke:#FFFFFF; stroke-width:39.3701; stroke-opacity:1;  stroke-linecap:round; stroke-linejoin:round;"
     id="g464" />
  <g
     style="fill:#FFFFFF; fill-opacity:1.0;  stroke:#FFFFFF; stroke-width:39.3701; stroke-opacity:1;  stroke-linecap:round; stroke-linejoin:round;"
     id="g470" />
  <g
     style="fill:#FFFFFF; fill-opacity:1.0;  stroke:#FFFFFF; stroke-width:39.3701; stroke-opacity:1;  stroke-linecap:round; stroke-linejoin:round;"
     id="g476" />
  <g
     style="fill:#FFFFFF; fill-opacity:1.0;  stroke:#FFFFFF; stroke-width:39.3701; stroke-opacity:1;  stroke-linecap:round; stroke-linejoin:round;"
     id="g482" />
  <g
     id="g3828">
    <g
       id="g3465">
      <g
         style="fill:#000000; fill-opacity:0.0;  stroke:#000000; stroke-width:39.3701; stroke-opacity:1;  stroke-linecap:round; stroke-linejoin:round;"
         id="g10">
        <path
           d="M19 10649 L19 19 "
           id="path12" />
        <path
           d="M14192 10649 L19 10649 "
           id="path14" />
        <path
           d="M14192 19 L14192 10649 "
           id="path16" />
        <path
           d="M13602 19 L14192 19 "
           id="path18" />
        <path
           d="M19 19 L13602 19 "
           id="path20" />
      </g>
      <g
         style="fill:#000000; fill-opacity:1.0;  stroke:#000000; stroke-width:0; stroke-opacity:1;  stroke-linecap:round; stroke-linejoin:round;"
         id="g24">
        <polyline
           style="fill-rule:evenodd;"
           points="8440,7028 8440,7578 7890,7578 7890,7028 8440,7028 "
           id="polyline26" />
        <circle
           cx="11165.4"
           cy="7303.15"
           r="275"
           id="circle28" />
      </g>
      <g
         style="fill:#000000; fill-opacity:1.0;  stroke:#000000; stroke-width:0; stroke-opacity:1;  stroke-linecap:round; stroke-linejoin:round;"
         id="g32">
        <polyline
           style="fill-rule:evenodd;"
           points="8341,1024 8341,1574 7791,1574 7791,1024 8341,1024 "
           id="polyline34" />
        <circle
           cx="11066.9"
           cy="1299.21"
           r="275"
           id="circle36" />
      </g>
      <g
         style="fill:#000000; fill-opacity:1.0;  stroke:#000000; stroke-width:0; stroke-opacity:1;  stroke-linecap:round; stroke-linejoin:round;"
         id="g40">
        <polyline
           style="fill-rule:evenodd;"
           points="2917,8241 3597,8241 3597,9041 2917,9041 2917,8241 "
           id="polyline42" />
      </g>
      <g
         style="fill:#000000; fill-opacity:0.0;  stroke:#000000; stroke-width:680; stroke-opacity:1;  stroke-linecap:round; stroke-linejoin:round;"
         id="g46">
        <path
           d="M2257 8581 L2257 8701 "
           id="path48" />
        <path
           d="M1257 8581 L1257 8701 "
           id="path50" />
      </g>
      <g
         style="fill:#000000; fill-opacity:1.0;  stroke:#000000; stroke-width:0; stroke-opacity:1;  stroke-linecap:round; stroke-linejoin:round;"
         id="g54">
        <polyline
           style="fill-rule:evenodd;"
           points="662,6562 662,5682 1542,5682 1542,6562 662,6562 "
           id="polyline56" />
        <polyline
           style="fill-rule:evenodd;"
           points="760,4121 760,3241 1640,3241 1640,4121 760,4121 "
           id="polyline58" />
        <polyline
           style="fill-rule:evenodd;"
           points="760,2152 760,1272 1640,1272 1640,2152 760,2152 "
           id="polyline60" />
        <polyline
           style="fill-rule:evenodd;"
           points="3122,4101 3122,3221 4002,3221 4002,4101 3122,4101 "
           id="polyline62" />
        <polyline
           style="fill-rule:evenodd;"
           points="12374,10125 12374,9245 13254,9245 13254,10125 12374,10125 "
           id="polyline64" />
        <polyline
           style="fill-rule:evenodd;"
           points="10603,10115 10603,9235 11483,9235 11483,10115 10603,10115 "
           id="polyline66" />
        <polyline
           style="fill-rule:evenodd;"
           points="3122,2132 3122,1252 4002,1252 4002,2132 3122,2132 "
           id="polyline68" />
        <polyline
           style="fill-rule:evenodd;"
           points="5994,8366 5994,8877 5403,8877 5403,8366 5994,8366 "
           id="polyline70" />
        <polyline
           style="fill-rule:evenodd;"
           points="4931,8366 4931,8877 4340,8877 4340,8366 4931,8366 "
           id="polyline72" />
        <polyline
           style="fill-rule:evenodd;"
           points="4212,5688 4212,5177 4803,5177 4803,5688 4212,5688 "
           id="polyline74" />
        <polyline
           style="fill-rule:evenodd;"
           points="5275,5688 5275,5177 5866,5177 5866,5688 5275,5688 "
           id="polyline76" />
        <polyline
           style="fill-rule:evenodd;"
           points="3641,7332 3641,7844 3051,7844 3051,7332 3641,7332 "
           id="polyline78" />
        <polyline
           style="fill-rule:evenodd;"
           points="2578,7332 2578,7844 1988,7844 1988,7332 2578,7332 "
           id="polyline80" />
        <polyline
           style="fill-rule:evenodd;"
           points="4311,3326 4311,2814 4901,2814 4901,3326 4311,3326 "
           id="polyline82" />
        <polyline
           style="fill-rule:evenodd;"
           points="5374,3326 5374,2814 5964,2814 5964,3326 5374,3326 "
           id="polyline84" />
        <circle
           cx="8665.35"
           cy="5433.07"
           r="295.276"
           id="circle86" />
      </g>
      <g
         style="fill:#000000; fill-opacity:1.0;  stroke:#000000; stroke-width:0; stroke-opacity:1;  stroke-linecap:round; stroke-linejoin:round;"
         id="g90">
        <circle
           cx="10665.4"
           cy="5433.07"
           r="295.276"
           id="circle92" />
      </g>
      <g
         style="fill:#000000; fill-opacity:1.0;  stroke:#000000; stroke-width:0; stroke-opacity:1;  stroke-linecap:round; stroke-linejoin:round;"
         id="g96">
        <circle
           cx="6665.35"
           cy="5433.07"
           r="295.276"
           id="circle98" />
      </g>
      <g
         style="fill:#000000; fill-opacity:1.0;  stroke:#000000; stroke-width:0; stroke-opacity:1;  stroke-linecap:round; stroke-linejoin:round;"
         id="g102">
        <circle
           cx="12665.4"
           cy="5433.07"
           r="295.276"
           id="circle104" />
      </g>
      <g
         style="fill:#000000; fill-opacity:1.0;  stroke:#000000; stroke-width:0; stroke-opacity:1;  stroke-linecap:round; stroke-linejoin:round;"
         id="g108">
        <circle
           cx="8665.35"
           cy="3070.87"
           r="295.276"
           id="circle110" />
      </g>
      <g
         style="fill:#000000; fill-opacity:1.0;  stroke:#000000; stroke-width:0; stroke-opacity:1;  stroke-linecap:round; stroke-linejoin:round;"
         id="g114">
        <circle
           cx="10665.4"
           cy="3070.87"
           r="295.276"
           id="circle116" />
      </g>
      <g
         style="fill:#000000; fill-opacity:1.0;  stroke:#000000; stroke-width:0; stroke-opacity:1;  stroke-linecap:round; stroke-linejoin:round;"
         id="g120">
        <circle
           cx="6665.35"
           cy="3070.87"
           r="295.276"
           id="circle122" />
      </g>
      <g
         style="fill:#000000; fill-opacity:1.0;  stroke:#000000; stroke-width:0; stroke-opacity:1;  stroke-linecap:round; stroke-linejoin:round;"
         id="g126">
        <circle
           cx="12665.4"
           cy="3070.87"
           r="295.276"
           id="circle128" />
      </g>
      <g
         style="fill:#000000; fill-opacity:1.0;  stroke:#000000; stroke-width:0; stroke-opacity:1;  stroke-linecap:round; stroke-linejoin:round;"
         id="g132">
        <polyline
           style="fill-rule:evenodd;"
           points="12415,6953 12695,6953 12695,7133 12415,7133 12415,6953 "
           id="polyline134" />
        <polyline
           style="fill-rule:evenodd;"
           points="12415,7473 12695,7473 12695,7653 12415,7653 12415,7473 "
           id="polyline136" />
        <polyline
           style="fill-rule:evenodd;"
           points="11615,7213 11895,7213 11895,7393 11615,7393 11615,7213 "
           id="polyline138" />
        <polyline
           style="fill-rule:evenodd;"
           points="12376,959 12656,959 12656,1139 12376,1139 12376,959 "
           id="polyline140" />
        <polyline
           style="fill-rule:evenodd;"
           points="12376,1479 12656,1479 12656,1659 12376,1659 12376,1479 "
           id="polyline142" />
        <polyline
           style="fill-rule:evenodd;"
           points="11576,1219 11856,1219 11856,1399 11576,1399 11576,1219 "
           id="polyline144" />
      </g>
      <g
         style="fill:#000000; fill-opacity:0.0;  stroke:#000000; stroke-width:314.961; stroke-opacity:1;  stroke-linecap:round; stroke-linejoin:round;"
         id="g148">
        <path
           d="M12555 7563 L12761 7563 "
           id="path150" />
        <path
           d="M12516 2257 L12516 1569 "
           id="path152" />
        <path
           d="M11968 2805 L12516 2257 "
           id="path154" />
        <path
           d="M11968 6053 L11968 2805 "
           id="path156" />
        <path
           d="M12135 6220 L11968 6053 "
           id="path158" />
        <path
           d="M12440 6220 L12135 6220 "
           id="path160" />
        <path
           d="M13011 6791 L12440 6220 "
           id="path162" />
        <path
           d="M13011 7312 L13011 6791 "
           id="path164" />
        <path
           d="M12761 7563 L13011 7312 "
           id="path166" />
        <path
           d="M1257 8641 L1257 9190 "
           id="path168" />
        <path
           d="M12559 8061 L12559 7566 "
           id="path170" />
        <path
           d="M12224 8395 L12559 8061 "
           id="path172" />
        <path
           d="M9822 8395 L12224 8395 "
           id="path174" />
        <path
           d="M9055 9163 L9822 8395 "
           id="path176" />
        <path
           d="M6692 9163 L9055 9163 "
           id="path178" />
        <path
           d="M6407 9448 L6692 9163 "
           id="path180" />
        <path
           d="M1515 9448 L6407 9448 "
           id="path182" />
        <path
           d="M1257 9190 L1515 9448 "
           id="path184" />
        <path
           d="M12559 7566 L12555 7563 "
           id="path186" />
        <path
           d="M3257 8641 L4616 8641 "
           id="path188" />
        <path
           d="M4616 8641 L4635 8622 "
           id="path190" />
        <path
           d="M2257 8641 L2257 7614 "
           id="path192" />
        <path
           d="M2257 7614 L2283 7588 "
           id="path194" />
        <path
           d="M1102 6122 L1387 6407 "
           id="path196" />
        <path
           d="M1387 6407 L3700 6407 "
           id="path198" />
        <path
           d="M4685 7303 L8165 7303 "
           id="path200" />
        <path
           d="M3789 6407 L4685 7303 "
           id="path202" />
        <path
           d="M3700 6407 L3789 6407 "
           id="path204" />
        <path
           d="M8665 5433 L8665 3070 "
           id="path206" />
        <path
           d="M8665 6803 L8665 5433 "
           id="path208" />
        <path
           d="M8165 7303 L8665 6803 "
           id="path210" />
        <path
           d="M8665 1897 L8066 1299 "
           id="path212" />
        <path
           d="M8665 3070 L8665 1897 "
           id="path214" />
        <path
           d="M1141 6161 L1102 6122 "
           id="path216" />
        <path
           d="M4015 3661 L4606 3070 "
           id="path218" />
        <path
           d="M3562 3661 L4015 3661 "
           id="path220" />
        <path
           d="M12814 9685 L12814 9281 "
           id="path222" />
        <path
           d="M12814 9281 L13927 8169 "
           id="path224" />
        <path
           d="M13927 8169 L13927 4862 "
           id="path226" />
        <path
           d="M13927 4862 L13454 4389 "
           id="path228" />
        <path
           d="M13454 4389 L13454 1033 "
           id="path230" />
        <path
           d="M13454 1033 L12992 570 "
           id="path232" />
        <path
           d="M12992 570 L7106 570 "
           id="path234" />
        <path
           d="M7106 570 L5984 1692 "
           id="path236" />
        <path
           d="M5984 1692 L3562 1692 "
           id="path238" />
        <path
           d="M4507 5433 L2716 5433 "
           id="path240" />
        <path
           d="M1200 4389 L1200 3681 "
           id="path242" />
        <path
           d="M1555 4744 L1200 4389 "
           id="path244" />
        <path
           d="M2027 4744 L1555 4744 "
           id="path246" />
        <path
           d="M2716 5433 L2027 4744 "
           id="path248" />
        <path
           d="M11043 9675 L11092 9675 "
           id="path250" />
        <path
           d="M11092 9675 L11899 8868 "
           id="path252" />
        <path
           d="M11899 8868 L12519 8868 "
           id="path254" />
        <path
           d="M12519 8868 L13444 7942 "
           id="path256" />
        <path
           d="M13444 7942 L13444 6212 "
           id="path258" />
        <path
           d="M13444 6212 L12665 5433 "
           id="path260" />
        <path
           d="M12665 5433 L12665 3070 "
           id="path262" />
        <path
           d="M5698 8622 L8750 8622 "
           id="path264" />
      </g>
      <g
         style="fill:#000000; fill-opacity:0.0;  stroke:#000000; stroke-width:157.48; stroke-opacity:1;  stroke-linecap:round; stroke-linejoin:round;"
         id="g266">
        <path
           d="M12346 7043 L12555 7043 "
           id="path268" />
        <path
           d="M12185 7204 L12346 7043 "
           id="path270" />
        <path
           d="M12185 7450 L12185 7204 "
           id="path272" />
        <path
           d="M12007 7627 L12185 7450 "
           id="path274" />
        <path
           d="M12007 7765 L12007 7627 "
           id="path276" />
      </g>
      <g
         style="fill:#000000; fill-opacity:0.0;  stroke:#000000; stroke-width:314.961; stroke-opacity:1;  stroke-linecap:round; stroke-linejoin:round;"
         id="g278">
        <path
           d="M11899 7874 L12007 7765 "
           id="path280" />
        <path
           d="M9498 7874 L11899 7874 "
           id="path282" />
        <path
           d="M8750 8622 L9498 7874 "
           id="path284" />
        <path
           d="M10846 3838 L10846 4015 "
           id="path286" />
        <path
           d="M9990 6633 L9301 7322 "
           id="path288" />
        <path
           d="M9990 4872 L9990 6633 "
           id="path290" />
        <path
           d="M10846 4015 L9990 4872 "
           id="path292" />
        <path
           d="M11998 1870 L11998 1889 "
           id="path294" />
        <path
           d="M11368 3316 L10846 3838 "
           id="path296" />
        <path
           d="M11368 2519 L11368 3316 "
           id="path298" />
        <path
           d="M11998 1889 L11368 2519 "
           id="path300" />
        <path
           d="M3346 7588 L3937 7588 "
           id="path302" />
      </g>
      <g
         style="fill:#000000; fill-opacity:0.0;  stroke:#000000; stroke-width:157.48; stroke-opacity:1;  stroke-linecap:round; stroke-linejoin:round;"
         id="g304">
        <path
           d="M12297 1049 L12516 1049 "
           id="path306" />
        <path
           d="M12125 1220 L12297 1049 "
           id="path308" />
        <path
           d="M12125 1515 L12125 1220 "
           id="path310" />
        <path
           d="M11998 1643 L12125 1515 "
           id="path312" />
        <path
           d="M11998 1870 L11998 1643 "
           id="path314" />
      </g>
      <g
         style="fill:#000000; fill-opacity:0.0;  stroke:#000000; stroke-width:314.961; stroke-opacity:1;  stroke-linecap:round; stroke-linejoin:round;"
         id="g316">
        <path
           d="M8789 7834 L9301 7322 "
           id="path318" />
        <path
           d="M4183 7834 L8789 7834 "
           id="path320" />
        <path
           d="M3937 7588 L4183 7834 "
           id="path322" />
        <path
           d="M6665 5433 L5570 5433 "
           id="path324" />
        <path
           d="M6665 3070 L5669 3070 "
           id="path326" />
        <path
           d="M11755 7303 L11165 7303 "
           id="path328" />
        <path
           d="M11165 7303 L10665 6803 "
           id="path330" />
        <path
           d="M10665 6803 L10665 5433 "
           id="path332" />
      </g>
      <g
         style="fill:#000000; fill-opacity:0.0;  stroke:#000000; stroke-width:472.441; stroke-opacity:1;  stroke-linecap:round; stroke-linejoin:round;"
         id="g334">
        <path
           d="M11062 7303 L11165 7303 "
           id="path336" />
      </g>
      <g
         style="fill:#000000; fill-opacity:0.0;  stroke:#000000; stroke-width:314.961; stroke-opacity:1;  stroke-linecap:round; stroke-linejoin:round;"
         id="g338">
        <path
           d="M11716 1309 L11706 1299 "
           id="path340" />
        <path
           d="M11706 1299 L11066 1299 "
           id="path342" />
        <path
           d="M11066 1299 L10665 1700 "
           id="path344" />
        <path
           d="M10665 1700 L10665 3070 "
           id="path346" />
      </g>
      <g
         style="fill:#000000; fill-opacity:1.0;  stroke:#000000; stroke-width:100; stroke-opacity:1;  stroke-linecap:round; stroke-linejoin:round;"
         id="g348">
        <polyline
           style="fill-rule:evenodd;"
           points="13923,10379 13852,10379 13852,7942 13852,7942 13852,6212 13852,6212 13852,6212 13821,6056 13733,5924 13733,5924 13733,5924 13210,5402 13210,5325 13127,5124 13072,5069 13072,3434 13127,3380 13210,3179 13210,2962 13127,2762 12974,2608 12808,2539 12892,2413 12923,2257 12923,2257 12923,2257 12923,1569 12911,1505 12911,1479 12892,1383 12843,1308 12891,1237 12911,1139 12911,959 12892,863 12837,779 12754,723 12656,704 12376,704 12280,722 12278,724 12171,745 12064,816 11920,961 11862,922 11706,891 11706,891 11401,891 11364,854 11171,774 10962,774 10769,853 10622,1001 10542,1194 10541,1247 10377,1412 10288,1544 10257,1700 10257,1700 10257,2707 10203,2761 10120,2961 10119,3178 10202,3379 10356,3532 10523,3602 10469,3682 10438,3838 10438,3838 10438,3846 9702,4583 9613,4716 9582,4872 9582,4872 9582,6465 9013,7034 9013,7034 8695,7352 8695,7349 8953,7091 8953,7091 8953,7091 9006,7012 9041,6959 9041,6959 9072,6803 9072,6803 9072,6803 9072,5796 9127,5742 9210,5542 9210,5325 9127,5124 9072,5069 9072,3434 9127,3380 9210,3179 9210,2962 9127,2762 9072,2707 9072,1897 9072,1897 9072,1897 9041,1741 8953,1609 8953,1609 8953,1609 8596,1252 8596,1024 8578,928 8523,845 8440,789 8341,769 7791,769 7696,787 7612,842 7556,925 7537,1024 7537,1574 7555,1669 7610,1753 7693,1809 7791,1829 8020,1829 8257,2066 8257,2707 8203,2761 8120,2961 8119,3178 8202,3379 8257,3434 8257,5069 8203,5123 8120,5324 8119,5541 8202,5741 8257,5796 8257,6634 8118,6773 7890,6773 7795,6791 7711,6846 7678,6895 7210,6895 7210,5325 7210,2962 7127,2762 6974,2608 6774,2525 6557,2525 6356,2608 6301,2663 6164,2663 6145,2635 6062,2579 5964,2560 5374,2560 5278,2578 5194,2633 5138,2716 5138,2720 5137,2719 5082,2635 4999,2579 4901,2560 4311,2560 4252,2571 4252,2182 4252,2083 4252,1805 4252,1580 4252,1302 4252,1203 4214,1111 4144,1040 4052,1002 3675,1002 3612,1065 3612,1642 4190,1642 4252,1580 4252,1805 4190,1742 3612,1742 3612,2320 3675,2382 4052,2382 4144,2344 4214,2274 4252,2182 4252,2571 4215,2578 4131,2633 4075,2716 4056,2814 4056,2977 4002,2966 3512,2966 3512,2320 3512,1742 3512,1642 3512,1065 3450,1002 3073,1002 2981,1040 2911,1111 2872,1203 2872,1302 2872,1580 2935,1642 3512,1642 3512,1742 2935,1742 2872,1805 2872,2083 2872,2182 2911,2274 2981,2344 3073,2382 3450,2382 3512,2320 3512,2966 3122,2966 3027,2985 2943,3040 2887,3123 2868,3221 2868,4101 2886,4196 2941,4280 3024,4336 3122,4356 4002,4356 4098,4337 4182,4282 4238,4199 4257,4101 4257,3980 4303,3949 4671,3581 4901,3581 4996,3563 5080,3508 5136,3425 5137,3421 5137,3422 5192,3505 5275,3561 5374,3581 5964,3581 6059,3563 6143,3508 6163,3478 6301,3478 6356,3532 6556,3616 6773,3616 6973,3533 7127,3380 7210,3179 7210,2962 7210,5325 7127,5124 6974,4971 6774,4887 6557,4887 6356,4970 6301,5025 6065,5025 6047,4998 5964,4941 5866,4922 5275,4922 5180,4940 5096,4995 5040,5078 5039,5082 5039,5081 4984,4998 4901,4941 4803,4922 4212,4922 4117,4940 4033,4995 4013,5025 2885,5025 2315,4455 2183,4367 2027,4336 2027,4336 1767,4336 1819,4302 1875,4219 1895,4121 1895,3241 1895,2152 1895,1272 1877,1177 1822,1093 1739,1037 1640,1017 760,1017 665,1036 581,1091 525,1174 505,1272 505,2152 524,2247 579,2331 662,2387 760,2407 1640,2407 1736,2389 1819,2333 1875,2250 1895,2152 1895,3241 1877,3145 1822,3061 1739,3005 1640,2986 760,2986 665,3004 581,3059 525,3142 505,3241 505,4121 524,4216 579,4300 662,4356 760,4376 793,4376 793,4389 793,4389 824,4545 912,4677 1266,5032 1266,5032 1346,5085 1399,5120 1399,5120 1555,5151 1555,5151 1555,5151 1858,5151 2428,5721 2428,5721 2428,5721 2560,5809 2716,5840 2716,5840 2716,5840 4013,5840 4031,5868 4114,5924 4212,5943 4803,5943 4898,5925 4982,5870 5038,5787 5039,5783 5039,5784 5094,5868 5177,5924 5275,5943 5866,5943 5961,5925 6045,5870 6065,5840 6301,5840 6356,5895 6556,5978 6773,5978 6973,5895 7127,5742 7210,5542 7210,5325 7210,6895 4853,6895 4077,6119 3945,6031 3789,6000 3789,6000 3700,6000 1797,6000 1797,5682 1778,5586 1723,5502 1640,5446 1542,5427 662,5427 567,5445 483,5500 427,5583 407,5682 407,6562 425,6657 480,6741 564,6797 662,6816 1542,6816 1552,6814 3620,6814 3999,7193 3937,7181 3937,7181 3841,7181 3823,7153 3740,7097 3641,7077 3051,7077 2955,7096 2872,7151 2815,7234 2815,7238 2815,7237 2760,7153 2677,7097 2578,7077 1988,7077 1892,7096 1809,7151 1753,7234 1733,7332 1733,7844 1751,7939 1806,8023 1850,8053 1850,8145 1840,8151 1757,8275 1675,8151 1483,8023 1257,7978 1032,8023 840,8151 712,8343 667,8568 667,8714 712,8940 840,9131 850,9138 850,9190 850,9190 881,9346 969,9479 1227,9736 1227,9736 1227,9736 1359,9825 1515,9856 1515,9856 1515,9856 6407,9856 6407,9856 6407,9856 6563,9825 6695,9736 6861,9570 9055,9570 9055,9570 9055,9570 9211,9539 9343,9451 9991,8803 11388,8803 11211,8980 10603,8980 10507,8998 10424,9053 10368,9136 10348,9235 10348,10115 10366,10210 10421,10294 10505,10350 10603,10370 11483,10370 11578,10351 11662,10296 11718,10213 11738,10115 11738,9605 12068,9275 12124,9275 12124,9294 12124,9572 12187,9635 12764,9635 12764,9627 12864,9627 12864,9635 13442,9635 13504,9572 13504,9294 13504,9195 13466,9103 13396,9033 13304,8995 12969,8995 13733,8231 13733,8231 13733,8231 13821,8098 13852,7942 13852,7942 13852,10379 13504,10379 13504,10174 13504,10075 13504,9797 13442,9735 12864,9735 12864,10312 12927,10375 13304,10375 13396,10336 13466,10266 13504,10174 13504,10379 12764,10379 12764,10312 12764,9735 12187,9735 12124,9797 12124,10075 12124,10174 12163,10266 12233,10336 12325,10375 12702,10375 12764,10312 12764,10379 289,10379 289,289 13602,289 13923,289 13923,10379 "
           id="polyline350" />
      </g>
      <g
         style="fill:#FFFFFF; fill-opacity:1.0;  stroke:#FFFFFF; stroke-width:0; stroke-opacity:1;  stroke-linecap:round; stroke-linejoin:round;"
         id="g352">
        <circle
           cx="8165.35"
           cy="7303.15"
           r="160"
           id="circle354" />
      </g>
      <g
         style="fill:#FFFFFF; fill-opacity:1.0;  stroke:#FFFFFF; stroke-width:0; stroke-opacity:1;  stroke-linecap:round; stroke-linejoin:round;"
         id="g358">
        <circle
           cx="11165.4"
           cy="7303.15"
           r="160"
           id="circle360" />
      </g>
      <g
         style="fill:#FFFFFF; fill-opacity:1.0;  stroke:#FFFFFF; stroke-width:0; stroke-opacity:1;  stroke-linecap:round; stroke-linejoin:round;"
         id="g364">
        <circle
           cx="8066.93"
           cy="1299.21"
           r="160"
           id="circle366" />
      </g>
      <g
         style="fill:#FFFFFF; fill-opacity:1.0;  stroke:#FFFFFF; stroke-width:0; stroke-opacity:1;  stroke-linecap:round; stroke-linejoin:round;"
         id="g370">
        <circle
           cx="11066.9"
           cy="1299.21"
           r="160"
           id="circle372" />
      </g>
      <g
         style="fill:#FFFFFF; fill-opacity:1.0;  stroke:#FFFFFF; stroke-width:0; stroke-opacity:1;  stroke-linecap:round; stroke-linejoin:round;"
         id="g376">
        <circle
           cx="3257.87"
           cy="8641.73"
           r="200"
           id="circle378" />
      </g>
      <g
         style="fill:#FFFFFF; fill-opacity:1.0;  stroke:#FFFFFF; stroke-width:0; stroke-opacity:1;  stroke-linecap:round; stroke-linejoin:round;"
         id="g382">
        <circle
           cx="2257.87"
           cy="8641.73"
           r="200"
           id="circle384" />
      </g>
      <g
         style="fill:#FFFFFF; fill-opacity:1.0;  stroke:#FFFFFF; stroke-width:0; stroke-opacity:1;  stroke-linecap:round; stroke-linejoin:round;"
         id="g388">
        <circle
           cx="1257.87"
           cy="8641.73"
           r="200"
           id="circle390" />
      </g>
      <g
         style="fill:#FFFFFF; fill-opacity:1.0;  stroke:#FFFFFF; stroke-width:0; stroke-opacity:1;  stroke-linecap:round; stroke-linejoin:round;"
         id="g394">
        <circle
           cx="1102.36"
           cy="6122.05"
           r="200"
           id="circle396" />
      </g>
      <g
         style="fill:#FFFFFF; fill-opacity:1.0;  stroke:#FFFFFF; stroke-width:0; stroke-opacity:1;  stroke-linecap:round; stroke-linejoin:round;"
         id="g400">
        <circle
           cx="1200.79"
           cy="3681.1"
           r="200"
           id="circle402" />
      </g>
      <g
         style="fill:#FFFFFF; fill-opacity:1.0;  stroke:#FFFFFF; stroke-width:0; stroke-opacity:1;  stroke-linecap:round; stroke-linejoin:round;"
         id="g406">
        <circle
           cx="1200.79"
           cy="1712.6"
           r="200"
           id="circle408" />
      </g>
      <g
         style="fill:#FFFFFF; fill-opacity:1.0;  stroke:#FFFFFF; stroke-width:0; stroke-opacity:1;  stroke-linecap:round; stroke-linejoin:round;"
         id="g412">
        <circle
           cx="3562.99"
           cy="3661.42"
           r="200"
           id="circle414" />
      </g>
      <g
         style="fill:#FFFFFF; fill-opacity:1.0;  stroke:#FFFFFF; stroke-width:0; stroke-opacity:1;  stroke-linecap:round; stroke-linejoin:round;"
         id="g418">
        <circle
           cx="12815"
           cy="9685.04"
           r="200"
           id="circle420" />
      </g>
      <g
         style="fill:#FFFFFF; fill-opacity:1.0;  stroke:#FFFFFF; stroke-width:0; stroke-opacity:1;  stroke-linecap:round; stroke-linejoin:round;"
         id="g424">
        <circle
           cx="11043.3"
           cy="9675.2"
           r="200"
           id="circle426" />
      </g>
      <g
         style="fill:#FFFFFF; fill-opacity:1.0;  stroke:#FFFFFF; stroke-width:0; stroke-opacity:1;  stroke-linecap:round; stroke-linejoin:round;"
         id="g430">
        <circle
           cx="3562.99"
           cy="1692.91"
           r="200"
           id="circle432" />
      </g>
      <g
         style="fill:#FFFFFF; fill-opacity:1.0;  stroke:#FFFFFF; stroke-width:0; stroke-opacity:1;  stroke-linecap:round; stroke-linejoin:round;"
         id="g436">
        <circle
           cx="8665.35"
           cy="5433.07"
           r="118.11"
           id="circle438" />
      </g>
      <g
         style="fill:#FFFFFF; fill-opacity:1.0;  stroke:#FFFFFF; stroke-width:0; stroke-opacity:1;  stroke-linecap:round; stroke-linejoin:round;"
         id="g442">
        <circle
           cx="10665.4"
           cy="5433.07"
           r="118.11"
           id="circle444" />
      </g>
      <g
         style="fill:#FFFFFF; fill-opacity:1.0;  stroke:#FFFFFF; stroke-width:0; stroke-opacity:1;  stroke-linecap:round; stroke-linejoin:round;"
         id="g448">
        <circle
           cx="6665.35"
           cy="5433.07"
           r="118.11"
           id="circle450" />
      </g>
      <g
         style="fill:#FFFFFF; fill-opacity:1.0;  stroke:#FFFFFF; stroke-width:0; stroke-opacity:1;  stroke-linecap:round; stroke-linejoin:round;"
         id="g454">
        <circle
           cx="12665.4"
           cy="5433.07"
           r="118.11"
           id="circle456" />
      </g>
      <g
         style="fill:#FFFFFF; fill-opacity:1.0;  stroke:#FFFFFF; stroke-width:0; stroke-opacity:1;  stroke-linecap:round; stroke-linejoin:round;"
         id="g460">
        <circle
           cx="8665.35"
           cy="3070.87"
           r="118.11"
           id="circle462" />
      </g>
      <g
         style="fill:#FFFFFF; fill-opacity:1.0;  stroke:#FFFFFF; stroke-width:0; stroke-opacity:1;  stroke-linecap:round; stroke-linejoin:round;"
         id="g466">
        <circle
           cx="10665.4"
           cy="3070.87"
           r="118.11"
           id="circle468" />
      </g>
      <g
         style="fill:#FFFFFF; fill-opacity:1.0;  stroke:#FFFFFF; stroke-width:0; stroke-opacity:1;  stroke-linecap:round; stroke-linejoin:round;"
         id="g472">
        <circle
           cx="6665.35"
           cy="3070.87"
           r="118.11"
           id="circle474" />
      </g>
      <g
         style="fill:#FFFFFF; fill-opacity:1.0;  stroke:#FFFFFF; stroke-width:0; stroke-opacity:1;  stroke-linecap:round; stroke-linejoin:round;"
         id="g478">
        <circle
           cx="12665.4"
           cy="3070.87"
           r="118.11"
           id="circle480" />
      </g>
    </g>
    <path
       transform="matrix(111.11111,0,0,111.11111,0,-3.8686859e-4)"
       d="m 13.36481,15.397246 a 2.371176,2.2172036 0 1 1 -4.7423518,0 2.371176,2.2172036 0 1 1 4.7423518,0 z"
       sodipodi:ry="2.2172036"
       sodipodi:rx="2.371176"
       sodipodi:cy="15.397246"
       sodipodi:cx="10.993634"
       id="path3668"
       style="fill:#000000;fill-opacity:1;stroke-width:3.54330707;stroke-linecap:round;stroke-linejoin:round;stroke-miterlimit:4;stroke-dasharray:none"
       sodipodi:type="arc" />
    <path
       d="m 13.36481,15.397246 a 2.371176,2.2172036 0 1 1 -4.7423518,0 2.371176,2.2172036 0 1 1 4.7423518,0 z"
       sodipodi:ry="2.2172036"
       sodipodi:rx="2.371176"
       sodipodi:cy="15.397246"
       sodipodi:cx="10.993634"
       id="path3668-1"
       style="fill:#000000;fill-opacity:1;stroke-width:3.54330707;stroke-linecap:round;stroke-linejoin:round;stroke-miterlimit:4;stroke-dasharray:none"
       sodipodi:type="arc"
       transform="matrix(111.11111,0,0,111.11111,-3.4216063,1991.3769)" />
    <path
       d="m 13.36481,15.397246 a 2.371176,2.2172036 0 1 1 -4.7423518,0 2.371176,2.2172036 0 1 1 4.7423518,0 z"
       sodipodi:ry="2.2172036"
       sodipodi:rx="2.371176"
       sodipodi:cy="15.397246"
       sodipodi:cx="10.993634"
       id="path3668-7"
       style="fill:#000000;fill-opacity:1;stroke-width:3.54330707;stroke-linecap:round;stroke-linejoin:round;stroke-miterlimit:4;stroke-dasharray:none"
       sodipodi:type="arc"
       transform="matrix(111.11111,0,0,111.11111,-126.59958,4413.877)" />
    <path
       d="m 13.36481,15.397246 a 2.371176,2.2172036 0 1 1 -4.7423518,0 2.371176,2.2172036 0 1 1 4.7423518,0 z"
       sodipodi:ry="2.2172036"
       sodipodi:rx="2.371176"
       sodipodi:cy="15.397246"
       sodipodi:cx="10.993634"
       id="path3668-4"
       style="fill:#000000;fill-opacity:1;stroke-width:3.54330707;stroke-linecap:round;stroke-linejoin:round;stroke-miterlimit:4;stroke-dasharray:none"
       sodipodi:type="arc"
       transform="matrix(111.11111,0,0,111.11111,2350.6463,1964.004)" />
    <path
       d="m 13.36481,15.397246 a 2.371176,2.2172036 0 1 1 -4.7423518,0 2.371176,2.2172036 0 1 1 4.7423518,0 z"
       sodipodi:ry="2.2172036"
       sodipodi:rx="2.371176"
       sodipodi:cy="15.397246"
       sodipodi:cx="10.993634"
       id="path3668-0"
       style="fill:#000000;fill-opacity:1;stroke-width:3.54330707;stroke-linecap:round;stroke-linejoin:round;stroke-miterlimit:4;stroke-dasharray:none"
       sodipodi:type="arc"
       transform="matrix(111.11111,0,0,111.11111,44.480939,6939.0255)" />
    <path
       d="m 13.36481,15.397246 a 2.371176,2.2172036 0 1 1 -4.7423518,0 2.371176,2.2172036 0 1 1 4.7423518,0 z"
       sodipodi:ry="2.2172036"
       sodipodi:rx="2.371176"
       sodipodi:cy="15.397246"
       sodipodi:cx="10.993634"
       id="path3668-9"
       style="fill:#000000;fill-opacity:1;stroke-width:3.54330707;stroke-linecap:round;stroke-linejoin:round;stroke-miterlimit:4;stroke-dasharray:none"
       sodipodi:type="arc"
       transform="matrix(111.11111,0,0,111.11111,1050.4344,6932.1823)" />
    <path
       d="m 13.36481,15.397246 a 2.371176,2.2172036 0 1 1 -4.7423518,0 2.371176,2.2172036 0 1 1 4.7423518,0 z"
       sodipodi:ry="2.2172036"
       sodipodi:rx="2.371176"
       sodipodi:cy="15.397246"
       sodipodi:cx="10.993634"
       id="path3668-48"
       style="fill:#000000;fill-opacity:1;stroke-width:3.54330707;stroke-linecap:round;stroke-linejoin:round;stroke-miterlimit:4;stroke-dasharray:none"
       sodipodi:type="arc"
       transform="matrix(111.11111,0,0,111.11111,2049.5446,6939.0255)" />
    <path
       d="m 13.36481,15.397246 a 2.371176,2.2172036 0 1 1 -4.7423518,0 2.371176,2.2172036 0 1 1 4.7423518,0 z"
       sodipodi:ry="2.2172036"
       sodipodi:rx="2.371176"
       sodipodi:cy="15.397246"
       sodipodi:cx="10.993634"
       id="path3668-8"
       style="fill:#000000;fill-opacity:1;stroke-width:3.54330707;stroke-linecap:round;stroke-linejoin:round;stroke-miterlimit:4;stroke-dasharray:none"
       sodipodi:type="arc"
       transform="matrix(111.11111,0,0,111.11111,5446.4725,3728.2747)" />
    <path
       d="m 13.36481,15.397246 a 2.371176,2.2172036 0 1 1 -4.7423518,0 2.371176,2.2172036 0 1 1 4.7423518,0 z"
       sodipodi:ry="2.2172036"
       sodipodi:rx="2.371176"
       sodipodi:cy="15.397246"
       sodipodi:cx="10.993634"
       id="path3668-2"
       style="fill:#000000;fill-opacity:1;stroke-width:3.54330707;stroke-linecap:round;stroke-linejoin:round;stroke-miterlimit:4;stroke-dasharray:none"
       sodipodi:type="arc"
       transform="matrix(111.11111,0,0,111.11111,5451.3114,1371.7363)" />
    <path
       d="m 13.36481,15.397246 a 2.371176,2.2172036 0 1 1 -4.7423518,0 2.371176,2.2172036 0 1 1 4.7423518,0 z"
       sodipodi:ry="2.2172036"
       sodipodi:rx="2.371176"
       sodipodi:cy="15.397246"
       sodipodi:cx="10.993634"
       id="path3668-45"
       style="fill:#000000;fill-opacity:1;stroke-width:3.54330707;stroke-linecap:round;stroke-linejoin:round;stroke-miterlimit:4;stroke-dasharray:none"
       sodipodi:type="arc"
       transform="matrix(111.11111,0,0,111.11111,9825.666,7971.9793)" />
    <path
       d="m 13.36481,15.397246 a 2.371176,2.2172036 0 1 1 -4.7423518,0 2.371176,2.2172036 0 1 1 4.7423518,0 z"
       sodipodi:ry="2.2172036"
       sodipodi:rx="2.371176"
       sodipodi:cy="15.397246"
       sodipodi:cx="10.993634"
       id="path3668-5"
       style="fill:#000000;fill-opacity:1;stroke-width:3.54330707;stroke-linecap:round;stroke-linejoin:round;stroke-miterlimit:4;stroke-dasharray:none"
       sodipodi:type="arc"
       transform="matrix(111.11111,0,0,111.11111,11596.699,7986.496)" />
    <path
       d="m 13.36481,15.397246 a 2.371176,2.2172036 0 1 1 -4.7423518,0 2.371176,2.2172036 0 1 1 4.7423518,0 z"
       sodipodi:ry="2.2172036"
       sodipodi:rx="2.371176"
       sodipodi:cy="15.397246"
       sodipodi:cx="10.993634"
       id="path3668-17"
       style="fill:#000000;fill-opacity:1;stroke-width:3.54330707;stroke-linecap:round;stroke-linejoin:round;stroke-miterlimit:4;stroke-dasharray:none"
       sodipodi:type="arc"
       transform="matrix(111.11111,0,0,111.11111,9951.477,5596.0854)" />
    <path
       d="m 13.36481,15.397246 a 2.371176,2.2172036 0 1 1 -4.7423518,0 2.371176,2.2172036 0 1 1 4.7423518,0 z"
       sodipodi:ry="2.2172036"
       sodipodi:rx="2.371176"
       sodipodi:cy="15.397246"
       sodipodi:cx="10.993634"
       id="path3668-11"
       style="fill:#000000;fill-opacity:1;stroke-width:3.54330707;stroke-linecap:round;stroke-linejoin:round;stroke-miterlimit:4;stroke-dasharray:none"
       sodipodi:type="arc"
       transform="matrix(111.11111,0,0,111.11111,6946.5277,5596.0854)" />
    <path
       d="m 13.36481,15.397246 a 2.371176,2.2172036 0 1 1 -4.7423518,0 2.371176,2.2172036 0 1 1 4.7423518,0 z"
       sodipodi:ry="2.2172036"
       sodipodi:rx="2.371176"
       sodipodi:cy="15.397246"
       sodipodi:cx="10.993634"
       id="path3668-52"
       style="fill:#000000;fill-opacity:1;stroke-width:3.54330707;stroke-linecap:round;stroke-linejoin:round;stroke-miterlimit:4;stroke-dasharray:none"
       sodipodi:type="arc"
       transform="matrix(111.11111,0,0,111.11111,7449.772,3728.2747)" />
    <path
       d="m 13.36481,15.397246 a 2.371176,2.2172036 0 1 1 -4.7423518,0 2.371176,2.2172036 0 1 1 4.7423518,0 z"
       sodipodi:ry="2.2172036"
       sodipodi:rx="2.371176"
       sodipodi:cy="15.397246"
       sodipodi:cx="10.993634"
       id="path3668-76"
       style="fill:#000000;fill-opacity:1;stroke-width:3.54330707;stroke-linecap:round;stroke-linejoin:round;stroke-miterlimit:4;stroke-dasharray:none"
       sodipodi:type="arc"
       transform="matrix(111.11111,0,0,111.11111,9457.9105,3728.2747)" />
    <path
       d="m 13.36481,15.397246 a 2.371176,2.2172036 0 1 1 -4.7423518,0 2.371176,2.2172036 0 1 1 4.7423518,0 z"
       sodipodi:ry="2.2172036"
       sodipodi:rx="2.371176"
       sodipodi:cy="15.397246"
       sodipodi:cx="10.993634"
       id="path3668-14"
       style="fill:#000000;fill-opacity:1;stroke-width:3.54330707;stroke-linecap:round;stroke-linejoin:round;stroke-miterlimit:4;stroke-dasharray:none"
       sodipodi:type="arc"
       transform="matrix(111.11111,0,0,111.11111,11451.532,3728.2747)" />
    <path
       d="m 13.36481,15.397246 a 2.371176,2.2172036 0 1 1 -4.7423518,0 2.371176,2.2172036 0 1 1 4.7423518,0 z"
       sodipodi:ry="2.2172036"
       sodipodi:rx="2.371176"
       sodipodi:cy="15.397246"
       sodipodi:cx="10.993634"
       id="path3668-23"
       style="fill:#000000;fill-opacity:1;stroke-width:3.54330707;stroke-linecap:round;stroke-linejoin:round;stroke-miterlimit:4;stroke-dasharray:none"
       sodipodi:type="arc"
       transform="matrix(111.11111,0,0,111.11111,11451.532,1362.0586)" />
    <path
       d="m 13.36481,15.397246 a 2.371176,2.2172036 0 1 1 -4.7423518,0 2.371176,2.2172036 0 1 1 4.7423518,0 z"
       sodipodi:ry="2.2172036"
       sodipodi:rx="2.371176"
       sodipodi:cy="15.397246"
       sodipodi:cx="10.993634"
       id="path3668-22"
       style="fill:#000000;fill-opacity:1;stroke-width:3.54330707;stroke-linecap:round;stroke-linejoin:round;stroke-miterlimit:4;stroke-dasharray:none"
       sodipodi:type="arc"
       transform="matrix(111.11111,0,0,111.11111,9457.9105,1362.0586)" />
    <path
       d="m 13.36481,15.397246 a 2.371176,2.2172036 0 1 1 -4.7423518,0 2.371176,2.2172036 0 1 1 4.7423518,0 z"
       sodipodi:ry="2.2172036"
       sodipodi:rx="2.371176"
       sodipodi:cy="15.397246"
       sodipodi:cx="10.993634"
       id="path3668-16"
       style="fill:#000000;fill-opacity:1;stroke-width:3.54330707;stroke-linecap:round;stroke-linejoin:round;stroke-miterlimit:4;stroke-dasharray:none"
       sodipodi:type="arc"
       transform="matrix(111.11111,0,0,111.11111,7435.2554,1362.0586)" />
    <path
       d="m 13.36481,15.397246 a 2.371176,2.2172036 0 1 1 -4.7423518,0 2.371176,2.2172036 0 1 1 4.7423518,0 z"
       sodipodi:ry="2.2172036"
       sodipodi:rx="2.371176"
       sodipodi:cy="15.397246"
       sodipodi:cx="10.993634"
       id="path3668-85"
       style="fill:#000000;fill-opacity:1;stroke-width:3.54330707;stroke-linecap:round;stroke-linejoin:round;stroke-miterlimit:4;stroke-dasharray:none"
       sodipodi:type="arc"
       transform="matrix(111.11111,0,0,111.11111,9845.0215,-404.13548)" />
    <path
       d="m 13.36481,15.397246 a 2.371176,2.2172036 0 1 1 -4.7423518,0 2.371176,2.2172036 0 1 1 4.7423518,0 z"
       sodipodi:ry="2.2172036"
       sodipodi:rx="2.371176"
       sodipodi:cy="15.397246"
       sodipodi:cx="10.993634"
       id="path3668-761"
       style="fill:#000000;fill-opacity:1;stroke-width:3.54330707;stroke-linecap:round;stroke-linejoin:round;stroke-miterlimit:4;stroke-dasharray:none"
       sodipodi:type="arc"
       transform="matrix(111.11111,0,0,111.11111,6849.75,-413.81326)" />
    <path
       d="m 13.36481,15.397246 a 2.371176,2.2172036 0 1 1 -4.7423518,0 2.371176,2.2172036 0 1 1 4.7423518,0 z"
       sodipodi:ry="2.2172036"
       sodipodi:rx="2.371176"
       sodipodi:cy="15.397246"
       sodipodi:cx="10.993634"
       id="path3668-89"
       style="fill:#000000;fill-opacity:1;stroke-width:3.54330707;stroke-linecap:round;stroke-linejoin:round;stroke-miterlimit:4;stroke-dasharray:none"
       sodipodi:type="arc"
       transform="matrix(111.11111,0,0,111.11111,2350.6463,-10.265189)" />
  </g>
</svg>
