<?xml version="1.0" encoding="UTF-8" standalone="no"?>
<svg
   xmlns:dc="http://purl.org/dc/elements/1.1/"
   xmlns:cc="http://creativecommons.org/ns#"
   xmlns:rdf="http://www.w3.org/1999/02/22-rdf-syntax-ns#"
   xmlns:svg="http://www.w3.org/2000/svg"
   xmlns="http://www.w3.org/2000/svg"
   xmlns:sodipodi="http://sodipodi.sourceforge.net/DTD/sodipodi-0.dtd"
   xmlns:inkscape="http://www.inkscape.org/namespaces/inkscape"
   version="1.1"
   width="3.48996cm"
   height="3.61696cm"
   viewBox="0 0 13740 14240 "
   id="svg2"
   inkscape:version="0.48.4 r9939"
   sodipodi:docname="relay-board-B_Cu.svg">
  <metadata
     id="metadata464">
    <rdf:RDF>
      <cc:Work
         rdf:about="">
        <dc:format>image/svg+xml</dc:format>
        <dc:type
           rdf:resource="http://purl.org/dc/dcmitype/StillImage" />
      </cc:Work>
    </rdf:RDF>
  </metadata>
  <defs
     id="defs462" />
  <sodipodi:namedview
     pagecolor="#ffffff"
     bordercolor="#666666"
     borderopacity="1"
     objecttolerance="10"
     gridtolerance="10"
     guidetolerance="10"
     inkscape:pageopacity="0"
     inkscape:pageshadow="2"
     inkscape:window-width="640"
     inkscape:window-height="480"
     id="namedview460"
     showgrid="false"
     inkscape:zoom="1.8414481"
     inkscape:cx="61.829998"
     inkscape:cy="64.080002"
     inkscape:window-x="183"
     inkscape:window-y="9"
     inkscape:window-maximized="0"
     inkscape:current-layer="svg2" />
  <title
     id="title4">SVG Picture created as relay-board-B_Cu.svg date 2015/08/20 13:36:10 </title>
  <desc
     id="desc6">Picture generated by PCBNEW </desc>
  <g
     style="fill:#000000; fill-opacity:1;stroke:#000000; stroke-opacity:1; stroke-linecap:round; stroke-linejoin:round; "
     transform="translate(0 0) scale(1 1)"
     id="g8" />
  <g
     style="fill:#000000; fill-opacity:0.0;  stroke:#000000; stroke-width:0; stroke-opacity:1;  stroke-linecap:round; stroke-linejoin:round;"
     id="g20" />
  <g
     style="fill:#000000; fill-opacity:1.0;  stroke:#000000; stroke-width:39.3701; stroke-opacity:1;  stroke-linecap:round; stroke-linejoin:round;"
     id="g28" />
  <g
     style="fill:#000000; fill-opacity:1.0;  stroke:#000000; stroke-width:39.3701; stroke-opacity:1;  stroke-linecap:round; stroke-linejoin:round;"
     id="g36" />
  <g
     style="fill:#000000; fill-opacity:1.0;  stroke:#000000; stroke-width:680; stroke-opacity:1;  stroke-linecap:round; stroke-linejoin:round;"
     id="g42" />
  <g
     style="fill:#000000; fill-opacity:0.0;  stroke:#000000; stroke-width:0; stroke-opacity:1;  stroke-linecap:round; stroke-linejoin:round;"
     id="g50" />
  <g
     style="fill:#000000; fill-opacity:1.0;  stroke:#000000; stroke-width:39.3701; stroke-opacity:1;  stroke-linecap:round; stroke-linejoin:round;"
     id="g86" />
  <g
     style="fill:#000000; fill-opacity:1.0;  stroke:#000000; stroke-width:39.3701; stroke-opacity:1;  stroke-linecap:round; stroke-linejoin:round;"
     id="g92" />
  <g
     style="fill:#000000; fill-opacity:1.0;  stroke:#000000; stroke-width:39.3701; stroke-opacity:1;  stroke-linecap:round; stroke-linejoin:round;"
     id="g98" />
  <g
     style="fill:#000000; fill-opacity:1.0;  stroke:#000000; stroke-width:39.3701; stroke-opacity:1;  stroke-linecap:round; stroke-linejoin:round;"
     id="g104" />
  <g
     style="fill:#000000; fill-opacity:1.0;  stroke:#000000; stroke-width:39.3701; stroke-opacity:1;  stroke-linecap:round; stroke-linejoin:round;"
     id="g110" />
  <g
     style="fill:#000000; fill-opacity:1.0;  stroke:#000000; stroke-width:39.3701; stroke-opacity:1;  stroke-linecap:round; stroke-linejoin:round;"
     id="g116" />
  <g
     style="fill:#000000; fill-opacity:1.0;  stroke:#000000; stroke-width:39.3701; stroke-opacity:1;  stroke-linecap:round; stroke-linejoin:round;"
     id="g122" />
  <g
     style="fill:#000000; fill-opacity:1.0;  stroke:#000000; stroke-width:39.3701; stroke-opacity:1;  stroke-linecap:round; stroke-linejoin:round;"
     id="g128" />
  <g
     style="fill:#000000; fill-opacity:1.0;  stroke:#000000; stroke-width:314.961; stroke-opacity:1;  stroke-linecap:round; stroke-linejoin:round;"
     id="g144" />
  <g
     style="fill:#FFFFFF; fill-opacity:1.0;  stroke:#FFFFFF; stroke-width:39.3701; stroke-opacity:1;  stroke-linecap:round; stroke-linejoin:round;"
     id="g332" />
  <g
     style="fill:#FFFFFF; fill-opacity:1.0;  stroke:#FFFFFF; stroke-width:39.3701; stroke-opacity:1;  stroke-linecap:round; stroke-linejoin:round;"
     id="g338" />
  <g
     style="fill:#FFFFFF; fill-opacity:1.0;  stroke:#FFFFFF; stroke-width:39.3701; stroke-opacity:1;  stroke-linecap:round; stroke-linejoin:round;"
     id="g344" />
  <g
     style="fill:#FFFFFF; fill-opacity:1.0;  stroke:#FFFFFF; stroke-width:39.3701; stroke-opacity:1;  stroke-linecap:round; stroke-linejoin:round;"
     id="g350" />
  <g
     style="fill:#FFFFFF; fill-opacity:1.0;  stroke:#FFFFFF; stroke-width:39.3701; stroke-opacity:1;  stroke-linecap:round; stroke-linejoin:round;"
     id="g356" />
  <g
     style="fill:#FFFFFF; fill-opacity:1.0;  stroke:#FFFFFF; stroke-width:39.3701; stroke-opacity:1;  stroke-linecap:round; stroke-linejoin:round;"
     id="g362" />
  <g
     style="fill:#FFFFFF; fill-opacity:1.0;  stroke:#FFFFFF; stroke-width:39.3701; stroke-opacity:1;  stroke-linecap:round; stroke-linejoin:round;"
     id="g368" />
  <g
     style="fill:#FFFFFF; fill-opacity:1.0;  stroke:#FFFFFF; stroke-width:39.3701; stroke-opacity:1;  stroke-linecap:round; stroke-linejoin:round;"
     id="g374" />
  <g
     style="fill:#FFFFFF; fill-opacity:1.0;  stroke:#FFFFFF; stroke-width:39.3701; stroke-opacity:1;  stroke-linecap:round; stroke-linejoin:round;"
     id="g380" />
  <g
     style="fill:#FFFFFF; fill-opacity:1.0;  stroke:#FFFFFF; stroke-width:39.3701; stroke-opacity:1;  stroke-linecap:round; stroke-linejoin:round;"
     id="g386" />
  <g
     style="fill:#FFFFFF; fill-opacity:1.0;  stroke:#FFFFFF; stroke-width:39.3701; stroke-opacity:1;  stroke-linecap:round; stroke-linejoin:round;"
     id="g392" />
  <g
     style="fill:#FFFFFF; fill-opacity:1.0;  stroke:#FFFFFF; stroke-width:39.3701; stroke-opacity:1;  stroke-linecap:round; stroke-linejoin:round;"
     id="g398" />
  <g
     style="fill:#FFFFFF; fill-opacity:1.0;  stroke:#FFFFFF; stroke-width:39.3701; stroke-opacity:1;  stroke-linecap:round; stroke-linejoin:round;"
     id="g404" />
  <g
     style="fill:#FFFFFF; fill-opacity:1.0;  stroke:#FFFFFF; stroke-width:39.3701; stroke-opacity:1;  stroke-linecap:round; stroke-linejoin:round;"
     id="g410" />
  <g
     style="fill:#FFFFFF; fill-opacity:1.0;  stroke:#FFFFFF; stroke-width:39.3701; stroke-opacity:1;  stroke-linecap:round; stroke-linejoin:round;"
     id="g416" />
  <g
     style="fill:#FFFFFF; fill-opacity:1.0;  stroke:#FFFFFF; stroke-width:39.3701; stroke-opacity:1;  stroke-linecap:round; stroke-linejoin:round;"
     id="g422" />
  <g
     style="fill:#FFFFFF; fill-opacity:1.0;  stroke:#FFFFFF; stroke-width:39.3701; stroke-opacity:1;  stroke-linecap:round; stroke-linejoin:round;"
     id="g428" />
  <g
     style="fill:#FFFFFF; fill-opacity:1.0;  stroke:#FFFFFF; stroke-width:39.3701; stroke-opacity:1;  stroke-linecap:round; stroke-linejoin:round;"
     id="g434" />
  <g
     style="fill:#FFFFFF; fill-opacity:1.0;  stroke:#FFFFFF; stroke-width:39.3701; stroke-opacity:1;  stroke-linecap:round; stroke-linejoin:round;"
     id="g440" />
  <g
     style="fill:#FFFFFF; fill-opacity:1.0;  stroke:#FFFFFF; stroke-width:39.3701; stroke-opacity:1;  stroke-linecap:round; stroke-linejoin:round;"
     id="g446" />
  <g
     style="fill:#FFFFFF; fill-opacity:1.0;  stroke:#FFFFFF; stroke-width:39.3701; stroke-opacity:1;  stroke-linecap:round; stroke-linejoin:round;"
     id="g452" />
  <g
     id="g3441">
    <g
       id="g10"
       style="fill:#000000; fill-opacity:0.0;  stroke:#000000; stroke-width:39.3701; stroke-opacity:1;  stroke-linecap:round; stroke-linejoin:round;">
      <path
         id="path12"
         d="M13602 11437 L19 11437 " />
      <path
         id="path14"
         d="M13602 19 L13602 11437 " />
      <path
         id="path16"
         d="M19 19 L13602 19 " />
      <path
         id="path18"
         d="M19 11437 L19 19 " />
    </g>
    <g
       id="g22"
       style="fill:#000000; fill-opacity:1.0;  stroke:#000000; stroke-width:0; stroke-opacity:1;  stroke-linecap:round; stroke-linejoin:round;">
      <polyline
         id="polyline24"
         points="8440,7028 8440,7578 7890,7578 7890,7028 8440,7028 "
         style="fill-rule:evenodd;" />
      <circle
         id="circle26"
         r="275"
         cy="7303.15"
         cx="11165.4" />
    </g>
    <g
       id="g30"
       style="fill:#000000; fill-opacity:1.0;  stroke:#000000; stroke-width:0; stroke-opacity:1;  stroke-linecap:round; stroke-linejoin:round;">
      <polyline
         id="polyline32"
         points="8341,1024 8341,1574 7791,1574 7791,1024 8341,1024 "
         style="fill-rule:evenodd;" />
      <circle
         id="circle34"
         r="275"
         cy="1299.21"
         cx="11066.9" />
    </g>
    <g
       id="g38"
       style="fill:#000000; fill-opacity:1.0;  stroke:#000000; stroke-width:0; stroke-opacity:1;  stroke-linecap:round; stroke-linejoin:round;">
      <polyline
         id="polyline40"
         points="2829,9560 3509,9560 3509,10360 2829,10360 2829,9560 "
         style="fill-rule:evenodd;" />
    </g>
    <g
       id="g44"
       style="fill:#000000; fill-opacity:0.0;  stroke:#000000; stroke-width:680; stroke-opacity:1;  stroke-linecap:round; stroke-linejoin:round;">
      <path
         id="path46"
         d="M2169 9900 L2169 10020 " />
      <path
         id="path48"
         d="M1169 9900 L1169 10020 " />
    </g>
    <g
       id="g52"
       style="fill:#000000; fill-opacity:1.0;  stroke:#000000; stroke-width:0; stroke-opacity:1;  stroke-linecap:round; stroke-linejoin:round;">
      <polyline
         id="polyline54"
         points="662,6562 662,5682 1542,5682 1542,6562 662,6562 "
         style="fill-rule:evenodd;" />
      <polyline
         id="polyline56"
         points="1646,4101 1646,3221 2526,3221 2526,4101 1646,4101 "
         style="fill-rule:evenodd;" />
      <polyline
         id="polyline58"
         points="1646,2132 1646,1252 2526,1252 2526,2132 1646,2132 "
         style="fill-rule:evenodd;" />
      <polyline
         id="polyline60"
         points="3122,4101 3122,3221 4002,3221 4002,4101 3122,4101 "
         style="fill-rule:evenodd;" />
      <polyline
         id="polyline62"
         points="12374,9908 12374,9028 13254,9028 13254,9908 12374,9908 "
         style="fill-rule:evenodd;" />
      <polyline
         id="polyline64"
         points="10603,9908 10603,9028 11483,9028 11483,9908 10603,9908 "
         style="fill-rule:evenodd;" />
      <polyline
         id="polyline66"
         points="3122,2132 3122,1252 4002,1252 4002,2132 3122,2132 "
         style="fill-rule:evenodd;" />
      <polyline
         id="polyline68"
         points="3996,8228 3996,8740 3405,8740 3405,8228 3996,8228 "
         style="fill-rule:evenodd;" />
      <polyline
         id="polyline70"
         points="2933,8228 2933,8740 2342,8740 2342,8228 2933,8228 "
         style="fill-rule:evenodd;" />
      <polyline
         id="polyline72"
         points="4212,5688 4212,5177 4803,5177 4803,5688 4212,5688 "
         style="fill-rule:evenodd;" />
      <polyline
         id="polyline74"
         points="5275,5688 5275,5177 5866,5177 5866,5688 5275,5688 "
         style="fill-rule:evenodd;" />
      <polyline
         id="polyline76"
         points="6161,9606 6161,10118 5570,10118 5570,9606 6161,9606 "
         style="fill-rule:evenodd;" />
      <polyline
         id="polyline78"
         points="5098,9606 5098,10118 4507,10118 4507,9606 5098,9606 "
         style="fill-rule:evenodd;" />
      <polyline
         id="polyline80"
         points="4311,3326 4311,2814 4901,2814 4901,3326 4311,3326 "
         style="fill-rule:evenodd;" />
      <polyline
         id="polyline82"
         points="5374,3326 5374,2814 5964,2814 5964,3326 5374,3326 "
         style="fill-rule:evenodd;" />
      <circle
         id="circle84"
         r="295.276"
         cy="5433.07"
         cx="8665.35" />
    </g>
    <g
       id="g88"
       style="fill:#000000; fill-opacity:1.0;  stroke:#000000; stroke-width:0; stroke-opacity:1;  stroke-linecap:round; stroke-linejoin:round;">
      <circle
         id="circle90"
         r="295.276"
         cy="5433.07"
         cx="10665.4" />
    </g>
    <g
       id="g94"
       style="fill:#000000; fill-opacity:1.0;  stroke:#000000; stroke-width:0; stroke-opacity:1;  stroke-linecap:round; stroke-linejoin:round;">
      <circle
         id="circle96"
         r="295.276"
         cy="5433.07"
         cx="6665.35" />
    </g>
    <g
       id="g100"
       style="fill:#000000; fill-opacity:1.0;  stroke:#000000; stroke-width:0; stroke-opacity:1;  stroke-linecap:round; stroke-linejoin:round;">
      <circle
         id="circle102"
         r="295.276"
         cy="5433.07"
         cx="12665.4" />
    </g>
    <g
       id="g106"
       style="fill:#000000; fill-opacity:1.0;  stroke:#000000; stroke-width:0; stroke-opacity:1;  stroke-linecap:round; stroke-linejoin:round;">
      <circle
         id="circle108"
         r="295.276"
         cy="3070.87"
         cx="8665.35" />
    </g>
    <g
       id="g112"
       style="fill:#000000; fill-opacity:1.0;  stroke:#000000; stroke-width:0; stroke-opacity:1;  stroke-linecap:round; stroke-linejoin:round;">
      <circle
         id="circle114"
         r="295.276"
         cy="3070.87"
         cx="10665.4" />
    </g>
    <g
       id="g118"
       style="fill:#000000; fill-opacity:1.0;  stroke:#000000; stroke-width:0; stroke-opacity:1;  stroke-linecap:round; stroke-linejoin:round;">
      <circle
         id="circle120"
         r="295.276"
         cy="3070.87"
         cx="6665.35" />
    </g>
    <g
       id="g124"
       style="fill:#000000; fill-opacity:1.0;  stroke:#000000; stroke-width:0; stroke-opacity:1;  stroke-linecap:round; stroke-linejoin:round;">
      <circle
         id="circle126"
         r="295.276"
         cy="3070.87"
         cx="12665.4" />
    </g>
    <g
       id="g130"
       style="fill:#000000; fill-opacity:1.0;  stroke:#000000; stroke-width:0; stroke-opacity:1;  stroke-linecap:round; stroke-linejoin:round;">
      <polyline
         id="polyline132"
         points="7169,6953 7449,6953 7449,7133 7169,7133 7169,6953 "
         style="fill-rule:evenodd;" />
      <polyline
         id="polyline134"
         points="7169,7473 7449,7473 7449,7653 7169,7653 7169,7473 "
         style="fill-rule:evenodd;" />
      <polyline
         id="polyline136"
         points="6369,7213 6649,7213 6649,7393 6369,7393 6369,7213 "
         style="fill-rule:evenodd;" />
      <polyline
         id="polyline138"
         points="7169,949 7449,949 7449,1129 7169,1129 7169,949 "
         style="fill-rule:evenodd;" />
      <polyline
         id="polyline140"
         points="7169,1469 7449,1469 7449,1649 7169,1649 7169,1469 "
         style="fill-rule:evenodd;" />
      <polyline
         id="polyline142"
         points="6369,1209 6649,1209 6649,1389 6369,1389 6369,1209 "
         style="fill-rule:evenodd;" />
    </g>
    <g
       id="g146"
       style="fill:#000000; fill-opacity:0.0;  stroke:#000000; stroke-width:314.961; stroke-opacity:1;  stroke-linecap:round; stroke-linejoin:round;">
      <path
         id="path148"
         d="M7905 7563 L8165 7303 " />
      <path
         id="path150"
         d="M7309 7563 L7905 7563 " />
      <path
         id="path152"
         d="M8665 6803 L8665 5433 " />
      <path
         id="path154"
         d="M8165 7303 L8665 6803 " />
      <path
         id="path156"
         d="M1169 9960 L1169 10431 " />
    </g>
    <g
       id="g158"
       style="fill:#000000; fill-opacity:0.0;  stroke:#000000; stroke-width:472.441; stroke-opacity:1;  stroke-linecap:round; stroke-linejoin:round;">
      <path
         id="path160"
         d="M8405 9960 L11062 7303 " />
    </g>
    <g
       id="g162"
       style="fill:#000000; fill-opacity:0.0;  stroke:#000000; stroke-width:314.961; stroke-opacity:1;  stroke-linecap:round; stroke-linejoin:round;">
      <path
         id="path164"
         d="M7696 10669 L8405 9960 " />
      <path
         id="path166"
         d="M1407 10669 L7696 10669 " />
      <path
         id="path168"
         d="M1169 10431 L1407 10669 " />
      <path
         id="path170"
         d="M10665 1700 L11066 1299 " />
      <path
         id="path172"
         d="M10665 3070 L10665 1700 " />
      <path
         id="path174"
         d="M10665 3070 L10665 5433 " />
      <path
         id="path176"
         d="M10665 6803 L11165 7303 " />
      <path
         id="path178"
         d="M10665 5433 L10665 6803 " />
    </g>
    <g
       id="g180"
       style="fill:#000000; fill-opacity:0.0;  stroke:#000000; stroke-width:472.441; stroke-opacity:1;  stroke-linecap:round; stroke-linejoin:round;">
      <path
         id="path182"
         d="M11062 7303 L11165 7303 " />
    </g>
    <g
       id="g184"
       style="fill:#000000; fill-opacity:0.0;  stroke:#000000; stroke-width:314.961; stroke-opacity:1;  stroke-linecap:round; stroke-linejoin:round;">
      <path
         id="path186"
         d="M7806 1559 L8066 1299 " />
      <path
         id="path188"
         d="M7309 1559 L7806 1559 " />
      <path
         id="path190"
         d="M8665 1897 L8066 1299 " />
      <path
         id="path192"
         d="M8665 3070 L8665 1897 " />
      <path
         id="path194"
         d="M3169 9960 L4704 9960 " />
      <path
         id="path196"
         d="M4704 9960 L4803 9862 " />
      <path
         id="path198"
         d="M2169 9960 L2169 8952 " />
      <path
         id="path200"
         d="M2169 8952 L2637 8484 " />
      <path
         id="path202"
         d="M1141 6161 L1102 6122 " />
      <path
         id="path204"
         d="M2775 6161 L1141 6161 " />
      <path
         id="path206"
         d="M6509 7303 L5236 7303 " />
      <path
         id="path208"
         d="M2834 6161 L3976 7303 " />
      <path
         id="path210"
         d="M4862 7303 L5236 7303 " />
      <path
         id="path212"
         d="M3976 7303 L4862 7303 " />
      <path
         id="path214"
         d="M2775 6161 L2834 6161 " />
      <path
         id="path216"
         d="M4980 7303 L5984 6299 " />
      <path
         id="path218"
         d="M5984 6299 L7263 6299 " />
      <path
         id="path220"
         d="M6509 1633 L6509 1299 " />
      <path
         id="path222"
         d="M4862 7303 L4980 7303 " />
      <path
         id="path224"
         d="M6509 1725 L7165 2381 " />
      <path
         id="path226"
         d="M7165 2381 L7519 2381 " />
      <path
         id="path228"
         d="M7519 2381 L7755 2618 " />
      <path
         id="path230"
         d="M7755 2618 L7755 5807 " />
      <path
         id="path232"
         d="M7755 5807 L7263 6299 " />
      <path
         id="path234"
         d="M6509 1633 L6509 1725 " />
      <path
         id="path236"
         d="M3188 5433 L2086 4330 " />
      <path
         id="path238"
         d="M2086 4330 L2086 3661 " />
      <path
         id="path240"
         d="M4507 5433 L3188 5433 " />
    </g>
    <g
       id="g242"
       style="fill:#000000; fill-opacity:0.0;  stroke:#000000; stroke-width:472.441; stroke-opacity:1;  stroke-linecap:round; stroke-linejoin:round;">
      <path
         id="path244"
         d="M4035 1692 L5255 472 " />
      <path
         id="path246"
         d="M5255 472 L12381 472 " />
      <path
         id="path248"
         d="M12381 472 L13287 1377 " />
      <path
         id="path250"
         d="M13287 1377 L13287 8090 " />
      <path
         id="path252"
         d="M13287 8090 L12814 8562 " />
      <path
         id="path254"
         d="M12814 8562 L12814 9468 " />
      <path
         id="path256"
         d="M3562 1692 L4035 1692 " />
    </g>
    <g
       id="g258"
       style="fill:#000000; fill-opacity:0.0;  stroke:#000000; stroke-width:314.961; stroke-opacity:1;  stroke-linecap:round; stroke-linejoin:round;">
      <path
         id="path260"
         d="M4015 3661 L4606 3070 " />
      <path
         id="path262"
         d="M3562 3661 L4015 3661 " />
      <path
         id="path264"
         d="M11043 8759 L12665 7137 " />
      <path
         id="path266"
         d="M12665 7137 L12665 5433 " />
      <path
         id="path268"
         d="M11043 9468 L11043 8759 " />
      <path
         id="path270"
         d="M12665 5433 L12665 3070 " />
    </g>
    <g
       id="g272"
       style="fill:#000000; fill-opacity:0.0;  stroke:#000000; stroke-width:157.48; stroke-opacity:1;  stroke-linecap:round; stroke-linejoin:round;">
      <path
         id="path274"
         d="M3700 8484 L6141 8484 " />
      <path
         id="path276"
         d="M7090 7043 L7309 7043 " />
      <path
         id="path278"
         d="M6870 7263 L7090 7043 " />
      <path
         id="path280"
         d="M6870 7755 L6870 7263 " />
      <path
         id="path282"
         d="M6614 8011 L6870 7755 " />
      <path
         id="path284"
         d="M6141 8484 L6614 8011 " />
      <path
         id="path286"
         d="M5866 9862 L7027 9862 " />
      <path
         id="path288"
         d="M6968 1712 L6988 1712 " />
      <path
         id="path290"
         d="M8129 2755 L8169 2795 " />
      <path
         id="path292"
         d="M8129 2204 L8129 2755 " />
      <path
         id="path294"
         d="M7854 1929 L8129 2204 " />
      <path
         id="path296"
         d="M7204 1929 L7854 1929 " />
      <path
         id="path298"
         d="M6988 1712 L7204 1929 " />
      <path
         id="path300"
         d="M9251 4566 L9251 5019 " />
      <path
         id="path302"
         d="M8169 3484 L9251 4566 " />
      <path
         id="path304"
         d="M8169 2795 L8169 3484 " />
      <path
         id="path306"
         d="M9251 7637 L9251 5019 " />
      <path
         id="path308"
         d="M8129 8759 L9251 7637 " />
      <path
         id="path310"
         d="M7090 1039 L7309 1039 " />
      <path
         id="path312"
         d="M6968 1161 L7090 1039 " />
      <path
         id="path314"
         d="M6968 1712 L6968 1161 " />
      <path
         id="path316"
         d="M7027 9862 L8129 8759 " />
    </g>
    <g
       id="g318"
       style="fill:#000000; fill-opacity:0.0;  stroke:#000000; stroke-width:314.961; stroke-opacity:1;  stroke-linecap:round; stroke-linejoin:round;">
      <path
         id="path320"
         d="M6665 5433 L5570 5433 " />
      <path
         id="path322"
         d="M6665 3070 L5669 3070 " />
    </g>
    <g
       id="g324"
       style="fill:#000000; fill-opacity:1.0;  stroke:#000000; stroke-width:100; stroke-opacity:1;  stroke-linecap:round; stroke-linejoin:round;">
      <polyline
         id="polyline326"
         points="13332,11167 12764,11167 12764,10096 12764,9518 12764,9418 12764,8841 12702,8778 12325,8778 12233,8816 12163,8886 12124,8978 12124,9078 12124,9356 12187,9418 12764,9418 12764,9518 12187,9518 12124,9581 12124,9858 12124,9958 12163,10050 12233,10120 12325,10158 12702,10158 12764,10096 12764,11167 289,11167 289,289 13332,289 13332,8790 13304,8778 13210,8778 13210,5325 13127,5124 13072,5069 13072,3434 13127,3380 13210,3179 13210,2962 13127,2762 12974,2608 12774,2525 12557,2525 12356,2608 12203,2761 12120,2961 12119,3178 12202,3379 12257,3434 12257,5069 12203,5123 12120,5324 12119,5541 12202,5741 12257,5796 12257,6969 11690,7536 11690,7199 11610,7006 11463,6858 11270,6778 11216,6778 11072,6634 11072,5796 11127,5742 11210,5542 11210,5325 11127,5124 11072,5069 11072,3434 11127,3380 11210,3179 11210,2962 11127,2762 11072,2707 11072,1869 11118,1824 11170,1824 11363,1744 11511,1596 11591,1404 11592,1195 11512,1002 11364,854 11171,774 10962,774 10769,853 10622,1001 10542,1194 10541,1247 10377,1412 10288,1544 10257,1700 10257,1700 10257,2707 10203,2761 10120,2961 10119,3178 10202,3379 10257,3434 10257,5069 10203,5123 10120,5324 10119,5541 10202,5741 10257,5796 10257,6803 10257,6803 10288,6959 10377,7091 10482,7196 8061,9616 7956,9774 7941,9848 7528,10261 6365,10261 6396,10216 6401,10190 7027,10190 7153,10165 7153,10165 7260,10094 8362,8992 9484,7870 9555,7763 9555,7763 9580,7637 9580,5019 9580,4566 9555,4441 9555,4441 9484,4334 8766,3616 8773,3616 8973,3533 9127,3380 9210,3179 9210,2962 9127,2762 9072,2707 9072,1897 9072,1897 9072,1897 9041,1741 8953,1609 8953,1609 8953,1609 8596,1252 8596,1024 8578,928 8523,845 8440,789 8341,769 7791,769 7696,787 7658,812 7630,770 7547,714 7449,694 7169,694 7074,712 7072,714 6964,735 6858,806 6736,928 6717,957 6665,922 6509,891 6353,922 6280,971 6274,972 6190,1027 6134,1110 6114,1209 6114,1235 6101,1299 6101,1633 6101,1725 6101,1725 6132,1881 6221,2014 6732,2525 6557,2525 6356,2608 6301,2663 6164,2663 6145,2635 6062,2579 5964,2560 5374,2560 5278,2578 5194,2633 5138,2716 5138,2720 5137,2719 5082,2635 4999,2579 4901,2560 4311,2560 4252,2571 4252,2182 4252,2083 4252,1805 4252,1580 4252,1302 4252,1203 4214,1111 4144,1040 4052,1002 3675,1002 3612,1065 3612,1642 4190,1642 4252,1580 4252,1805 4190,1742 3612,1742 3612,2320 3675,2382 4052,2382 4144,2344 4214,2274 4252,2182 4252,2571 4215,2578 4131,2633 4075,2716 4056,2814 4056,2977 4002,2966 3512,2966 3512,2320 3512,1742 3512,1642 3512,1065 3450,1002 3073,1002 2981,1040 2911,1111 2872,1203 2872,1302 2872,1580 2935,1642 3512,1642 3512,1742 2935,1742 2872,1805 2872,2083 2872,2182 2911,2274 2981,2344 3073,2382 3450,2382 3512,2320 3512,2966 3122,2966 3027,2985 2943,3040 2887,3123 2868,3221 2868,4101 2886,4196 2941,4280 3024,4336 3122,4356 4002,4356 4098,4337 4182,4282 4238,4199 4257,4101 4257,3980 4303,3949 4671,3581 4901,3581 4996,3563 5080,3508 5136,3425 5137,3421 5137,3422 5192,3505 5275,3561 5374,3581 5964,3581 6059,3563 6143,3508 6163,3478 6301,3478 6356,3532 6556,3616 6773,3616 6973,3533 7127,3380 7210,3179 7210,2962 7136,2783 7165,2789 7165,2789 7165,2789 7348,2789 7348,5638 7094,5891 6977,5891 7127,5742 7210,5542 7210,5325 7127,5124 6974,4971 6774,4887 6557,4887 6356,4970 6301,5025 6065,5025 6047,4998 5964,4941 5866,4922 5275,4922 5180,4940 5096,4995 5040,5078 5039,5082 5039,5081 4984,4998 4901,4941 4803,4922 4212,4922 4117,4940 4033,4995 4013,5025 3357,5025 2650,4318 2705,4282 2761,4199 2781,4101 2781,3221 2781,2132 2781,1252 2763,1157 2707,1073 2624,1017 2526,998 1646,998 1551,1016 1467,1071 1411,1154 1391,1252 1391,2132 1410,2228 1465,2312 1548,2368 1646,2387 2526,2387 2621,2369 2705,2314 2761,2231 2781,2132 2781,3221 2763,3126 2707,3042 2624,2986 2526,2966 1646,2966 1551,2985 1467,3040 1411,3123 1391,3221 1391,4101 1410,4196 1465,4280 1548,4336 1646,4356 1684,4356 1710,4486 1798,4618 2900,5721 3033,5809 3188,5840 3188,5840 3188,5840 4013,5840 4031,5868 4114,5924 4212,5943 4803,5943 4898,5925 4982,5870 5038,5787 5039,5783 5039,5784 5094,5868 5177,5924 5275,5943 5796,5943 5696,6011 5696,6011 4811,6895 4145,6895 3122,5873 2990,5784 2834,5753 2834,5753 2775,5753 1797,5753 1797,5682 1778,5586 1723,5502 1640,5446 1542,5427 662,5427 567,5445 483,5500 427,5583 407,5682 407,6562 425,6657 480,6741 564,6797 662,6816 1542,6816 1637,6798 1721,6743 1777,6660 1795,6568 2665,6568 3688,7591 3688,7591 3767,7644 3820,7679 3820,7679 3976,7710 4862,7710 4980,7710 4980,7710 4980,7710 4980,7710 5236,7710 6450,7710 6381,7779 6005,8155 4236,8155 4232,8133 4177,8049 4094,7993 3996,7973 3405,7973 3310,7991 3226,8046 3170,8130 3169,8133 3169,8133 3114,8049 3031,7993 2933,7973 2342,7973 2247,7991 2163,8046 2107,8130 2087,8228 2087,8458 1881,8664 1792,8796 1761,8952 1761,8952 1761,9464 1752,9470 1669,9594 1586,9470 1395,9342 1169,9297 943,9342 752,9470 624,9662 579,9887 579,10033 624,10259 752,10450 767,10461 792,10587 881,10719 1119,10957 1119,10957 1198,11010 1251,11045 1251,11045 1407,11076 1407,11076 1407,11076 7696,11076 7696,11076 7696,11076 7852,11045 7984,10957 8517,10424 8591,10409 8749,10304 11225,7828 11269,7828 11462,7748 11610,7600 11690,7408 11690,7199 11690,7536 10755,8471 10666,8603 10635,8759 10635,8759 10635,8773 10603,8773 10507,8792 10424,8847 10368,8930 10348,9028 10348,9908 10366,10003 10421,10087 10505,10143 10603,10163 11483,10163 11578,10144 11662,10089 11718,10006 11738,9908 11738,9028 11719,8933 11664,8849 11584,8795 12953,7425 12953,7425 12953,7425 13041,7293 13072,7137 13072,7137 13072,7137 13072,5796 13127,5742 13210,5542 13210,5325 13210,8778 12927,8778 12864,8841 12864,9418 12872,9418 12872,9518 12864,9518 12864,10096 12927,10158 13304,10158 13332,10146 13332,11167 "
         style="fill-rule:evenodd;" />
    </g>
    <g
       id="g328"
       style="fill:#FFFFFF; fill-opacity:1.0;  stroke:#FFFFFF; stroke-width:0; stroke-opacity:1;  stroke-linecap:round; stroke-linejoin:round;">
      <circle
         id="circle330"
         r="160"
         cy="7303.15"
         cx="8165.35" />
    </g>
    <g
       id="g334"
       style="fill:#FFFFFF; fill-opacity:1.0;  stroke:#FFFFFF; stroke-width:0; stroke-opacity:1;  stroke-linecap:round; stroke-linejoin:round;">
      <circle
         id="circle336"
         r="160"
         cy="7303.15"
         cx="11165.4" />
    </g>
    <g
       id="g340"
       style="fill:#FFFFFF; fill-opacity:1.0;  stroke:#FFFFFF; stroke-width:0; stroke-opacity:1;  stroke-linecap:round; stroke-linejoin:round;">
      <circle
         id="circle342"
         r="160"
         cy="1299.21"
         cx="8066.93" />
    </g>
    <g
       id="g346"
       style="fill:#FFFFFF; fill-opacity:1.0;  stroke:#FFFFFF; stroke-width:0; stroke-opacity:1;  stroke-linecap:round; stroke-linejoin:round;">
      <circle
         id="circle348"
         r="160"
         cy="1299.21"
         cx="11066.9" />
    </g>
    <g
       id="g352"
       style="fill:#FFFFFF; fill-opacity:1.0;  stroke:#FFFFFF; stroke-width:0; stroke-opacity:1;  stroke-linecap:round; stroke-linejoin:round;">
      <circle
         id="circle354"
         r="200"
         cy="9960.63"
         cx="3169.29" />
    </g>
    <g
       id="g358"
       style="fill:#FFFFFF; fill-opacity:1.0;  stroke:#FFFFFF; stroke-width:0; stroke-opacity:1;  stroke-linecap:round; stroke-linejoin:round;">
      <circle
         id="circle360"
         r="200"
         cy="9960.63"
         cx="2169.29" />
    </g>
    <g
       id="g364"
       style="fill:#FFFFFF; fill-opacity:1.0;  stroke:#FFFFFF; stroke-width:0; stroke-opacity:1;  stroke-linecap:round; stroke-linejoin:round;">
      <circle
         id="circle366"
         r="200"
         cy="9960.63"
         cx="1169.29" />
    </g>
    <g
       id="g370"
       style="fill:#FFFFFF; fill-opacity:1.0;  stroke:#FFFFFF; stroke-width:0; stroke-opacity:1;  stroke-linecap:round; stroke-linejoin:round;">
      <circle
         id="circle372"
         r="200"
         cy="6122.05"
         cx="1102.36" />
    </g>
    <g
       id="g376"
       style="fill:#FFFFFF; fill-opacity:1.0;  stroke:#FFFFFF; stroke-width:0; stroke-opacity:1;  stroke-linecap:round; stroke-linejoin:round;">
      <circle
         id="circle378"
         r="200"
         cy="3661.42"
         cx="2086.61" />
    </g>
    <g
       id="g382"
       style="fill:#FFFFFF; fill-opacity:1.0;  stroke:#FFFFFF; stroke-width:0; stroke-opacity:1;  stroke-linecap:round; stroke-linejoin:round;">
      <circle
         id="circle384"
         r="200"
         cy="1692.91"
         cx="2086.61" />
    </g>
    <g
       id="g388"
       style="fill:#FFFFFF; fill-opacity:1.0;  stroke:#FFFFFF; stroke-width:0; stroke-opacity:1;  stroke-linecap:round; stroke-linejoin:round;">
      <circle
         id="circle390"
         r="200"
         cy="3661.42"
         cx="3562.99" />
    </g>
    <g
       id="g394"
       style="fill:#FFFFFF; fill-opacity:1.0;  stroke:#FFFFFF; stroke-width:0; stroke-opacity:1;  stroke-linecap:round; stroke-linejoin:round;">
      <circle
         id="circle396"
         r="200"
         cy="9468.5"
         cx="12815" />
    </g>
    <g
       id="g400"
       style="fill:#FFFFFF; fill-opacity:1.0;  stroke:#FFFFFF; stroke-width:0; stroke-opacity:1;  stroke-linecap:round; stroke-linejoin:round;">
      <circle
         id="circle402"
         r="200"
         cy="9468.5"
         cx="11043.3" />
    </g>
    <g
       id="g406"
       style="fill:#FFFFFF; fill-opacity:1.0;  stroke:#FFFFFF; stroke-width:0; stroke-opacity:1;  stroke-linecap:round; stroke-linejoin:round;">
      <circle
         id="circle408"
         r="200"
         cy="1692.91"
         cx="3562.99" />
    </g>
    <g
       id="g412"
       style="fill:#FFFFFF; fill-opacity:1.0;  stroke:#FFFFFF; stroke-width:0; stroke-opacity:1;  stroke-linecap:round; stroke-linejoin:round;">
      <circle
         id="circle414"
         r="118.11"
         cy="5433.07"
         cx="8665.35" />
    </g>
    <g
       id="g418"
       style="fill:#FFFFFF; fill-opacity:1.0;  stroke:#FFFFFF; stroke-width:0; stroke-opacity:1;  stroke-linecap:round; stroke-linejoin:round;">
      <circle
         id="circle420"
         r="118.11"
         cy="5433.07"
         cx="10665.4" />
    </g>
    <g
       id="g424"
       style="fill:#FFFFFF; fill-opacity:1.0;  stroke:#FFFFFF; stroke-width:0; stroke-opacity:1;  stroke-linecap:round; stroke-linejoin:round;">
      <circle
         id="circle426"
         r="118.11"
         cy="5433.07"
         cx="6665.35" />
    </g>
    <g
       id="g430"
       style="fill:#FFFFFF; fill-opacity:1.0;  stroke:#FFFFFF; stroke-width:0; stroke-opacity:1;  stroke-linecap:round; stroke-linejoin:round;">
      <circle
         id="circle432"
         r="118.11"
         cy="5433.07"
         cx="12665.4" />
    </g>
    <g
       id="g436"
       style="fill:#FFFFFF; fill-opacity:1.0;  stroke:#FFFFFF; stroke-width:0; stroke-opacity:1;  stroke-linecap:round; stroke-linejoin:round;">
      <circle
         id="circle438"
         r="118.11"
         cy="3070.87"
         cx="8665.35" />
    </g>
    <g
       id="g442"
       style="fill:#FFFFFF; fill-opacity:1.0;  stroke:#FFFFFF; stroke-width:0; stroke-opacity:1;  stroke-linecap:round; stroke-linejoin:round;">
      <circle
         id="circle444"
         r="118.11"
         cy="3070.87"
         cx="10665.4" />
    </g>
    <g
       id="g448"
       style="fill:#FFFFFF; fill-opacity:1.0;  stroke:#FFFFFF; stroke-width:0; stroke-opacity:1;  stroke-linecap:round; stroke-linejoin:round;">
      <circle
         id="circle450"
         r="118.11"
         cy="3070.87"
         cx="6665.35" />
    </g>
    <g
       id="g454"
       style="fill:#FFFFFF; fill-opacity:1.0;  stroke:#FFFFFF; stroke-width:0; stroke-opacity:1;  stroke-linecap:round; stroke-linejoin:round;">
      <circle
         id="circle456"
         r="118.11"
         cy="3070.87"
         cx="12665.4" />
    </g>
  </g>
  <g
     style="fill:#FFFFFF; fill-opacity:1.0;  stroke:#FFFFFF; stroke-width:39.3701; stroke-opacity:1;  stroke-linecap:round; stroke-linejoin:round;"
     id="g458" />
</svg>
